STARTFONT 2.3
FONT -FontForge-Open Sans-Book-I-Normal-Sans--20-200-72-72-P-108-ISO10646-1
SIZE 20 72 72  2
FONTBOUNDINGBOX 35 26 -10 -5
COMMENT "Generated by fontforge, http://fontforge.sourceforge.net"
COMMENT "Digitized data copyright (c) 2010-2011, Google Corporation."
STARTPROPERTIES 42
FOUNDRY "FontForge"
FAMILY_NAME "Open Sans"
WEIGHT_NAME "Book"
SLANT "I"
SETWIDTH_NAME "Normal"
ADD_STYLE_NAME "Sans"
PIXEL_SIZE 20
POINT_SIZE 200
RESOLUTION_X 72
RESOLUTION_Y 72
SPACING "P"
AVERAGE_WIDTH 108
CHARSET_REGISTRY "ISO10646"
CHARSET_ENCODING "1"
FONTNAME_REGISTRY ""
CHARSET_COLLECTIONS "ISO8859-2 ISO8859-5 ISO8859-7 ISO8859-9 ISO8859-4 ISO10646-1"
BITS_PER_PIXEL 2
FONT_NAME "OpenSans-Italic"
FACE_NAME "Open Sans Italic"
COPYRIGHT "Digitized data copyright (c) 2010-2011, Google Corporation."
FONT_VERSION "1.10"
FONT_ASCENT 16
FONT_DESCENT 4
UNDERLINE_POSITION -2
UNDERLINE_THICKNESS 1
X_HEIGHT 10
CAP_HEIGHT 13
RAW_ASCENT 799
RAW_DESCENT 200
ITALIC_ANGLE 4992
NORM_SPACE 5
RELATIVE_WEIGHT 40
RELATIVE_SETWIDTH 50
SUPERSCRIPT_X 0
SUPERSCRIPT_Y 9
SUPERSCRIPT_SIZE 12
SUBSCRIPT_X 0
SUBSCRIPT_Y 2
SUBSCRIPT_SIZE 12
FIGURE_WIDTH 11
AVG_LOWERCASE_WIDTH 107
AVG_UPPERCASE_WIDTH 121
ENDPROPERTIES
CHARS 936
STARTCHAR space
ENCODING 32
SWIDTH 259 0
DWIDTH 5 0
BBX 1 1 0 0
BITMAP
00
ENDCHAR
STARTCHAR exclam
ENCODING 33
SWIDTH 258 0
DWIDTH 5 0
BBX 6 14 0 0
BITMAP
02D0
03C0
0380
0740
0740
0B00
0A00
0D00
0C00
1C00
0000
2400
7800
7400
ENDCHAR
STARTCHAR quotedbl
ENCODING 34
SWIDTH 386 0
DWIDTH 8 0
BBX 6 5 2 9
BITMAP
38B0
74E0
70D0
A1C0
9180
ENDCHAR
STARTCHAR numbersign
ENCODING 35
SWIDTH 645 0
DWIDTH 13 0
BBX 13 14 0 0
BITMAP
000D0A00
001C0D00
00281C00
00342800
0FFFFFC0
05A57540
00E0A000
00D0A000
01C0D000
7FFFFF00
17969500
07034000
0A070000
0D0A0000
ENDCHAR
STARTCHAR dollar
ENCODING 36
SWIDTH 550 0
DWIDTH 11 0
BBX 10 16 0 -1
BITMAP
000700
000A00
00AFE0
03EEB0
074D00
0B1C00
076800
02F800
007F40
0072C0
0061D0
00A2C0
79EB40
2BF900
01C000
028000
ENDCHAR
STARTCHAR percent
ENCODING 37
SWIDTH 792 0
DWIDTH 16 0
BBX 14 14 1 0
BITMAP
06E002C0
1E780740
28280D00
34282800
7038B000
7035DB90
707379A0
39DA7070
1F6CA070
0074D0A0
00D0D0E0
0280D1C0
0A00E780
1C007E00
ENDCHAR
STARTCHAR ampersand
ENCODING 38
SWIDTH 669 0
DWIDTH 13 0
BBX 13 14 0 0
BITMAP
002F9000
00F5F000
01D07400
01C07400
01D1E000
00EB8000
00B90000
0BAC0000
2D0E0740
34078A00
7402FC00
7801F400
2E5BB800
0BF91E00
ENDCHAR
STARTCHAR quotesingle
ENCODING 39
SWIDTH 216 0
DWIDTH 4 0
BBX 3 5 2 9
BITMAP
38
74
70
A0
90
ENDCHAR
STARTCHAR parenleft
ENCODING 40
SWIDTH 285 0
DWIDTH 6 0
BBX 7 17 0 -3
BITMAP
0028
00B0
01D0
0380
0B00
0E00
1D00
2C00
3800
3800
7400
7400
3400
3800
2800
1C00
0D00
ENDCHAR
STARTCHAR parenright
ENCODING 41
SWIDTH 285 0
DWIDTH 6 0
BBX 7 17 -2 -3
BITMAP
00A0
0070
0034
0038
0028
002C
002C
0038
0038
0074
00B0
00E0
01D0
0380
0B00
1D00
7400
ENDCHAR
STARTCHAR asterisk
ENCODING 42
SWIDTH 551 0
DWIDTH 11 0
BBX 10 9 2 6
BITMAP
007000
00B000
60A000
BE9000
06FFD0
07A040
1D7000
383800
002800
ENDCHAR
STARTCHAR plus
ENCODING 43
SWIDTH 550 0
DWIDTH 11 0
BBX 10 9 1 3
BITMAP
009000
00D000
00D000
00D000
BFFFD0
55E540
00D000
00D000
00D000
ENDCHAR
STARTCHAR comma
ENCODING 44
SWIDTH 240 0
DWIDTH 5 0
BBX 4 5 -1 -3
BITMAP
1E
2D
38
74
A0
ENDCHAR
STARTCHAR hyphen
ENCODING 45
SWIDTH 312 0
DWIDTH 6 0
BBX 6 2 0 4
BITMAP
7FD0
6A80
ENDCHAR
STARTCHAR period
ENCODING 46
SWIDTH 252 0
DWIDTH 5 0
BBX 3 3 0 0
BITMAP
24
78
74
ENDCHAR
STARTCHAR slash
ENCODING 47
SWIDTH 350 0
DWIDTH 7 0
BBX 10 14 -1 0
BITMAP
0001D0
0002C0
000740
000E00
002D00
003800
00B000
01D000
02C000
074000
0E0000
2D0000
380000
B00000
ENDCHAR
STARTCHAR zero
ENCODING 48
SWIDTH 550 0
DWIDTH 11 0
BBX 10 14 1 0
BITMAP
01BE40
07DBC0
0F01D0
2D00E0
3800E0
7400E0
B401E0
B001D0
B002C0
B003C0
B00740
B40F00
3D7D00
1BE000
ENDCHAR
STARTCHAR one
ENCODING 49
SWIDTH 550 0
DWIDTH 11 0
BBX 6 14 3 0
BITMAP
01E0
1FD0
BAD0
92C0
0380
0380
0740
0B00
0B00
0E00
1E00
1D00
2C00
2C00
ENDCHAR
STARTCHAR two
ENCODING 50
SWIDTH 550 0
DWIDTH 11 0
BBX 11 14 0 0
BITMAP
00AF80
03E6F0
010074
000074
000074
0000F0
0002D0
000B40
002D00
00F000
078000
1E0000
7EAA80
BFFFC0
ENDCHAR
STARTCHAR three
ENCODING 51
SWIDTH 550 0
DWIDTH 11 0
BBX 11 14 0 0
BITMAP
00BF90
03E6F0
010074
000074
0000B0
0006D0
01FE00
015F40
0002C0
0001D0
0002D0
0003C0
B96F40
6BF800
ENDCHAR
STARTCHAR four
ENCODING 52
SWIDTH 550 0
DWIDTH 11 0
BBX 11 14 0 0
BITMAP
0000B4
0002F0
000BB0
002DA0
00B4D0
01D1D0
0742C0
1E0280
780380
BFFFF8
6AABA4
000B00
000E00
000E00
ENDCHAR
STARTCHAR five
ENCODING 53
SWIDTH 550 0
DWIDTH 11 0
BBX 11 14 0 0
BITMAP
00FFF8
01EAA4
02C000
038000
074000
0BFE00
065BC0
0001E0
0000E0
0000E0
0001D0
0003C0
796F40
2BF800
ENDCHAR
STARTCHAR six
ENCODING 54
SWIDTH 550 0
DWIDTH 11 0
BBX 10 14 1 0
BITMAP
002BE0
01F950
078000
0E0000
2D0000
39BD00
7B5B40
780380
B002C0
B002C0
B00380
740B40
3E6D00
1BE400
ENDCHAR
STARTCHAR seven
ENCODING 55
SWIDTH 550 0
DWIDTH 11 0
BBX 9 14 2 0
BITMAP
BFFFC0
555780
000740
000E00
002C00
007400
00B000
01D000
038000
0B0000
1E0000
2C0000
740000
E00000
ENDCHAR
STARTCHAR eight
ENCODING 56
SWIDTH 550 0
DWIDTH 11 0
BBX 10 14 1 0
BITMAP
01BE40
07E6D0
0B00E0
0E00E0
0B01D0
078B80
02FD00
1FAE00
780B40
F00380
E00380
F00740
796E00
1BE400
ENDCHAR
STARTCHAR nine
ENCODING 57
SWIDTH 550 0
DWIDTH 11 0
BBX 10 14 1 0
BITMAP
01BE00
0B9B80
2D02C0
3801D0
3401D0
3802D0
3D0BD0
1FFAC0
015380
000740
000F00
002D00
A6F400
BF9000
ENDCHAR
STARTCHAR colon
ENCODING 58
SWIDTH 252 0
DWIDTH 5 0
BBX 5 11 0 0
BITMAP
0B40
0F40
0500
0000
0000
0000
0000
0000
2400
7800
7400
ENDCHAR
STARTCHAR semicolon
ENCODING 59
SWIDTH 252 0
DWIDTH 5 0
BBX 6 14 -1 -3
BITMAP
02D0
03D0
0140
0000
0000
0000
0000
0000
0000
1E00
2D00
3800
7400
A000
ENDCHAR
STARTCHAR less
ENCODING 60
SWIDTH 550 0
DWIDTH 11 0
BBX 9 10 1 2
BITMAP
000080
000B80
00B900
07D000
7D0000
B80000
1F8000
01B900
001B80
000180
ENDCHAR
STARTCHAR equal
ENCODING 61
SWIDTH 550 0
DWIDTH 11 0
BBX 10 5 1 5
BITMAP
BFFFD0
555540
000000
555540
BFFFD0
ENDCHAR
STARTCHAR greater
ENCODING 62
SWIDTH 550 0
DWIDTH 11 0
BBX 9 10 1 2
BITMAP
900000
B90000
0B8000
01B800
001B80
0007C0
007E00
0BD000
BD0000
900000
ENDCHAR
STARTCHAR question
ENCODING 63
SWIDTH 426 0
DWIDTH 9 0
BBX 8 14 1 0
BITMAP
1BF8
3E6E
000B
000B
000E
003C
01E0
0780
0E00
1C00
0000
2400
7C00
7800
ENDCHAR
STARTCHAR at
ENCODING 64
SWIDTH 847 0
DWIDTH 17 0
BBX 16 16 1 -2
BITMAP
001AFE40
00B956E0
03800074
0A00002C
2C06F91D
342D5D0D
70701C0D
A0E0280D
E0D0341C
E1D0B438
A0E6B9B0
B07E1F80
74000000
2D000000
0B956C00
01BFA400
ENDCHAR
STARTCHAR A
ENCODING 65
SWIDTH 555 0
DWIDTH 11 0
BBX 11 14 -1 0
BITMAP
0002D0
0007E0
000AA0
001DA0
0038B0
0074B0
00E074
02D074
03FFF4
0BAAB8
1E0038
2C002C
78002C
F0002C
ENDCHAR
STARTCHAR B
ENCODING 66
SWIDTH 598 0
DWIDTH 12 0
BBX 11 14 1 0
BITMAP
07FF90
0796F4
0B0078
0E0038
0E0074
1D01E0
2FFF40
2D5B80
3801E0
7400E0
7400E0
B002D0
F56F80
FFF900
ENDCHAR
STARTCHAR C
ENCODING 67
SWIDTH 584 0
DWIDTH 12 0
BBX 12 14 1 0
BITMAP
001BF9
01FAAD
07D000
0F0000
2D0000
3C0000
780000
740000
B40000
740000
780000
3D0000
1F9AC0
06FE80
ENDCHAR
STARTCHAR D
ENCODING 68
SWIDTH 666 0
DWIDTH 13 0
BBX 12 14 1 0
BITMAP
07FF90
0796F4
0B007C
0E001D
0E001E
1D000E
2C000E
2C001E
38002D
74003C
7400B4
B006E0
F5AF40
FFE400
ENDCHAR
STARTCHAR E
ENCODING 69
SWIDTH 511 0
DWIDTH 10 0
BBX 10 14 1 0
BITMAP
07FFF0
07AA90
0B0000
0E0000
0E0000
1D0000
2FFF40
2D5500
380000
740000
740000
B00000
F55400
FFFC00
ENDCHAR
STARTCHAR F
ENCODING 70
SWIDTH 472 0
DWIDTH 9 0
BBX 10 14 1 0
BITMAP
07FFF0
07AA90
0B0000
0E0000
0E0000
1D0000
2D0000
2FFF40
3EA900
780000
740000
B00000
F00000
E00000
ENDCHAR
STARTCHAR G
ENCODING 71
SWIDTH 676 0
DWIDTH 14 0
BBX 12 14 1 0
BITMAP
001BF9
01FAAF
07D000
0F0000
2D0000
3C0000
780000
7403FD
74016C
74002C
780038
3D0074
1FA6F4
02FF90
ENDCHAR
STARTCHAR H
ENCODING 72
SWIDTH 678 0
DWIDTH 14 0
BBX 13 14 1 0
BITMAP
07400380
07400740
0B000B00
0E000B00
0E000E00
1D001D00
2FFFFD00
2D557C00
38003800
74003800
74007400
B000B000
E000B000
E000E000
ENDCHAR
STARTCHAR I
ENCODING 73
SWIDTH 272 0
DWIDTH 5 0
BBX 5 14 1 0
BITMAP
0740
0740
0B00
0E00
0E00
1D00
2C00
2C00
3800
7400
7400
B000
E000
E000
ENDCHAR
STARTCHAR J
ENCODING 74
SWIDTH 267 0
DWIDTH 5 0
BBX 9 18 -3 -4
BITMAP
000740
000740
000B00
000E00
000E00
001D00
002C00
002C00
003800
003800
007400
00B000
00B000
00E000
01D000
02C000
AB8000
F90000
ENDCHAR
STARTCHAR K
ENCODING 75
SWIDTH 557 0
DWIDTH 11 0
BBX 12 14 1 0
BITMAP
07402D
0740B4
0B02D0
0E0B40
0E2D00
1DB400
2EF000
2EB400
383800
742C00
741E00
B00B00
E00740
E003C0
ENDCHAR
STARTCHAR L
ENCODING 76
SWIDTH 474 0
DWIDTH 9 0
BBX 7 14 1 0
BITMAP
0740
0740
0B00
0E00
0E00
1D00
2C00
2C00
3800
7400
7400
B000
FAA8
FFFC
ENDCHAR
STARTCHAR M
ENCODING 77
SWIDTH 836 0
DWIDTH 17 0
BBX 16 14 1 0
BITMAP
07D0003E
07D000BD
0AE001ED
0EA002AC
0DA0076C
1DB00E38
2C701C74
28703874
3834B0B0
7434D0E0
703AC0E0
B02F41D0
E02E02C0
E01D02C0
ENDCHAR
STARTCHAR N
ENCODING 78
SWIDTH 702 0
DWIDTH 14 0
BBX 13 14 1 0
BITMAP
078002C0
07D00280
0BE00380
0EB00740
0D740740
1D380B00
2C2C0E00
280D0E00
380B1D00
74076C00
7003AC00
B002F800
E001F400
E000F400
ENDCHAR
STARTCHAR O
ENCODING 79
SWIDTH 720 0
DWIDTH 14 0
BBX 13 14 1 0
BITMAP
006FE400
01FABD00
07800F00
1E000780
2D000380
38000380
74000380
74000780
B4000B40
74000F00
78002E00
3D007C00
1F9BE000
02FE4000
ENDCHAR
STARTCHAR P
ENCODING 80
SWIDTH 565 0
DWIDTH 11 0
BBX 11 14 1 0
BITMAP
07FF80
079AE0
0B00B4
0E0074
0E00B4
1D00F0
2C07D0
2FFF40
395000
740000
740000
B00000
E00000
E00000
ENDCHAR
STARTCHAR Q
ENCODING 81
SWIDTH 720 0
DWIDTH 14 0
BBX 13 17 1 -3
BITMAP
006FE400
01FABD00
07800F00
1E000780
2D000380
38000380
74000380
74000780
B4000B40
74000F00
78001E00
3D007800
1F9BE000
02FF4000
000B4000
0002D000
0000F000
ENDCHAR
STARTCHAR R
ENCODING 82
SWIDTH 568 0
DWIDTH 11 0
BBX 11 14 1 0
BITMAP
07FF80
079AE0
0B00B4
0E0074
0E0074
1D00B0
2C06D0
2FFE40
396C00
781D00
740E00
B00B00
F00740
E003C0
ENDCHAR
STARTCHAR S
ENCODING 83
SWIDTH 501 0
DWIDTH 10 0
BBX 10 14 0 0
BITMAP
00BF90
03EAB0
0B4000
0F0000
0B0000
078000
02F400
006E00
000B80
0003C0
0003C0
000780
B9AF00
6FE400
ENDCHAR
STARTCHAR T
ENCODING 84
SWIDTH 498 0
DWIDTH 10 0
BBX 10 14 2 0
BITMAP
FFFFE0
56E550
01D000
02C000
038000
038000
074000
0B4000
0B0000
0E0000
1E0000
1D0000
2C0000
2C0000
ENDCHAR
STARTCHAR U
ENCODING 85
SWIDTH 675 0
DWIDTH 14 0
BBX 13 14 1 0
BITMAP
07400380
0B000740
0E000740
0E000B00
1D000E00
2C000E00
2C001D00
38002C00
74002C00
74003800
74007400
7801E000
2EABD000
0BFE0000
ENDCHAR
STARTCHAR V
ENCODING 86
SWIDTH 547 0
DWIDTH 11 0
BBX 11 14 2 0
BITMAP
E00078
E000F0
E001D0
B003C0
B00740
B00E00
741D00
743800
74B400
34E000
3AC000
3B8000
2F0000
2D0000
ENDCHAR
STARTCHAR W
ENCODING 87
SWIDTH 852 0
DWIDTH 17 0
BBX 17 14 2 0
BITMAP
B002D00780
B003D00B00
B00AD00E00
B00DE02C00
B02CE03800
B034A07400
B0B0A0E000
B0E0A1D000
71C0A28000
7780A74000
7700AB0000
7A00BD0000
7D007C0000
7800780000
ENDCHAR
STARTCHAR X
ENCODING 88
SWIDTH 519 0
DWIDTH 10 0
BBX 13 14 -1 0
BITMAP
02C00780
01D00E00
00B02C00
0074B400
0039D000
002F8000
001E0000
003F0000
00B74000
01D38000
0742C000
0E01D000
2C00E000
B400B000
ENDCHAR
STARTCHAR Y
ENCODING 89
SWIDTH 502 0
DWIDTH 10 0
BBX 10 14 2 0
BITMAP
E001E0
B00380
700B40
741D00
383800
2CB000
1DD000
1F8000
0F0000
0E0000
1D0000
1D0000
2C0000
380000
ENDCHAR
STARTCHAR Z
ENCODING 90
SWIDTH 530 0
DWIDTH 11 0
BBX 12 14 0 0
BITMAP
03FFFD
02AABC
0000B4
0001D0
000780
000E00
003C00
00B400
02D000
078000
1E0000
3C0000
BAAA40
FFFF80
ENDCHAR
STARTCHAR bracketleft
ENCODING 91
SWIDTH 286 0
DWIDTH 6 0
BBX 8 17 0 -3
BITMAP
02FD
02D4
0380
0740
0700
0B00
0E00
0D00
1D00
2C00
2C00
3800
7400
7400
B000
B500
FE00
ENDCHAR
STARTCHAR backslash
ENCODING 92
SWIDTH 350 0
DWIDTH 7 0
BBX 4 14 2 0
BITMAP
A0
B0
70
74
34
34
38
28
2C
1C
1D
0D
0E
0A
ENDCHAR
STARTCHAR bracketright
ENCODING 93
SWIDTH 286 0
DWIDTH 6 0
BBX 8 17 -2 -3
BITMAP
00FF
005E
000D
001D
002C
002C
0038
0074
0074
00B0
00E0
00E0
01D0
02C0
02C0
1780
7F40
ENDCHAR
STARTCHAR asciicircum
ENCODING 94
SWIDTH 517 0
DWIDTH 10 0
BBX 10 9 0 5
BITMAP
000E00
002B00
007300
00D240
028280
0701C0
0E00D0
2C00A0
7400B0
ENDCHAR
STARTCHAR underscore
ENCODING 95
SWIDTH 394 0
DWIDTH 8 0
BBX 9 2 -2 -4
BITMAP
BFFF40
555500
ENDCHAR
STARTCHAR grave
ENCODING 96
SWIDTH 554 0
DWIDTH 11 0
BBX 4 3 5 12
BITMAP
78
2C
0A
ENDCHAR
STARTCHAR a
ENCODING 97
SWIDTH 564 0
DWIDTH 11 0
BBX 10 11 1 0
BITMAP
02F870
0F9AA0
2D03D0
7802D0
B002C0
F00380
E00780
E00B40
E02F40
B9AB00
2F8A00
ENDCHAR
STARTCHAR b
ENCODING 98
SWIDTH 577 0
DWIDTH 12 0
BBX 11 15 0 0
BITMAP
01D000
02C000
02C000
038000
075B90
0779F0
0BC074
0B4038
0E0074
1D0074
1D00B0
2C00E0
3D02D0
3B5B80
71F900
ENDCHAR
STARTCHAR c
ENCODING 99
SWIDTH 450 0
DWIDTH 9 0
BBX 8 11 1 0
BITMAP
01FE
0B9A
2D00
7400
B000
E000
E000
E000
B000
7D68
1BE4
ENDCHAR
STARTCHAR d
ENCODING 100
SWIDTH 577 0
DWIDTH 12 0
BBX 11 15 1 0
BITMAP
000038
000038
000074
0000B0
02F8B0
0F9AE0
2D02E0
7802D0
B002C0
F003C0
E00780
E00B40
E02F40
B9AB00
2F8A00
ENDCHAR
STARTCHAR e
ENCODING 101
SWIDTH 493 0
DWIDTH 10 0
BBX 9 11 1 0
BITMAP
02F900
0F9F00
2D0740
780B00
B06E00
FFF400
E50000
E00000
B00000
7D6C00
1BE400
ENDCHAR
STARTCHAR f
ENCODING 102
SWIDTH 312 0
DWIDTH 6 0
BBX 12 20 -3 -5
BITMAP
0001BE
0003D5
000740
000B00
00BFF0
005E50
001D00
002C00
002C00
003800
007400
007400
00B000
00A000
00E000
01D000
01D000
02C000
1B4000
7E0000
ENDCHAR
STARTCHAR g
ENCODING 103
SWIDTH 500 0
DWIDTH 10 0
BBX 13 16 -2 -5
BITMAP
001FFF80
00B97800
01E02800
01C03800
01C03800
01E5F000
00BF8000
01C00000
03800000
03D50000
02FFD000
1D05F000
38007400
7400B000
3D56D000
0BFE4000
ENDCHAR
STARTCHAR h
ENCODING 104
SWIDTH 577 0
DWIDTH 12 0
BBX 11 15 0 0
BITMAP
01D000
02C000
02C000
038000
075BD0
0779B0
0BC074
0B4074
0E00B0
1D00B0
1D00E0
2C00E0
3801D0
3802C0
7402C0
ENDCHAR
STARTCHAR i
ENCODING 105
SWIDTH 253 0
DWIDTH 5 0
BBX 5 15 0 0
BITMAP
01C0
02C0
0000
0000
0740
0740
0B00
0E00
0E00
1D00
1C00
2C00
3800
3800
7400
ENDCHAR
STARTCHAR j
ENCODING 106
SWIDTH 253 0
DWIDTH 5 0
BBX 8 20 -3 -5
BITMAP
0007
000B
0000
0000
001D
001D
002C
0038
0038
0074
0070
00B0
00E0
00E0
01D0
02C0
02C0
0380
5B40
7D00
ENDCHAR
STARTCHAR k
ENCODING 107
SWIDTH 487 0
DWIDTH 10 0
BBX 10 15 0 0
BITMAP
01D000
02C000
02C000
038000
0741E0
074380
0B0E00
0A3800
0EF000
1FF000
1E7800
2C2C00
381D00
380F00
740740
ENDCHAR
STARTCHAR l
ENCODING 108
SWIDTH 253 0
DWIDTH 5 0
BBX 6 15 0 0
BITMAP
01D0
02C0
02C0
0380
0740
0740
0B00
0A00
0E00
1D00
1D00
2C00
3800
3800
7400
ENDCHAR
STARTCHAR m
ENCODING 109
SWIDTH 872 0
DWIDTH 17 0
BBX 17 11 0 0
BITMAP
075B81BD00
0775E79F00
0B80BD0740
0F40B40740
0E00B00B00
1D00E00B00
1C01D00E00
2C01D01D00
3802C01D00
3803802C00
7403803800
ENDCHAR
STARTCHAR n
ENCODING 110
SWIDTH 577 0
DWIDTH 12 0
BBX 11 11 0 0
BITMAP
075BD0
0779B4
0BC074
0F4074
0E00B0
1D00B0
1C00E0
2C00E0
3801D0
3802C0
7402C0
ENDCHAR
STARTCHAR o
ENCODING 111
SWIDTH 561 0
DWIDTH 11 0
BBX 10 11 1 0
BITMAP
02FD00
0F9B40
2C02C0
7401D0
B001D0
E002C0
E002C0
E00380
B00B00
7D6D00
1BE400
ENDCHAR
STARTCHAR p
ENCODING 112
SWIDTH 577 0
DWIDTH 12 0
BBX 12 16 -1 -5
BITMAP
01C6E4
01DE7C
02F01D
03D00E
03801D
07401D
07402C
0B0038
0F40B4
0ED6E0
1D7E40
2C0000
2C0000
380000
340000
740000
ENDCHAR
STARTCHAR q
ENCODING 113
SWIDTH 577 0
DWIDTH 12 0
BBX 10 16 1 -5
BITMAP
02F870
0F9AA0
2D03D0
7802D0
B002C0
F00380
E00780
E00B40
E02F40
B9AB00
2F8E00
000E00
001D00
001D00
002C00
003800
ENDCHAR
STARTCHAR r
ENCODING 114
SWIDTH 395 0
DWIDTH 8 0
BBX 9 11 0 0
BITMAP
075B40
077A00
0BC000
0F4000
0E0000
1D0000
1D0000
2C0000
380000
380000
740000
ENDCHAR
STARTCHAR s
ENCODING 115
SWIDTH 428 0
DWIDTH 9 0
BBX 8 11 0 0
BITMAP
06FA
1F5A
2C00
2D00
1F40
06E0
00B8
002C
002C
E5B8
6F90
ENDCHAR
STARTCHAR t
ENCODING 116
SWIDTH 324 0
DWIDTH 6 0
BBX 6 13 1 0
BITMAP
0700
0E00
BFF0
6D50
2C00
3800
3800
7400
B000
B000
A000
B500
2F40
ENDCHAR
STARTCHAR u
ENCODING 117
SWIDTH 577 0
DWIDTH 12 0
BBX 10 11 1 0
BITMAP
1D00A0
2C00E0
2C01D0
3801D0
7402C0
740380
B00780
B00B40
E02F40
B9AB00
2F8A00
ENDCHAR
STARTCHAR v
ENCODING 118
SWIDTH 461 0
DWIDTH 9 0
BBX 9 11 1 0
BITMAP
E002C0
E00740
B00F00
B01D00
B03800
707400
74E000
75D000
378000
3B4000
3E0000
ENDCHAR
STARTCHAR w
ENCODING 119
SWIDTH 716 0
DWIDTH 14 0
BBX 14 11 1 0
BITMAP
E00F00F0
A02F01D0
A03B02C0
B0770740
B0D74B00
B1C74E00
B3835C00
B7037800
BA03B400
7D03E000
7803D000
ENDCHAR
STARTCHAR x
ENCODING 120
SWIDTH 478 0
DWIDTH 10 0
BBX 11 11 -1 0
BITMAP
074078
02C0E0
01D2C0
00EB40
007D00
007800
00FC00
02CE00
0B0B00
1D0740
7802C0
ENDCHAR
STARTCHAR y
ENCODING 121
SWIDTH 461 0
DWIDTH 9 0
BBX 12 16 -2 -5
BITMAP
03800B
03801D
02C03C
02C074
01D0E0
01D1D0
00D380
00E740
00AE00
00BD00
00B800
00B000
00E000
02C000
5B4000
B90000
ENDCHAR
STARTCHAR z
ENCODING 122
SWIDTH 443 0
DWIDTH 9 0
BBX 10 11 -1 0
BITMAP
02FFE0
0156D0
000780
000E00
002C00
00B400
01D000
078000
0E0000
2D5500
7FFF00
ENDCHAR
STARTCHAR braceleft
ENCODING 123
SWIDTH 349 0
DWIDTH 7 0
BBX 8 17 0 -3
BITMAP
002E
0079
00E0
00D0
01D0
02C0
0280
0B40
B900
6D00
0A00
0A00
0D00
1D00
1C00
1E40
0B80
ENDCHAR
STARTCHAR bar
ENCODING 124
SWIDTH 550 0
DWIDTH 11 0
BBX 2 20 5 -5
BITMAP
A0
A0
A0
A0
A0
A0
A0
A0
A0
A0
A0
A0
A0
A0
A0
A0
A0
A0
A0
A0
ENDCHAR
STARTCHAR braceright
ENCODING 125
SWIDTH 349 0
DWIDTH 7 0
BBX 8 17 -1 -3
BITMAP
01E0
01B8
0038
0034
0074
0070
00B0
0074
002E
00B9
01C0
0280
0380
0740
0B00
6E00
B800
ENDCHAR
STARTCHAR asciitilde
ENCODING 126
SWIDTH 550 0
DWIDTH 11 0
BBX 10 3 1 6
BITMAP
6E4010
E6F9D0
402F80
ENDCHAR
STARTCHAR nonbreakingspace
ENCODING 160
SWIDTH 259 0
DWIDTH 5 0
BBX 1 1 0 0
BITMAP
00
ENDCHAR
STARTCHAR exclamdown
ENCODING 161
SWIDTH 258 0
DWIDTH 5 0
BBX 5 15 0 -4
BITMAP
0780
0B80
0640
0000
0A00
0900
0D00
1C00
2C00
2800
3800
7400
B400
B000
F000
ENDCHAR
STARTCHAR cent
ENCODING 162
SWIDTH 550 0
DWIDTH 11 0
BBX 9 14 2 0
BITMAP
002800
002400
01FE40
0B9600
2D0000
780000
B40000
B00000
B00000
B40000
7E6800
1BE400
070000
060000
ENDCHAR
STARTCHAR sterling
ENCODING 163
SWIDTH 550 0
DWIDTH 11 0
BBX 12 14 0 0
BITMAP
000BF8
003D6D
00B000
00E000
01D000
01D000
02C000
2FFF40
179500
074000
0B0000
0D0000
BEAA90
FFFFD0
ENDCHAR
STARTCHAR currency
ENCODING 164
SWIDTH 550 0
DWIDTH 11 0
BBX 8 9 2 3
BITMAP
8002
EBEE
796C
A00D
A00A
A00D
796C
EBEE
8006
ENDCHAR
STARTCHAR yen
ENCODING 165
SWIDTH 550 0
DWIDTH 11 0
BBX 11 14 1 0
BITMAP
2C003C
1D00B4
0E01D0
0B0380
070B00
035D00
02B400
3FFF40
16D500
02C000
BFFE00
579400
074000
070000
ENDCHAR
STARTCHAR brokenbar
ENCODING 166
SWIDTH 550 0
DWIDTH 11 0
BBX 2 20 5 -5
BITMAP
A0
A0
A0
A0
A0
A0
A0
A0
00
00
00
00
A0
A0
A0
A0
A0
A0
A0
A0
ENDCHAR
STARTCHAR section
ENCODING 167
SWIDTH 485 0
DWIDTH 10 0
BBX 10 15 0 0
BITMAP
00BF90
02D590
038000
038000
01F800
07AF40
0D0380
1D0280
0E0740
07EE00
00BC00
001E00
000E00
656D00
6FE400
ENDCHAR
STARTCHAR dieresis
ENCODING 168
SWIDTH 554 0
DWIDTH 11 0
BBX 6 2 4 13
BITMAP
70A0
70A0
ENDCHAR
STARTCHAR copyright
ENCODING 169
SWIDTH 832 0
DWIDTH 17 0
BBX 15 14 1 0
BITMAP
006FE400
02D41B40
0A0001D0
281BE470
30796028
60B0001C
90E0000C
90E0000C
60B00018
30795024
281BE070
0A0001D0
02D41B40
006FE400
ENDCHAR
STARTCHAR ordfeminine
ENCODING 170
SWIDTH 334 0
DWIDTH 7 0
BBX 7 7 1 7
BITMAP
0BD8
1874
3430
7070
60A0
71E0
2E90
ENDCHAR
STARTCHAR guillemotleft
ENCODING 171
SWIDTH 467 0
DWIDTH 9 0
BBX 8 8 1 1
BITMAP
0242
0E0E
3838
F0B0
A0E0
74B0
2834
1818
ENDCHAR
STARTCHAR logicalnot
ENCODING 172
SWIDTH 550 0
DWIDTH 11 0
BBX 10 5 1 3
BITMAP
BFFFD0
5555D0
0000D0
0000D0
0000D0
ENDCHAR
STARTCHAR uni00AD
ENCODING 173
SWIDTH 312 0
DWIDTH 6 0
BBX 6 2 0 4
BITMAP
7FD0
6A80
ENDCHAR
STARTCHAR registered
ENCODING 174
SWIDTH 832 0
DWIDTH 17 0
BBX 15 14 1 0
BITMAP
006FE400
02D41B40
0A0001D0
282FE070
30297428
6028281C
9028740C
902FD00C
6029D018
30287024
28282870
0A0001D0
02D41B40
006FE400
ENDCHAR
STARTCHAR overscore
ENCODING 175
SWIDTH 381 0
DWIDTH 8 0
BBX 8 2 2 14
BITMAP
BFFF
5555
ENDCHAR
STARTCHAR degree
ENCODING 176
SWIDTH 428 0
DWIDTH 9 0
BBX 6 6 2 8
BITMAP
1F80
75A0
9030
9030
75A0
1F80
ENDCHAR
STARTCHAR plusminus
ENCODING 177
SWIDTH 550 0
DWIDTH 11 0
BBX 10 11 1 0
BITMAP
00D000
00D000
00D000
00D000
BFFFD0
55E540
00D000
00D000
00D000
555540
BFFFD0
ENDCHAR
STARTCHAR twosuperior
ENCODING 178
SWIDTH 350 0
DWIDTH 7 0
BBX 7 9 1 5
BITMAP
0BE0
1974
0034
0070
00D0
0740
1D00
7400
FFE0
ENDCHAR
STARTCHAR threesuperior
ENCODING 179
SWIDTH 350 0
DWIDTH 7 0
BBX 7 9 1 5
BITMAP
1BE0
1574
0034
0070
0F80
00A0
00A0
91D0
BF80
ENDCHAR
STARTCHAR acute
ENCODING 180
SWIDTH 554 0
DWIDTH 11 0
BBX 4 3 5 12
BITMAP
0F
2C
A0
ENDCHAR
STARTCHAR mu
ENCODING 181
SWIDTH 583 0
DWIDTH 12 0
BBX 12 16 -1 -5
BITMAP
01D00B
01D00E
02C00E
03801D
03802C
07402C
070038
0B00B4
0F01F4
0F9A70
1DF8B0
2C0000
2C0000
380000
340000
740000
ENDCHAR
STARTCHAR paragraph
ENCODING 182
SWIDTH 654 0
DWIDTH 13 0
BBX 10 18 2 -3
BITMAP
1BFFE0
7FFAA0
BFF860
FFF860
FFF860
FFF860
FFF860
BFF860
7FF860
1BF860
002860
002860
002860
002860
002860
002860
002860
002860
ENDCHAR
STARTCHAR periodcentered
ENCODING 183
SWIDTH 252 0
DWIDTH 5 0
BBX 3 3 1 6
BITMAP
14
7C
78
ENDCHAR
STARTCHAR cedilla
ENCODING 184
SWIDTH 205 0
DWIDTH 4 0
BBX 4 5 -2 -5
BITMAP
0C
1D
07
0B
B9
ENDCHAR
STARTCHAR onesuperior
ENCODING 185
SWIDTH 350 0
DWIDTH 7 0
BBX 4 9 3 5
BITMAP
1D
AC
5C
28
24
34
70
70
A0
ENDCHAR
STARTCHAR ordmasculine
ENCODING 186
SWIDTH 335 0
DWIDTH 7 0
BBX 7 7 1 7
BITMAP
0BD0
2870
3024
6034
6030
34A0
1F80
ENDCHAR
STARTCHAR guillemotright
ENCODING 187
SWIDTH 467 0
DWIDTH 9 0
BBX 9 8 0 1
BITMAP
182400
0D1C00
0B0E00
074700
0B4B40
1D1D00
747400
509000
ENDCHAR
STARTCHAR onequarter
ENCODING 188
SWIDTH 741 0
DWIDTH 15 0
BBX 12 14 1 0
BITMAP
06800B
1F801D
134034
0300A0
0702C0
0A074B
0A0D1E
0D383A
0CA099
01C28D
07461C
0E0FFF
280028
700034
ENDCHAR
STARTCHAR onehalf
ENCODING 189
SWIDTH 741 0
DWIDTH 15 0
BBX 13 14 1 0
BITMAP
0B401D00
6B003800
5600A000
0A01C000
0D074000
0D0E6F40
1C2852C0
287001C0
29D00280
03800700
0A001D00
1C00B400
7402D000
E007FF40
ENDCHAR
STARTCHAR threequarters
ENCODING 190
SWIDTH 764 0
DWIDTH 15 0
BBX 14 14 1 0
BITMAP
1BD000D0
14B00280
00700A00
00A01C00
1F807400
01D0E0D0
00D282D0
51D70AC0
BE5D19C0
00387280
00A0D280
01C1FFE0
07400740
0E000700
ENDCHAR
STARTCHAR questiondown
ENCODING 191
SWIDTH 426 0
DWIDTH 9 0
BBX 8 15 0 -4
BITMAP
002D
003D
0014
0000
0034
00B0
01D0
0B80
2D00
7400
F000
E000
F000
B9B8
2FE4
ENDCHAR
STARTCHAR Agrave
ENCODING 192
SWIDTH 555 0
DWIDTH 11 0
BBX 11 18 -1 0
BITMAP
000B40
000380
0000D0
000000
0002D0
0007E0
000AA0
001DA0
0038B0
0074B0
00E074
02D074
03FFF4
0BAAB8
1E0038
2C002C
78002C
F0002C
ENDCHAR
STARTCHAR Aacute
ENCODING 193
SWIDTH 555 0
DWIDTH 11 0
BBX 12 18 -1 0
BITMAP
00001D
000074
0000D0
000000
0002D0
0007E0
000AA0
001DA0
0038B0
0074B0
00E074
02D074
03FFF4
0BAAB8
1E0038
2C002C
78002C
F0002C
ENDCHAR
STARTCHAR Acircumflex
ENCODING 194
SWIDTH 555 0
DWIDTH 11 0
BBX 12 18 -1 0
BITMAP
0000F0
0003B8
001D0D
000000
0002D0
0007E0
000AA0
001DA0
0038B0
0074B0
00E074
02D074
03FFF4
0BAAB8
1E0038
2C002C
78002C
F0002C
ENDCHAR
STARTCHAR Atilde
ENCODING 195
SWIDTH 555 0
DWIDTH 11 0
BBX 13 18 -1 0
BITMAP
000B8240
001DEB00
00242D00
00000000
0002D000
0007E000
000AA000
001DA000
0038B000
0074B000
00E07400
02D07400
03FFF400
0BAAB800
1E003800
2C002C00
78002C00
F0002C00
ENDCHAR
STARTCHAR Adieresis
ENCODING 196
SWIDTH 555 0
DWIDTH 11 0
BBX 12 18 -1 0
BITMAP
000A0D
000A1D
000000
000000
0002D0
0007E0
000AA0
001DA0
0038B0
0074B0
00E074
02D074
03FFF4
0BAAB8
1E0038
2C002C
78002C
F0002C
ENDCHAR
STARTCHAR Aring
ENCODING 197
SWIDTH 555 0
DWIDTH 11 0
BBX 11 17 -1 0
BITMAP
0002E0
000A28
000A28
0003F0
0007E0
000AA0
001DA0
0038B0
0074B0
00E074
02D074
03FFF4
0BAAB8
1E0038
2C002C
78002C
F0002C
ENDCHAR
STARTCHAR AE
ENCODING 198
SWIDTH 816 0
DWIDTH 16 0
BBX 18 14 -1 0
BITMAP
00007FFFF0
0000EBAA90
0002DB0000
00078B0000
000F0E0000
002D1D0000
00781FFF40
00F02D5500
02FFF80000
07AAB80000
0F00740000
2D00B00000
7800B55500
B000FFFD00
ENDCHAR
STARTCHAR Ccedilla
ENCODING 199
SWIDTH 584 0
DWIDTH 12 0
BBX 12 19 1 -5
BITMAP
001BF9
01FAAD
07D000
0F0000
2D0000
3C0000
780000
740000
B40000
740000
780000
3D0000
1F9AC0
06FE80
009000
00E000
003400
007400
07D000
ENDCHAR
STARTCHAR Egrave
ENCODING 200
SWIDTH 511 0
DWIDTH 10 0
BBX 10 18 1 0
BITMAP
007800
002C00
000A00
000000
07FFF0
07AA90
0B0000
0E0000
0E0000
1D0000
2FFF40
2D5500
380000
740000
740000
B00000
F55400
FFFC00
ENDCHAR
STARTCHAR Eacute
ENCODING 201
SWIDTH 511 0
DWIDTH 10 0
BBX 10 18 1 0
BITMAP
0002D0
000740
001D00
000000
07FFF0
07AA90
0B0000
0E0000
0E0000
1D0000
2FFF40
2D5500
380000
740000
740000
B00000
F55400
FFFC00
ENDCHAR
STARTCHAR Ecircumflex
ENCODING 202
SWIDTH 511 0
DWIDTH 10 0
BBX 10 18 1 0
BITMAP
000F40
003A80
01D0D0
000000
07FFF0
07AA90
0B0000
0E0000
0E0000
1D0000
2FFF40
2D5500
380000
740000
740000
B00000
F55400
FFFC00
ENDCHAR
STARTCHAR Edieresis
ENCODING 203
SWIDTH 511 0
DWIDTH 10 0
BBX 10 18 1 0
BITMAP
00A0D0
00A1D0
000000
000000
07FFF0
07AA90
0B0000
0E0000
0E0000
1D0000
2FFF40
2D5500
380000
740000
740000
B00000
F55400
FFFC00
ENDCHAR
STARTCHAR Igrave
ENCODING 204
SWIDTH 272 0
DWIDTH 5 0
BBX 5 18 1 0
BITMAP
1E00
0B00
0280
0000
0740
0740
0B00
0E00
0E00
1D00
2C00
2C00
3800
7400
7400
B000
E000
E000
ENDCHAR
STARTCHAR Iacute
ENCODING 205
SWIDTH 272 0
DWIDTH 5 0
BBX 7 18 1 0
BITMAP
0038
00A0
0280
0000
0740
0740
0B00
0E00
0E00
1D00
2C00
2C00
3800
7400
7400
B000
E000
E000
ENDCHAR
STARTCHAR Icircumflex
ENCODING 206
SWIDTH 272 0
DWIDTH 5 0
BBX 7 18 1 0
BITMAP
02D0
0BB0
2828
0000
0740
0740
0B00
0E00
0E00
1D00
2C00
2C00
3800
7400
7400
B000
E000
E000
ENDCHAR
STARTCHAR Idieresis
ENCODING 207
SWIDTH 272 0
DWIDTH 5 0
BBX 7 18 1 0
BITMAP
1D28
1C28
0000
0000
0740
0740
0B00
0E00
0E00
1D00
2C00
2C00
3800
7400
7400
B000
E000
E000
ENDCHAR
STARTCHAR Eth
ENCODING 208
SWIDTH 666 0
DWIDTH 13 0
BBX 12 14 1 0
BITMAP
07FF90
0796F4
0B007C
0E001D
1E001E
1D000E
FFF40E
7D501E
38002D
74003C
7400B4
B006E0
F5AF40
FFE400
ENDCHAR
STARTCHAR Ntilde
ENCODING 209
SWIDTH 702 0
DWIDTH 14 0
BBX 13 18 1 0
BITMAP
000B4300
002AEA00
00307800
00000000
078002C0
07D00280
0BE00380
0EB00740
0D740740
1D380B00
2C2C0E00
280D0E00
380B1D00
74076C00
7003AC00
B002F800
E001F400
E000F400
ENDCHAR
STARTCHAR Ograve
ENCODING 210
SWIDTH 720 0
DWIDTH 14 0
BBX 13 18 1 0
BITMAP
001E0000
00070000
00028000
00000000
006FE400
01FABD00
07800F00
1E000780
2D000380
38000380
74000380
74000780
B4000B40
74000F00
78002E00
3D007C00
1F9BE000
02FE4000
ENDCHAR
STARTCHAR Oacute
ENCODING 211
SWIDTH 720 0
DWIDTH 14 0
BBX 13 18 1 0
BITMAP
00003800
0000A000
00028000
00000000
006FE400
01FABD00
07800F00
1E000780
2D000380
38000380
74000380
74000780
B4000B40
74000F00
78002E00
3D007C00
1F9BE000
02FE4000
ENDCHAR
STARTCHAR Ocircumflex
ENCODING 212
SWIDTH 720 0
DWIDTH 14 0
BBX 13 18 1 0
BITMAP
0002E000
000BB400
00282800
00000000
006FE400
01FABD00
07800F00
1E000780
2D000380
38000380
74000380
74000780
B4000B40
74000F00
78002E00
3D007C00
1F9BE000
02FE4000
ENDCHAR
STARTCHAR Otilde
ENCODING 213
SWIDTH 720 0
DWIDTH 14 0
BBX 13 18 1 0
BITMAP
001E0600
0036DD00
0060B400
00000000
006FE400
01FABD00
07800F00
1E000780
2D000380
38000380
74000380
74000780
B4000B40
74000F00
78002E00
3D007C00
1F9BE000
02FE4000
ENDCHAR
STARTCHAR Odieresis
ENCODING 214
SWIDTH 720 0
DWIDTH 14 0
BBX 13 18 1 0
BITMAP
001C2800
001C2800
00000000
00000000
006FE400
01FABD00
07800F00
1E000780
2D000380
38000380
74000380
74000780
B4000B40
74000F00
78002E00
3D007C00
1F9BE000
02FE4000
ENDCHAR
STARTCHAR multiply
ENCODING 215
SWIDTH 550 0
DWIDTH 11 0
BBX 8 8 2 3
BITMAP
9009
B42D
2DB4
0BD0
0BD0
2DB4
B42D
9009
ENDCHAR
STARTCHAR Oslash
ENCODING 216
SWIDTH 720 0
DWIDTH 14 0
BBX 13 16 1 -1
BITMAP
00000040
006FE6C0
01FABF40
07801F00
1E007F80
2D00E380
3802C380
740B0380
742D0780
B4740B40
75E00F00
7B802E00
3E007C00
2FABE000
B6FE4000
10000000
ENDCHAR
STARTCHAR Ugrave
ENCODING 217
SWIDTH 675 0
DWIDTH 14 0
BBX 13 18 1 0
BITMAP
001D0000
000B0000
00024000
00000000
07400380
0B000740
0E000740
0E000B00
1D000E00
2C000E00
2C001D00
38002C00
74002C00
74003800
74007400
7801E000
2EABD000
0BFE0000
ENDCHAR
STARTCHAR Uacute
ENCODING 218
SWIDTH 675 0
DWIDTH 14 0
BBX 13 18 1 0
BITMAP
00003800
0000A000
00028000
00000000
07400380
0B000740
0E000740
0E000B00
1D000E00
2C000E00
2C001D00
38002C00
74002C00
74003800
74007400
7801E000
2EABD000
0BFE0000
ENDCHAR
STARTCHAR Ucircumflex
ENCODING 219
SWIDTH 675 0
DWIDTH 14 0
BBX 13 18 1 0
BITMAP
0002D000
000BB000
00282800
00000000
07400380
0B000740
0E000740
0E000B00
1D000E00
2C000E00
2C001D00
38002C00
74002C00
74003800
74007400
7801E000
2EABD000
0BFE0000
ENDCHAR
STARTCHAR Udieresis
ENCODING 220
SWIDTH 675 0
DWIDTH 14 0
BBX 13 18 1 0
BITMAP
001C3400
00283400
00000000
00000000
07400380
0B000740
0E000740
0E000B00
1D000E00
2C000E00
2C001D00
38002C00
74002C00
74003800
74007400
7801E000
2EABD000
0BFE0000
ENDCHAR
STARTCHAR Yacute
ENCODING 221
SWIDTH 502 0
DWIDTH 10 0
BBX 10 18 2 0
BITMAP
000E00
002800
00A000
000000
E001E0
B00380
700B40
741D00
383800
2CB000
1DD000
1F8000
0F0000
0E0000
1D0000
1D0000
2C0000
380000
ENDCHAR
STARTCHAR Thorn
ENCODING 222
SWIDTH 565 0
DWIDTH 11 0
BBX 10 14 1 0
BITMAP
074000
070000
0BFE40
0E5BC0
0D01E0
1D00E0
2C00E0
2C00E0
3802D0
781B80
7FFD00
B55000
F00000
E00000
ENDCHAR
STARTCHAR germandbls
ENCODING 223
SWIDTH 577 0
DWIDTH 12 0
BBX 14 20 -3 -5
BITMAP
0000BF80
0003E6E0
000B40A0
000E00E0
000D07C0
001D1E00
002C3800
002C7400
00383D00
00740B40
007403C0
00B002C0
00E002C0
00E65B80
01D2F900
01C00000
02C00000
03800000
5B400000
7D000000
ENDCHAR
STARTCHAR agrave
ENCODING 224
SWIDTH 564 0
DWIDTH 11 0
BBX 10 15 1 0
BITMAP
00F000
007400
001C00
000000
02F870
0F9AA0
2D03D0
7802D0
B002C0
F00380
E00780
E00B40
E02F40
B9AB00
2F8A00
ENDCHAR
STARTCHAR aacute
ENCODING 225
SWIDTH 564 0
DWIDTH 11 0
BBX 10 15 1 0
BITMAP
000780
000E00
002800
000000
02F870
0F9AA0
2D03D0
7802D0
B002C0
F00380
E00780
E00B40
E02F40
B9AB00
2F8A00
ENDCHAR
STARTCHAR acircumflex
ENCODING 226
SWIDTH 564 0
DWIDTH 11 0
BBX 10 15 1 0
BITMAP
002D00
00BB00
028280
000000
02F870
0F9AA0
2D03D0
7802D0
B002C0
F00380
E00780
E00B40
E02F40
B9AB00
2F8A00
ENDCHAR
STARTCHAR atilde
ENCODING 227
SWIDTH 564 0
DWIDTH 11 0
BBX 10 15 1 0
BITMAP
01E090
037DC0
060B40
000000
02F870
0F9AA0
2D03D0
7802D0
B002C0
F00380
E00780
E00B40
E02F40
B9AB00
2F8A00
ENDCHAR
STARTCHAR adieresis
ENCODING 228
SWIDTH 564 0
DWIDTH 11 0
BBX 10 15 1 0
BITMAP
01C280
01C240
000000
000000
02F870
0F9AA0
2D03D0
7802D0
B002C0
F00380
E00780
E00B40
E02F40
B9AB00
2F8A00
ENDCHAR
STARTCHAR aring
ENCODING 229
SWIDTH 564 0
DWIDTH 11 0
BBX 10 16 1 0
BITMAP
007E00
00D340
00D340
007E00
000000
02F870
0F9AA0
2D03D0
7802D0
B002C0
F00380
E00780
E00B40
E02F40
B9AB00
2F8A00
ENDCHAR
STARTCHAR ae
ENCODING 230
SWIDTH 814 0
DWIDTH 16 0
BBX 15 11 1 0
BITMAP
02F4DBE0
0F9EFDB8
2D07E028
7803C038
B00381F4
F007FF90
E00B5400
E01F4000
E03F8000
B9DFE6A0
2E4DBF90
ENDCHAR
STARTCHAR ccedilla
ENCODING 231
SWIDTH 450 0
DWIDTH 9 0
BBX 8 16 1 -5
BITMAP
01FE
0B9A
2D00
7400
B000
E000
E000
E000
B000
7D68
1BE4
0600
0B40
0280
0280
3E00
ENDCHAR
STARTCHAR egrave
ENCODING 232
SWIDTH 493 0
DWIDTH 10 0
BBX 9 15 1 0
BITMAP
01D000
00A000
003400
000000
02F900
0F9F00
2D0740
780B00
B06E00
FFF400
E50000
E00000
B00000
7D6C00
1BE400
ENDCHAR
STARTCHAR eacute
ENCODING 233
SWIDTH 493 0
DWIDTH 10 0
BBX 9 15 1 0
BITMAP
000780
001E00
003400
000000
02F900
0F9F00
2D0740
780B00
B06E00
FFF400
E50000
E00000
B00000
7D6C00
1BE400
ENDCHAR
STARTCHAR ecircumflex
ENCODING 234
SWIDTH 493 0
DWIDTH 10 0
BBX 9 15 1 0
BITMAP
007C00
01EE00
074740
000000
02F900
0F9F00
2D0740
780B00
B06E00
FFF400
E50000
E00000
B00000
7D6C00
1BE400
ENDCHAR
STARTCHAR edieresis
ENCODING 235
SWIDTH 493 0
DWIDTH 10 0
BBX 9 15 1 0
BITMAP
028740
028700
000000
000000
02F900
0F9F00
2D0740
780B00
B06E00
FFF400
E50000
E00000
B00000
7D6C00
1BE400
ENDCHAR
STARTCHAR igrave
ENCODING 236
SWIDTH 253 0
DWIDTH 5 0
BBX 5 15 0 0
BITMAP
1E00
0B00
0280
0000
0740
0740
0B00
0E00
0E00
1D00
1C00
2C00
3800
3800
7400
ENDCHAR
STARTCHAR iacute
ENCODING 237
SWIDTH 253 0
DWIDTH 5 0
BBX 7 15 0 0
BITMAP
003C
00B0
0280
0000
0740
0740
0B00
0E00
0E00
1D00
1C00
2C00
3800
3800
7400
ENDCHAR
STARTCHAR icircumflex
ENCODING 238
SWIDTH 253 0
DWIDTH 5 0
BBX 7 15 0 0
BITMAP
02E0
0BB0
2828
0000
0740
0740
0B00
0E00
0E00
1D00
1C00
2C00
3800
3800
7400
ENDCHAR
STARTCHAR idieresis
ENCODING 239
SWIDTH 253 0
DWIDTH 5 0
BBX 7 15 0 0
BITMAP
1D28
1C28
0000
0000
0740
0740
0B00
0E00
0E00
1D00
1C00
2C00
3800
3800
7400
ENDCHAR
STARTCHAR eth
ENCODING 240
SWIDTH 568 0
DWIDTH 11 0
BBX 10 15 1 0
BITMAP
006060
007F90
00BF00
019380
0001C0
06F9D0
1E5ED0
7803D0
B002D0
E002C0
E002C0
E00780
F00B00
797D00
1FE400
ENDCHAR
STARTCHAR ntilde
ENCODING 241
SWIDTH 577 0
DWIDTH 12 0
BBX 11 15 0 0
BITMAP
007818
00EB74
0182E0
000000
075BD0
0779B4
0BC074
0F4074
0E00B0
1D00B0
1C00E0
2C00E0
3801D0
3802C0
7402C0
ENDCHAR
STARTCHAR ograve
ENCODING 242
SWIDTH 561 0
DWIDTH 11 0
BBX 10 15 1 0
BITMAP
01E000
00B000
002800
000000
02FD00
0F9B40
2C02C0
7401D0
B001D0
E002C0
E002C0
E00380
B00B00
7D6D00
1BE400
ENDCHAR
STARTCHAR oacute
ENCODING 243
SWIDTH 561 0
DWIDTH 11 0
BBX 10 15 1 0
BITMAP
000780
001E00
003400
000000
02FD00
0F9B40
2C02C0
7401D0
B001D0
E002C0
E002C0
E00380
B00B00
7D6D00
1BE400
ENDCHAR
STARTCHAR ocircumflex
ENCODING 244
SWIDTH 561 0
DWIDTH 11 0
BBX 10 15 1 0
BITMAP
002D00
00AB00
038280
000000
02FD00
0F9B40
2C02C0
7401D0
B001D0
E002C0
E002C0
E00380
B00B00
7D6D00
1BE400
ENDCHAR
STARTCHAR otilde
ENCODING 245
SWIDTH 561 0
DWIDTH 11 0
BBX 10 15 1 0
BITMAP
02E090
077DC0
090B40
000000
02FD00
0F9B40
2C02C0
7401D0
B001D0
E002C0
E002C0
E00380
B00B00
7D6D00
1BE400
ENDCHAR
STARTCHAR odieresis
ENCODING 246
SWIDTH 561 0
DWIDTH 11 0
BBX 10 15 1 0
BITMAP
028340
028340
000000
000000
02FD00
0F9B40
2C02C0
7401D0
B001D0
E002C0
E002C0
E00380
B00B00
7D6D00
1BE400
ENDCHAR
STARTCHAR divide
ENCODING 247
SWIDTH 550 0
DWIDTH 11 0
BBX 10 10 1 2
BITMAP
01E000
01E000
004000
000000
BFFFD0
555540
000000
004000
01E000
01E000
ENDCHAR
STARTCHAR oslash
ENCODING 248
SWIDTH 561 0
DWIDTH 11 0
BBX 10 13 1 -1
BITMAP
000090
02FAD0
0F9B80
2C0BC0
742ED0
B075C0
E1D1C0
E38280
EA0380
BC0B00
7D6D00
EBE400
800000
ENDCHAR
STARTCHAR ugrave
ENCODING 249
SWIDTH 577 0
DWIDTH 12 0
BBX 10 15 1 0
BITMAP
01E000
00B000
002800
000000
1D00A0
2C00E0
2C01D0
3801D0
7402C0
740380
B00780
B00B40
E02F40
B9AB00
2F8A00
ENDCHAR
STARTCHAR uacute
ENCODING 250
SWIDTH 577 0
DWIDTH 12 0
BBX 10 15 1 0
BITMAP
0003C0
000B00
002800
000000
1D00A0
2C00E0
2C01D0
3801D0
7402C0
740380
B00780
B00B40
E02F40
B9AB00
2F8A00
ENDCHAR
STARTCHAR ucircumflex
ENCODING 251
SWIDTH 577 0
DWIDTH 12 0
BBX 10 15 1 0
BITMAP
002E00
00BB40
028280
000000
1D00A0
2C00E0
2C01D0
3801D0
7402C0
740380
B00780
B00B40
E02F40
B9AB00
2F8A00
ENDCHAR
STARTCHAR udieresis
ENCODING 252
SWIDTH 577 0
DWIDTH 12 0
BBX 10 15 1 0
BITMAP
01C280
01C280
000000
000000
1D00A0
2C00E0
2C01D0
3801D0
7402C0
740380
B00780
B00B40
E02F40
B9AB00
2F8A00
ENDCHAR
STARTCHAR yacute
ENCODING 253
SWIDTH 461 0
DWIDTH 9 0
BBX 12 20 -2 -5
BITMAP
000078
0000E0
000280
000000
03800B
03801D
02C03C
02C074
01D0E0
01D1D0
00D380
00E740
00AE00
00BD00
00B800
00B000
00E000
02C000
5B4000
B90000
ENDCHAR
STARTCHAR thorn
ENCODING 254
SWIDTH 577 0
DWIDTH 12 0
BBX 12 20 -1 -5
BITMAP
007400
00B000
00B000
00E000
00D6E4
01DE7C
02F01D
02D00E
03801D
07401D
07402C
0B0038
0F40B4
0ED6E0
1D7E40
1C0000
2C0000
380000
340000
740000
ENDCHAR
STARTCHAR ydieresis
ENCODING 255
SWIDTH 461 0
DWIDTH 9 0
BBX 12 20 -2 -5
BITMAP
001C34
002834
000000
000000
03800B
03801D
02C03C
02C074
01D0E0
01D1D0
00D380
00E740
00AE00
00BD00
00B800
00B000
00E000
02C000
5B4000
B90000
ENDCHAR
STARTCHAR Amacron
ENCODING 256
SWIDTH 555 0
DWIDTH 11 0
BBX 12 17 -1 0
BITMAP
000555
000FFD
000000
0002D0
0007E0
000AA0
001DA0
0038B0
0074B0
00E074
02D074
03FFF4
0BAAB8
1E0038
2C002C
78002C
F0002C
ENDCHAR
STARTCHAR amacron
ENCODING 257
SWIDTH 564 0
DWIDTH 11 0
BBX 10 14 1 0
BITMAP
005540
02FF80
000000
02F870
0F9AA0
2D03D0
7802D0
B002C0
F00380
E00780
E00B40
E02F40
B9AB00
2F8A00
ENDCHAR
STARTCHAR Abreve
ENCODING 258
SWIDTH 555 0
DWIDTH 11 0
BBX 12 18 -1 0
BITMAP
000D06
000A6D
0002F4
000000
0002D0
0007E0
000AA0
001DA0
0038B0
0074B0
00E074
02D074
03FFF4
0BAAB8
1E0038
2C002C
78002C
F0002C
ENDCHAR
STARTCHAR abreve
ENCODING 259
SWIDTH 564 0
DWIDTH 11 0
BBX 10 15 1 0
BITMAP
0180C0
00E680
007E00
000000
02F870
0F9AA0
2D03D0
7802D0
B002C0
F00380
E00780
E00B40
E02F40
B9AB00
2F8A00
ENDCHAR
STARTCHAR Aogonek
ENCODING 260
SWIDTH 555 0
DWIDTH 11 0
BBX 11 18 -1 -4
BITMAP
0002D0
0007E0
000AA0
001DA0
0038B0
0074B0
00E074
02D074
03FFF4
0BAAB8
1E0038
2C002C
78002C
F0002C
000064
0000D0
0001C0
0000F4
ENDCHAR
STARTCHAR aogonek
ENCODING 261
SWIDTH 564 0
DWIDTH 11 0
BBX 10 15 1 -4
BITMAP
02F870
0F9AA0
2D03D0
7802D0
B002C0
F00380
E00780
E00B40
E02F40
B9AB00
2F8A00
001800
007000
00A000
007C00
ENDCHAR
STARTCHAR Cacute
ENCODING 262
SWIDTH 584 0
DWIDTH 12 0
BBX 12 18 1 0
BITMAP
00002C
0000B4
000180
000000
001BF9
01FAAD
07D000
0F0000
2D0000
3C0000
780000
740000
B40000
740000
780000
3D0000
1F9AC0
06FE80
ENDCHAR
STARTCHAR cacute
ENCODING 263
SWIDTH 450 0
DWIDTH 9 0
BBX 9 15 1 0
BITMAP
000780
000E00
002800
000000
01FE00
0B9A00
2D0000
740000
B00000
E00000
E00000
E00000
B00000
7D6800
1BE400
ENDCHAR
STARTCHAR Ccircumflex
ENCODING 264
SWIDTH 584 0
DWIDTH 12 0
BBX 12 18 1 0
BITMAP
0002E0
000BB4
002828
000000
001BF9
01FAAD
07D000
0F0000
2D0000
3C0000
780000
740000
B40000
740000
780000
3D0000
1F9AC0
06FE80
ENDCHAR
STARTCHAR ccircumflex
ENCODING 265
SWIDTH 450 0
DWIDTH 9 0
BBX 9 15 1 0
BITMAP
007C00
01EE00
074740
000000
01FE00
0B9A00
2D0000
740000
B00000
E00000
E00000
E00000
B00000
7D6800
1BE400
ENDCHAR
STARTCHAR Cdot
ENCODING 266
SWIDTH 584 0
DWIDTH 12 0
BBX 12 18 1 0
BITMAP
000280
000280
000000
000000
001BF9
01FAAD
07D000
0F0000
2D0000
3C0000
780000
740000
B40000
740000
780000
3D0000
1F9AC0
06FE80
ENDCHAR
STARTCHAR cdot
ENCODING 267
SWIDTH 450 0
DWIDTH 9 0
BBX 8 15 1 0
BITMAP
0028
0038
0000
0000
01FE
0B9A
2D00
7400
B000
E000
E000
E000
B000
7D68
1BE4
ENDCHAR
STARTCHAR Ccaron
ENCODING 268
SWIDTH 584 0
DWIDTH 12 0
BBX 12 18 1 0
BITMAP
002828
000EE0
000780
000000
001BF9
01FAAD
07D000
0F0000
2D0000
3C0000
780000
740000
B40000
740000
780000
3D0000
1F9AC0
06FE80
ENDCHAR
STARTCHAR ccaron
ENCODING 269
SWIDTH 450 0
DWIDTH 9 0
BBX 9 15 1 0
BITMAP
034280
01EE00
00B800
000000
01FE00
0B9A00
2D0000
740000
B00000
E00000
E00000
E00000
B00000
7D6800
1BE400
ENDCHAR
STARTCHAR Dcaron
ENCODING 270
SWIDTH 666 0
DWIDTH 13 0
BBX 12 18 1 0
BITMAP
007074
002ED0
000F00
000000
07FF90
0796F4
0B007C
0E001D
0E001E
1D000E
2C000E
2C001E
38002D
74003C
7400B4
B006E0
F5AF40
FFE400
ENDCHAR
STARTCHAR dcaron
ENCODING 271
SWIDTH 577 0
DWIDTH 12 0
BBX 14 15 1 0
BITMAP
000038B0
000038D0
00007680
0000B000
02F8B000
0F9AE000
2D02E000
7802D000
B002C000
F003C000
E0078000
E00B4000
E02F4000
B9AB0000
2F8A0000
ENDCHAR
STARTCHAR Dcroat
ENCODING 272
SWIDTH 666 0
DWIDTH 13 0
BBX 12 14 1 0
BITMAP
07FF90
0796F4
0B007C
0E001D
1E001E
1D000E
FFF40E
7D501E
38002D
74003C
7400B4
B006E0
F5AF40
FFE400
ENDCHAR
STARTCHAR dcroat
ENCODING 273
SWIDTH 577 0
DWIDTH 12 0
BBX 12 15 1 0
BITMAP
000028
000038
003FFF
0015B5
02F8B0
0F9AE0
2D02E0
7802D0
B002C0
F003C0
E00780
E00B40
E02F40
B9AB00
2F8A00
ENDCHAR
STARTCHAR Emacron
ENCODING 274
SWIDTH 511 0
DWIDTH 10 0
BBX 10 17 1 0
BITMAP
005540
00FFD0
000000
07FFF0
07AA90
0B0000
0E0000
0E0000
1D0000
2FFF40
2D5500
380000
740000
740000
B00000
F55400
FFFC00
ENDCHAR
STARTCHAR emacron
ENCODING 275
SWIDTH 493 0
DWIDTH 10 0
BBX 9 14 1 0
BITMAP
015540
03FF40
000000
02F900
0F9F00
2D0740
780B00
B06E00
FFF400
E50000
E00000
B00000
7D6C00
1BE400
ENDCHAR
STARTCHAR Ebreve
ENCODING 276
SWIDTH 511 0
DWIDTH 10 0
BBX 10 18 1 0
BITMAP
009060
00B6D0
002F40
000000
07FFF0
07AA90
0B0000
0E0000
0E0000
1D0000
2FFF40
2D5500
380000
740000
740000
B00000
F55400
FFFC00
ENDCHAR
STARTCHAR ebreve
ENCODING 277
SWIDTH 493 0
DWIDTH 10 0
BBX 9 15 1 0
BITMAP
024180
029B40
00BD00
000000
02F900
0F9F00
2D0740
780B00
B06E00
FFF400
E50000
E00000
B00000
7D6C00
1BE400
ENDCHAR
STARTCHAR Edotaccent
ENCODING 278
SWIDTH 511 0
DWIDTH 10 0
BBX 10 18 1 0
BITMAP
001D00
001D00
000000
000000
07FFF0
07AA90
0B0000
0E0000
0E0000
1D0000
2FFF40
2D5500
380000
740000
740000
B00000
F55400
FFFC00
ENDCHAR
STARTCHAR edotaccent
ENCODING 279
SWIDTH 493 0
DWIDTH 10 0
BBX 9 15 1 0
BITMAP
003800
003400
000000
000000
02F900
0F9F00
2D0740
780B00
B06E00
FFF400
E50000
E00000
B00000
7D6C00
1BE400
ENDCHAR
STARTCHAR Eogonek
ENCODING 280
SWIDTH 511 0
DWIDTH 10 0
BBX 10 18 1 -4
BITMAP
07FFF0
07AA90
0B0000
0E0000
0E0000
1D0000
2FFF40
2D5500
380000
740000
740000
B00000
F55400
FFFC00
006000
01C000
028000
01F000
ENDCHAR
STARTCHAR eogonek
ENCODING 281
SWIDTH 493 0
DWIDTH 10 0
BBX 9 15 1 -4
BITMAP
02F900
0F9F00
2D0740
780B00
B06E00
FFF400
E50000
E00000
B00000
7D6C00
1BE400
009000
028000
034000
02E000
ENDCHAR
STARTCHAR Ecaron
ENCODING 282
SWIDTH 511 0
DWIDTH 10 0
BBX 10 18 1 0
BITMAP
00A0A0
007B80
002E00
000000
07FFF0
07AA90
0B0000
0E0000
0E0000
1D0000
2FFF40
2D5500
380000
740000
740000
B00000
F55400
FFFC00
ENDCHAR
STARTCHAR ecaron
ENCODING 283
SWIDTH 493 0
DWIDTH 10 0
BBX 9 15 1 0
BITMAP
024280
01EE00
00B800
000000
02F900
0F9F00
2D0740
780B00
B06E00
FFF400
E50000
E00000
B00000
7D6C00
1BE400
ENDCHAR
STARTCHAR Gcircumflex
ENCODING 284
SWIDTH 676 0
DWIDTH 14 0
BBX 12 18 1 0
BITMAP
0002D0
000BB0
002828
000000
001BF9
01FAAF
07D000
0F0000
2D0000
3C0000
780000
7403FD
74016C
74002C
780038
3D0074
1FA6F4
02FF90
ENDCHAR
STARTCHAR gcircumflex
ENCODING 285
SWIDTH 500 0
DWIDTH 10 0
BBX 13 20 -2 -5
BITMAP
0001F000
0007B400
001D1C00
00000000
001FFF80
00B97800
01E02800
01C03800
01C03800
01E5F000
00BF8000
01C00000
03800000
03D50000
02FFD000
1D05F000
38007400
7400B000
3D56D000
0BFE4000
ENDCHAR
STARTCHAR Gbreve
ENCODING 286
SWIDTH 676 0
DWIDTH 14 0
BBX 12 18 1 0
BITMAP
00280C
001D74
000BE0
000000
001BF9
01FAAF
07D000
0F0000
2D0000
3C0000
780000
7403FD
74016C
74002C
780038
3D0074
1FA6F4
02FF90
ENDCHAR
STARTCHAR gbreve
ENCODING 287
SWIDTH 500 0
DWIDTH 10 0
BBX 13 20 -2 -5
BITMAP
000C0900
000E6C00
0006E400
00000000
001FFF80
00B97800
01E02800
01C03800
01C03800
01E5F000
00BF8000
01C00000
03800000
03D50000
02FFD000
1D05F000
38007400
7400B000
3D56D000
0BFE4000
ENDCHAR
STARTCHAR Gdot
ENCODING 288
SWIDTH 676 0
DWIDTH 14 0
BBX 12 18 1 0
BITMAP
0002C0
000280
000000
000000
001BF9
01FAAF
07D000
0F0000
2D0000
3C0000
780000
7403FD
74016C
74002C
780038
3D0074
1FA6F4
02FF90
ENDCHAR
STARTCHAR gdot
ENCODING 289
SWIDTH 500 0
DWIDTH 10 0
BBX 13 20 -2 -5
BITMAP
0000A000
0000A000
00000000
00000000
001FFF80
00B97800
01E02800
01C03800
01C03800
01E5F000
00BF8000
01C00000
03800000
03D50000
02FFD000
1D05F000
38007400
7400B000
3D56D000
0BFE4000
ENDCHAR
STARTCHAR Gcommaaccent
ENCODING 290
SWIDTH 676 0
DWIDTH 14 0
BBX 12 18 1 -4
BITMAP
001BF9
01FAAF
07D000
0F0000
2D0000
3C0000
780000
7403FD
74016C
74002C
780038
3D0074
1FA6F4
02FF90
000000
007400
00A000
018000
ENDCHAR
STARTCHAR gcommaaccent
ENCODING 291
SWIDTH 500 0
DWIDTH 10 0
BBX 13 20 -2 -5
BITMAP
00001C00
00003400
0000B000
00000000
001FFF80
00B97800
01E02800
01C03800
01C03800
01E5F000
00BF8000
01C00000
03800000
03D50000
02FFD000
1D05F000
38007400
7400B000
3D56D000
0BFE4000
ENDCHAR
STARTCHAR Hcircumflex
ENCODING 292
SWIDTH 678 0
DWIDTH 14 0
BBX 13 18 1 0
BITMAP
0002D000
000AB000
00382800
00000000
07400380
07400740
0B000B00
0E000B00
0E000E00
1D001D00
2FFFFD00
2D557C00
38003800
74003800
74007400
B000B000
E000B000
E000E000
ENDCHAR
STARTCHAR hcircumflex
ENCODING 293
SWIDTH 577 0
DWIDTH 12 0
BBX 11 19 0 0
BITMAP
0007C0
001EE0
007434
000000
01D000
02C000
02C000
038000
075BD0
0779B0
0BC074
0B4074
0E00B0
1D00B0
1D00E0
2C00E0
3801D0
3802C0
7402C0
ENDCHAR
STARTCHAR Hbar
ENCODING 294
SWIDTH 678 0
DWIDTH 14 0
BBX 14 14 1 0
BITMAP
07400380
0B000740
BFFFFFF0
5E555F50
1E000E00
1D001D00
2FFFFD00
2D557C00
38003800
74003800
74007400
B000B000
E000B000
E000E000
ENDCHAR
STARTCHAR hbar
ENCODING 295
SWIDTH 577 0
DWIDTH 12 0
BBX 11 15 0 0
BITMAP
01D000
01C000
0FFF40
079500
035BD0
0779F0
0BC074
0B4074
0E00B0
1D00B0
1C00E0
2C00E0
3801D0
3802C0
7402C0
ENDCHAR
STARTCHAR Itilde
ENCODING 296
SWIDTH 272 0
DWIDTH 5 0
BBX 8 18 1 0
BITMAP
1E09
36DC
60B4
0000
0740
0740
0B00
0E00
0E00
1D00
2C00
2C00
3800
7400
7400
B000
E000
E000
ENDCHAR
STARTCHAR itilde
ENCODING 297
SWIDTH 253 0
DWIDTH 5 0
BBX 8 15 0 0
BITMAP
1E06
3ADD
60B8
0000
0740
0740
0B00
0E00
0E00
1D00
1C00
2C00
3800
3800
7400
ENDCHAR
STARTCHAR Imacron
ENCODING 298
SWIDTH 272 0
DWIDTH 5 0
BBX 7 17 1 0
BITMAP
1554
2FF8
0000
0740
0740
0B00
0E00
0E00
1D00
2C00
2C00
3800
7400
7400
B000
E000
E000
ENDCHAR
STARTCHAR imacron
ENCODING 299
SWIDTH 253 0
DWIDTH 5 0
BBX 7 14 0 0
BITMAP
1554
2FF8
0000
0740
0740
0B00
0E00
0E00
1D00
1C00
2C00
3800
3800
7400
ENDCHAR
STARTCHAR Ibreve
ENCODING 300
SWIDTH 272 0
DWIDTH 5 0
BBX 7 18 1 0
BITMAP
180C
1E78
0BE0
0000
0740
0740
0B00
0E00
0E00
1D00
2C00
2C00
3800
7400
7400
B000
E000
E000
ENDCHAR
STARTCHAR ibreve
ENCODING 301
SWIDTH 253 0
DWIDTH 5 0
BBX 7 15 0 0
BITMAP
180C
1D78
0BE0
0000
0740
0740
0B00
0E00
0E00
1D00
1C00
2C00
3800
3800
7400
ENDCHAR
STARTCHAR Iogonek
ENCODING 302
SWIDTH 272 0
DWIDTH 5 0
BBX 7 18 -1 -4
BITMAP
0074
0074
00B0
00E0
00E0
01D0
02C0
02C0
0380
0740
0740
0B00
0E00
0E00
1800
7000
A000
7C00
ENDCHAR
STARTCHAR iogonek
ENCODING 303
SWIDTH 253 0
DWIDTH 5 0
BBX 6 19 -1 -4
BITMAP
0070
00B0
0000
0000
01D0
01D0
02C0
0380
0380
0740
0700
0B00
0E00
0E00
1D00
2800
A000
E000
B800
ENDCHAR
STARTCHAR Idotaccent
ENCODING 304
SWIDTH 272 0
DWIDTH 5 0
BBX 5 18 1 0
BITMAP
02C0
0280
0000
0000
0740
0740
0B00
0E00
0E00
1D00
2C00
2C00
3800
7400
7400
B000
E000
E000
ENDCHAR
STARTCHAR dotlessi
ENCODING 305
SWIDTH 253 0
DWIDTH 5 0
BBX 5 11 0 0
BITMAP
0740
0740
0B00
0E00
0E00
1D00
1C00
2C00
3800
3800
7400
ENDCHAR
STARTCHAR IJ
ENCODING 306
SWIDTH 540 0
DWIDTH 11 0
BBX 10 18 1 -4
BITMAP
0740B0
0740E0
0B01D0
0E01D0
0E02C0
1D0380
2C0380
2C0740
380740
740B00
740E00
B00E00
E01D00
E02C00
002C00
007800
1AF000
2F8000
ENDCHAR
STARTCHAR ij
ENCODING 307
SWIDTH 507 0
DWIDTH 10 0
BBX 11 20 0 -5
BITMAP
01C074
02C074
000000
000000
0740D0
0741D0
0B02C0
0E02C0
0E0380
1D0740
1C0740
2C0B00
380A00
380E00
741D00
001D00
002C00
003800
05B400
07D000
ENDCHAR
STARTCHAR Jcircumflex
ENCODING 308
SWIDTH 267 0
DWIDTH 5 0
BBX 11 22 -3 -4
BITMAP
0002D0
000BB0
002828
000000
000740
000740
000B00
000E00
000E00
001D00
002C00
002C00
003800
003800
007400
00B000
00B000
00E000
01D000
02C000
AB8000
F90000
ENDCHAR
STARTCHAR jcircumflex
ENCODING 309
SWIDTH 253 0
DWIDTH 5 0
BBX 10 20 -3 -5
BITMAP
000B40
002EC0
00A0A0
000000
001D00
001D00
002C00
003800
003800
007400
007000
00B000
00E000
00E000
01D000
02C000
02C000
038000
5B4000
7D0000
ENDCHAR
STARTCHAR Kcommaaccent
ENCODING 310
SWIDTH 557 0
DWIDTH 11 0
BBX 12 18 1 -4
BITMAP
07402D
0740B4
0B02D0
0E0B40
0E2D00
1DB400
2EF000
2EB400
383800
742C00
741E00
B00B00
E00740
E003C0
000000
038000
070000
0D0000
ENDCHAR
STARTCHAR kcommaaccent
ENCODING 311
SWIDTH 487 0
DWIDTH 10 0
BBX 10 19 0 -4
BITMAP
01D000
02C000
02C000
038000
0741E0
074380
0B0E00
0A3800
0EF000
1FF000
1E7800
2C2C00
381D00
380F00
740740
000000
02C000
034000
0A0000
ENDCHAR
STARTCHAR kgreenlandic
ENCODING 312
SWIDTH 487 0
DWIDTH 10 0
BBX 10 11 0 0
BITMAP
0741E0
070380
0B0E00
0E3800
0EF000
1FF000
2E7800
2C2C00
381D00
380F00
740740
ENDCHAR
STARTCHAR Lacute
ENCODING 313
SWIDTH 474 0
DWIDTH 9 0
BBX 7 18 1 0
BITMAP
002C
00B4
0180
0000
0740
0740
0B00
0E00
0E00
1D00
2C00
2C00
3800
7400
7400
B000
FAA8
FFFC
ENDCHAR
STARTCHAR lacute
ENCODING 314
SWIDTH 253 0
DWIDTH 5 0
BBX 8 19 0 0
BITMAP
001E
0038
00A0
0000
01D0
02C0
02C0
0380
0740
0740
0B00
0A00
0E00
1D00
1D00
2C00
3800
3800
7400
ENDCHAR
STARTCHAR Lcommaaccent
ENCODING 315
SWIDTH 474 0
DWIDTH 9 0
BBX 7 18 1 -4
BITMAP
0740
0740
0B00
0E00
0E00
1D00
2C00
2C00
3800
7400
7400
B000
FAA8
FFFC
0000
02C0
0740
0900
ENDCHAR
STARTCHAR lcommaaccent
ENCODING 316
SWIDTH 253 0
DWIDTH 5 0
BBX 7 19 -1 -4
BITMAP
0074
00B0
00B0
00E0
01D0
01D0
02C0
0280
0380
0740
0740
0B00
0E00
0E00
1D00
0000
2C00
7400
9000
ENDCHAR
STARTCHAR Lcaron
ENCODING 317
SWIDTH 474 0
DWIDTH 9 0
BBX 10 14 1 0
BITMAP
0741D0
074380
0B0600
0E0000
0E0000
1D0000
2C0000
2C0000
380000
740000
740000
B00000
FAA800
FFFC00
ENDCHAR
STARTCHAR lcaron
ENCODING 318
SWIDTH 253 0
DWIDTH 5 0
BBX 9 15 0 0
BITMAP
01D380
02CA00
02CC00
038000
074000
074000
0B0000
0A0000
0E0000
1D0000
1D0000
2C0000
380000
380000
740000
ENDCHAR
STARTCHAR Ldot
ENCODING 319
SWIDTH 474 0
DWIDTH 9 0
BBX 8 14 1 0
BITMAP
0740
0740
0B00
0E00
0E00
1D00
2C0D
2C0D
3800
7400
7400
B000
FAA8
FFFC
ENDCHAR
STARTCHAR ldot
ENCODING 320
SWIDTH 283 0
DWIDTH 6 0
BBX 7 15 0 0
BITMAP
01D0
02C0
02C0
0380
0740
0740
0B38
0A38
0E00
1D00
1D00
2C00
3800
3800
7400
ENDCHAR
STARTCHAR Lslash
ENCODING 321
SWIDTH 474 0
DWIDTH 9 0
BBX 8 14 0 0
BITMAP
01D0
01D0
02C0
0380
0380
0758
0BF4
0B80
7E00
6D00
1D00
2C00
3EAA
3FFF
ENDCHAR
STARTCHAR lslash
ENCODING 322
SWIDTH 250 0
DWIDTH 5 0
BBX 6 15 0 0
BITMAP
01D0
02C0
02C0
0380
0740
0740
0B90
0F80
7E00
AD00
1C00
2C00
3800
3400
7400
ENDCHAR
STARTCHAR Nacute
ENCODING 323
SWIDTH 702 0
DWIDTH 14 0
BBX 13 18 1 0
BITMAP
00003C00
0000B000
00028000
00000000
078002C0
07D00280
0BE00380
0EB00740
0D740740
1D380B00
2C2C0E00
280D0E00
380B1D00
74076C00
7003AC00
B002F800
E001F400
E000F400
ENDCHAR
STARTCHAR nacute
ENCODING 324
SWIDTH 577 0
DWIDTH 12 0
BBX 11 15 0 0
BITMAP
0000B4
0002D0
000600
000000
075BD0
0779B4
0BC074
0F4074
0E00B0
1D00B0
1C00E0
2C00E0
3801D0
3802C0
7402C0
ENDCHAR
STARTCHAR Ncommaaccent
ENCODING 325
SWIDTH 702 0
DWIDTH 14 0
BBX 13 18 1 -4
BITMAP
078002C0
07D00280
0BE00380
0EB00740
0D740740
1D380B00
2C2C0E00
280D0E00
380B1D00
74076C00
7003AC00
B002F800
E001F400
E000F400
00000000
00E00000
02C00000
03400000
ENDCHAR
STARTCHAR ncommaaccent
ENCODING 326
SWIDTH 577 0
DWIDTH 12 0
BBX 11 15 0 -4
BITMAP
075BD0
0779B4
0BC074
0F4074
0E00B0
1D00B0
1C00E0
2C00E0
3801D0
3802C0
7402C0
000000
01D000
038000
060000
ENDCHAR
STARTCHAR Ncaron
ENCODING 327
SWIDTH 702 0
DWIDTH 14 0
BBX 13 18 1 0
BITMAP
00181C00
000AB000
0007C000
00000000
078002C0
07D00280
0BE00380
0EB00740
0D740740
1D380B00
2C2C0E00
280D0E00
380B1D00
74076C00
7003AC00
B002F800
E001F400
E000F400
ENDCHAR
STARTCHAR ncaron
ENCODING 328
SWIDTH 577 0
DWIDTH 12 0
BBX 11 15 0 0
BITMAP
007074
002ED0
000F40
000000
075BD0
0779B4
0BC074
0F4074
0E00B0
1D00B0
1C00E0
2C00E0
3801D0
3802C0
7402C0
ENDCHAR
STARTCHAR napostrophe
ENCODING 329
SWIDTH 645 0
DWIDTH 13 0
BBX 11 14 1 0
BITMAP
1E0000
2D0000
380000
738BE0
D369B8
07D038
0B8038
0B0034
0E0074
0E00B0
1D00B0
2C00E0
2C01D0
3801D0
ENDCHAR
STARTCHAR Eng
ENCODING 330
SWIDTH 702 0
DWIDTH 14 0
BBX 13 18 1 -4
BITMAP
078002C0
07D00280
0AE00380
0EB00740
0D740740
1D380B00
2C2C0E00
280D0E00
380B1D00
74076C00
7003AC00
B002F800
E001F400
E000B400
0000B000
0000E000
006BC000
007E4000
ENDCHAR
STARTCHAR eng
ENCODING 331
SWIDTH 577 0
DWIDTH 12 0
BBX 11 16 0 -5
BITMAP
075BD0
0779F0
0BC074
0F4074
0E00B0
1D00B0
1C00E0
2C00E0
3801D0
3802C0
7402C0
000380
000740
000740
005E00
00F800
ENDCHAR
STARTCHAR Omacron
ENCODING 332
SWIDTH 720 0
DWIDTH 14 0
BBX 13 17 1 0
BITMAP
00155400
002FF800
00000000
006FE400
01FABD00
07800F00
1E000780
2D000380
38000380
74000380
74000780
B4000B40
74000F00
78002E00
3D007C00
1F9BE000
02FE4000
ENDCHAR
STARTCHAR omacron
ENCODING 333
SWIDTH 561 0
DWIDTH 11 0
BBX 10 14 1 0
BITMAP
015540
03FF40
000000
02FD00
0F9B40
2C02C0
7401D0
B001D0
E002C0
E002C0
E00380
B00B00
7D6D00
1BE400
ENDCHAR
STARTCHAR Obreve
ENCODING 334
SWIDTH 720 0
DWIDTH 14 0
BBX 13 18 1 0
BITMAP
00241800
002DB400
000BD000
00000000
006FE400
01FABD00
07800F00
1E000780
2D000380
38000380
74000380
74000780
B4000B40
74000F00
78002E00
3D007C00
1F9BE000
02FE4000
ENDCHAR
STARTCHAR obreve
ENCODING 335
SWIDTH 561 0
DWIDTH 11 0
BBX 10 15 1 0
BITMAP
024180
029B40
00BD00
000000
02FD00
0F9B40
2C02C0
7401D0
B001D0
E002C0
E002C0
E00380
B00B00
7D6D00
1BE400
ENDCHAR
STARTCHAR Ohungarumlaut
ENCODING 336
SWIDTH 720 0
DWIDTH 14 0
BBX 13 18 1 0
BITMAP
0001D380
00074A00
00092800
00000000
006FE400
01FABD00
07800F00
1E000780
2D000380
38000380
74000380
74000780
B4000B40
74000F00
78002E00
3D007C00
1F9BE000
02FE4000
ENDCHAR
STARTCHAR ohungarumlaut
ENCODING 337
SWIDTH 561 0
DWIDTH 11 0
BBX 10 15 1 0
BITMAP
0038B0
00A1D0
028600
000000
02FD00
0F9B40
2C02C0
7401D0
B001D0
E002C0
E002C0
E00380
B00B00
7D6D00
1BE400
ENDCHAR
STARTCHAR OE
ENCODING 338
SWIDTH 854 0
DWIDTH 17 0
BBX 17 14 1 0
BITMAP
006FFFFF80
01FABEAA40
07802C0000
1E00380000
2D00740000
3800740000
7400BFFC00
7400F55400
B400E00000
7401D00000
7802C00000
3D02C00000
1F9BD55000
02FFFFF000
ENDCHAR
STARTCHAR oe
ENCODING 339
SWIDTH 863 0
DWIDTH 17 0
BBX 16 11 1 0
BITMAP
02FD06F8
0F9B5E6D
2C02F80E
7401F01E
B001D17C
E001FFE0
E002D500
E003C000
B00BD000
7D6DF9A4
1BE02FE0
ENDCHAR
STARTCHAR Racute
ENCODING 340
SWIDTH 568 0
DWIDTH 11 0
BBX 11 18 1 0
BITMAP
0001D0
000740
001D00
000000
07FF80
079AE0
0B00B4
0E0074
0E0074
1D00B0
2C06D0
2FFE40
396C00
781D00
740E00
B00B00
F00740
E003C0
ENDCHAR
STARTCHAR racute
ENCODING 341
SWIDTH 395 0
DWIDTH 8 0
BBX 9 15 0 0
BITMAP
000780
000E00
002800
000000
075B40
077A00
0BC000
0F4000
0E0000
1D0000
1D0000
2C0000
380000
380000
740000
ENDCHAR
STARTCHAR Rcommaaccent
ENCODING 342
SWIDTH 568 0
DWIDTH 11 0
BBX 11 18 1 -4
BITMAP
07FF80
079AE0
0B00B4
0E0074
0E0074
1D00B0
2C06D0
2FFE40
396C00
781D00
740E00
B00B00
F00740
E003C0
000000
02C000
074000
090000
ENDCHAR
STARTCHAR rcommaaccent
ENCODING 343
SWIDTH 395 0
DWIDTH 8 0
BBX 10 15 -1 -4
BITMAP
01D6D0
01DE80
02F000
03D000
038000
074000
074000
0B0000
0E0000
0E0000
1D0000
000000
280000
740000
900000
ENDCHAR
STARTCHAR Rcaron
ENCODING 344
SWIDTH 568 0
DWIDTH 11 0
BBX 11 18 1 0
BITMAP
00A0A0
003B80
002E00
000000
07FF80
079AE0
0B00B4
0E0074
0E0074
1D00B0
2C06D0
2FFE40
396C00
781D00
740E00
B00B00
F00740
E003C0
ENDCHAR
STARTCHAR rcaron
ENCODING 345
SWIDTH 395 0
DWIDTH 8 0
BBX 9 15 0 0
BITMAP
028280
00EE00
007800
000000
075B40
077A00
0BC000
0F4000
0E0000
1D0000
1D0000
2C0000
380000
380000
740000
ENDCHAR
STARTCHAR Sacute
ENCODING 346
SWIDTH 501 0
DWIDTH 10 0
BBX 10 18 0 0
BITMAP
0000B0
0002D0
000600
000000
00BF90
03EAB0
0B4000
0F0000
0B0000
078000
02F400
006E00
000B80
0003C0
0003C0
000780
B9AF00
6FE400
ENDCHAR
STARTCHAR sacute
ENCODING 347
SWIDTH 428 0
DWIDTH 9 0
BBX 9 15 0 0
BITMAP
000780
001E00
003400
000000
06FA00
1F5A00
2C0000
2D0000
1F4000
06E000
00B800
002C00
002C00
E5B800
6F9000
ENDCHAR
STARTCHAR Scircumflex
ENCODING 348
SWIDTH 501 0
DWIDTH 10 0
BBX 10 18 0 0
BITMAP
000B40
002EC0
00A0A0
000000
00BF90
03EAB0
0B4000
0F0000
0B0000
078000
02F400
006E00
000B80
0003C0
0003C0
000780
B9AF00
6FE400
ENDCHAR
STARTCHAR scircumflex
ENCODING 349
SWIDTH 428 0
DWIDTH 9 0
BBX 8 15 0 0
BITMAP
007C
01ED
0747
0000
06FA
1F5A
2C00
2D00
1F40
06E0
00B8
002C
002C
E5B8
6F90
ENDCHAR
STARTCHAR Scedilla
ENCODING 350
SWIDTH 501 0
DWIDTH 10 0
BBX 10 19 0 -5
BITMAP
00BF90
03EAB0
0B4000
0F0000
0B0000
078000
02F400
006E00
000B80
0003C0
0003C0
000780
B9AF00
6FE400
024000
078000
01D000
01C000
1E4000
ENDCHAR
STARTCHAR scedilla
ENCODING 351
SWIDTH 428 0
DWIDTH 9 0
BBX 8 16 0 -5
BITMAP
06FA
1F5A
2C00
2D00
1F40
06E0
00B8
002C
002C
E5B8
6F90
0600
0E00
0380
0740
3E00
ENDCHAR
STARTCHAR Scaron
ENCODING 352
SWIDTH 501 0
DWIDTH 10 0
BBX 10 18 0 0
BITMAP
00A0A0
003B80
001E00
000000
00BF90
03EAB0
0B4000
0F0000
0B0000
078000
02F400
006E00
000B80
0003C0
0003C0
000780
B9AF00
6FE400
ENDCHAR
STARTCHAR scaron
ENCODING 353
SWIDTH 428 0
DWIDTH 9 0
BBX 9 15 0 0
BITMAP
034640
01ED00
00B400
000000
06FA00
1F5A00
2C0000
2D0000
1F4000
06E000
00B800
002C00
002C00
E5B800
6F9000
ENDCHAR
STARTCHAR Tcedilla
ENCODING 354
SWIDTH 498 0
DWIDTH 10 0
BBX 11 19 1 -5
BITMAP
3FFFF8
15B954
007400
00B000
00E000
00E000
01D000
02D000
02C000
038000
078000
074000
0B0000
0B0000
090000
1D0000
070000
0B0000
B90000
ENDCHAR
STARTCHAR tcedilla
ENCODING 355
SWIDTH 324 0
DWIDTH 6 0
BBX 7 18 0 -5
BITMAP
01C0
0380
2FFC
1B54
0B00
0E00
0E00
1D00
2C00
2C00
2800
2D40
0BD0
0900
1D00
0700
0B00
7900
ENDCHAR
STARTCHAR Tcaron
ENCODING 356
SWIDTH 498 0
DWIDTH 10 0
BBX 10 18 2 0
BITMAP
074740
02ED00
00F400
000000
FFFFE0
56E550
01D000
02C000
038000
038000
074000
0B4000
0B0000
0E0000
1E0000
1D0000
2C0000
2C0000
ENDCHAR
STARTCHAR tcaron
ENCODING 357
SWIDTH 324 0
DWIDTH 6 0
BBX 9 15 1 0
BITMAP
000740
000E00
071800
0E0000
BFF000
6D5000
2C0000
380000
380000
740000
B00000
B00000
A00000
B50000
2F4000
ENDCHAR
STARTCHAR Tbar
ENCODING 358
SWIDTH 498 0
DWIDTH 10 0
BBX 10 14 2 0
BITMAP
FFFFE0
56E550
01D000
02C000
038000
038000
FFFD00
5B5400
0B0000
0E0000
1D0000
1D0000
2C0000
2C0000
ENDCHAR
STARTCHAR tbar
ENCODING 359
SWIDTH 324 0
DWIDTH 6 0
BBX 7 13 0 0
BITMAP
01C0
0380
2FFC
1B54
0B00
0E00
7FF0
1E50
2C00
2C00
3800
2D40
1BD0
ENDCHAR
STARTCHAR Utilde
ENCODING 360
SWIDTH 675 0
DWIDTH 14 0
BBX 13 18 1 0
BITMAP
001E0900
0037DC00
0060B400
00000000
07400380
0B000740
0E000740
0E000B00
1D000E00
2C000E00
2C001D00
38002C00
74002C00
74003800
74007400
7801E000
2EABD000
0BFE0000
ENDCHAR
STARTCHAR utilde
ENCODING 361
SWIDTH 577 0
DWIDTH 12 0
BBX 10 15 1 0
BITMAP
01F460
02AE90
030780
000000
1D00A0
2C00E0
2C01D0
3801D0
7402C0
740380
B00780
B00B40
E02F40
B9AB00
2F8A00
ENDCHAR
STARTCHAR Umacron
ENCODING 362
SWIDTH 675 0
DWIDTH 14 0
BBX 13 17 1 0
BITMAP
00155400
002FF800
00000000
07400380
0B000740
0E000740
0E000B00
1D000E00
2C000E00
2C001D00
38002C00
74002C00
74003800
74007400
7801E000
2EABD000
0BFE0000
ENDCHAR
STARTCHAR umacron
ENCODING 363
SWIDTH 577 0
DWIDTH 12 0
BBX 10 14 1 0
BITMAP
005540
01FF80
000000
1D00A0
2C00E0
2C01D0
3801D0
7402C0
740380
B00780
B00B40
E02F40
B9AB00
2F8A00
ENDCHAR
STARTCHAR Ubreve
ENCODING 364
SWIDTH 675 0
DWIDTH 14 0
BBX 13 18 1 0
BITMAP
00241800
001D7400
000BD000
00000000
07400380
0B000740
0E000740
0E000B00
1D000E00
2C000E00
2C001D00
38002C00
74002C00
74003800
74007400
7801E000
2EABD000
0BFE0000
ENDCHAR
STARTCHAR ubreve
ENCODING 365
SWIDTH 577 0
DWIDTH 12 0
BBX 10 15 1 0
BITMAP
0180C0
01E780
00BE00
000000
1D00A0
2C00E0
2C01D0
3801D0
7402C0
740380
B00780
B00B40
E02F40
B9AB00
2F8A00
ENDCHAR
STARTCHAR Uring
ENCODING 366
SWIDTH 675 0
DWIDTH 14 0
BBX 13 19 1 0
BITMAP
0007D000
000C3000
000C7000
000BD000
00000000
07400380
0B000740
0E000740
0E000B00
1D000E00
2C000E00
2C001D00
38002C00
74002C00
74003800
74007400
7801E000
2EABD000
0BFE0000
ENDCHAR
STARTCHAR uring
ENCODING 367
SWIDTH 577 0
DWIDTH 12 0
BBX 10 16 1 0
BITMAP
007E00
00D340
00D340
007E00
000000
1D00A0
2C00E0
2C01D0
3801D0
7402C0
740380
B00780
B00B40
E02F40
B9AB00
2F8A00
ENDCHAR
STARTCHAR Uhungarumlaut
ENCODING 368
SWIDTH 675 0
DWIDTH 14 0
BBX 13 18 1 0
BITMAP
0002C740
00074D00
00182400
00000000
07400380
0B000740
0E000740
0E000B00
1D000E00
2C000E00
2C001D00
38002C00
74002C00
74003800
74007400
7801E000
2EABD000
0BFE0000
ENDCHAR
STARTCHAR uhungarumlaut
ENCODING 369
SWIDTH 577 0
DWIDTH 12 0
BBX 11 15 1 0
BITMAP
002C74
0074D0
018240
000000
1D00A0
2C00E0
2C01D0
3801D0
7402C0
740380
B00780
B00B40
E02F40
B9AB00
2F8A00
ENDCHAR
STARTCHAR Uogonek
ENCODING 370
SWIDTH 675 0
DWIDTH 14 0
BBX 13 18 1 -4
BITMAP
07400380
0B000740
0E000740
0E000B00
1D000E00
2C000E00
2C001D00
38002C00
74002C00
74003800
74007400
7801E000
2EABD000
0BFE0000
00240000
00D00000
01D00000
00B40000
ENDCHAR
STARTCHAR uogonek
ENCODING 371
SWIDTH 577 0
DWIDTH 12 0
BBX 10 15 1 -4
BITMAP
1D00A0
2C00E0
2C01D0
3801D0
7402C0
740380
B00780
B00B40
E02F40
B9AB00
2F8A00
001800
007000
00A000
007C00
ENDCHAR
STARTCHAR Wcircumflex
ENCODING 372
SWIDTH 852 0
DWIDTH 17 0
BBX 17 18 2 0
BITMAP
0001F00000
0007B80000
001D1D0000
0000000000
B002D00780
B003D00B00
B00AD00E00
B00DE02C00
B02CE03800
B034A07400
B0B0A0E000
B0E0A1D000
71C0A28000
7780A74000
7700AB0000
7A00BD0000
7D007C0000
7800780000
ENDCHAR
STARTCHAR wcircumflex
ENCODING 373
SWIDTH 716 0
DWIDTH 14 0
BBX 14 15 1 0
BITMAP
00078000
001ED000
00A47000
00000000
E00F00F0
A02F01D0
A03B02C0
B0770740
B0D74B00
B1C74E00
B3835C00
B7037800
BA03B400
7D03E000
7803D000
ENDCHAR
STARTCHAR Ycircumflex
ENCODING 374
SWIDTH 502 0
DWIDTH 10 0
BBX 10 18 2 0
BITMAP
00F400
03A800
0D0900
000000
E001E0
B00380
700B40
741D00
383800
2CB000
1DD000
1F8000
0F0000
0E0000
1D0000
1D0000
2C0000
380000
ENDCHAR
STARTCHAR ycircumflex
ENCODING 375
SWIDTH 461 0
DWIDTH 9 0
BBX 12 20 -2 -5
BITMAP
0007C0
001EE0
007434
000000
03800B
03801D
02C03C
02C074
01D0E0
01D1D0
00D380
00E740
00AE00
00BD00
00B800
00B000
00E000
02C000
5B4000
B90000
ENDCHAR
STARTCHAR Ydieresis
ENCODING 376
SWIDTH 502 0
DWIDTH 10 0
BBX 10 18 2 0
BITMAP
070A00
070900
000000
000000
E001E0
B00380
700B40
741D00
383800
2CB000
1DD000
1F8000
0F0000
0E0000
1D0000
1D0000
2C0000
380000
ENDCHAR
STARTCHAR Zacute
ENCODING 377
SWIDTH 530 0
DWIDTH 11 0
BBX 12 18 0 0
BITMAP
000074
0001D0
000340
000000
03FFFD
02AABC
0000B4
0001D0
000780
000E00
003C00
00B400
02D000
078000
1E0000
3C0000
BAAA40
FFFF80
ENDCHAR
STARTCHAR zacute
ENCODING 378
SWIDTH 443 0
DWIDTH 9 0
BBX 10 15 -1 0
BITMAP
0000F0
000280
000A00
000000
02FFE0
0156D0
000780
000E00
002C00
00B400
01D000
078000
0E0000
2D5500
7FFF00
ENDCHAR
STARTCHAR Zdotaccent
ENCODING 379
SWIDTH 530 0
DWIDTH 11 0
BBX 12 18 0 0
BITMAP
000740
000740
000000
000000
03FFFD
02AABC
0000B4
0001D0
000780
000E00
003C00
00B400
02D000
078000
1E0000
3C0000
BAAA40
FFFF80
ENDCHAR
STARTCHAR zdotaccent
ENCODING 380
SWIDTH 443 0
DWIDTH 9 0
BBX 10 15 -1 0
BITMAP
000A00
000E00
000000
000000
02FFE0
0156D0
000780
000E00
002C00
00B400
01D000
078000
0E0000
2D5500
7FFF00
ENDCHAR
STARTCHAR Zcaron
ENCODING 381
SWIDTH 530 0
DWIDTH 11 0
BBX 12 18 0 0
BITMAP
003428
001EE0
000B80
000000
03FFFD
02AABC
0000B4
0001D0
000780
000E00
003C00
00B400
02D000
078000
1E0000
3C0000
BAAA40
FFFF80
ENDCHAR
STARTCHAR zcaron
ENCODING 382
SWIDTH 443 0
DWIDTH 9 0
BBX 10 15 -1 0
BITMAP
00A0A0
003B80
001E00
000000
02FFE0
0156D0
000780
000E00
002C00
00B400
01D000
078000
0E0000
2D5500
7FFF00
ENDCHAR
STARTCHAR longs
ENCODING 383
SWIDTH 274 0
DWIDTH 6 0
BBX 12 20 -3 -5
BITMAP
0001BD
000794
000B00
000E00
001D00
001D00
002C00
002C00
003800
007400
007400
00B000
00E000
00E000
01D000
02C000
02C000
038000
5B4000
7D0000
ENDCHAR
STARTCHAR florin
ENCODING 402
SWIDTH 550 0
DWIDTH 11 0
BBX 11 19 0 -5
BITMAP
0002F8
000F54
001D00
002C00
002C00
02FFC0
017940
007400
00B000
00E000
00E000
01D000
01C000
02C000
038000
034000
074000
5E0000
F80000
ENDCHAR
STARTCHAR Ohorn
ENCODING 416
SWIDTH 713 0
DWIDTH 14 0
BBX 16 15 1 0
BITMAP
0000001E
006FE42C
01FABD74
07800FD0
1E000740
2D000380
38000380
74000380
74000780
B4000B40
74000F00
78002E00
3D007C00
1F9BE000
02FE4000
ENDCHAR
STARTCHAR ohorn
ENCODING 417
SWIDTH 561 0
DWIDTH 11 0
BBX 12 13 1 0
BITMAP
00000B
00000E
02FD2D
0F9BB4
2C02C0
7401D0
B001D0
E002C0
E002C0
E00380
B00B00
7D6D00
1BE400
ENDCHAR
STARTCHAR Uhorn
ENCODING 431
SWIDTH 722 0
DWIDTH 14 0
BBX 16 15 1 0
BITMAP
0000000B
0740038E
0B0007AC
0E0007E0
0E000B00
1D000E00
2C000E00
2C001D00
38002C00
74002C00
74003800
74007400
7801F000
2EABD000
06FE0000
ENDCHAR
STARTCHAR uhorn
ENCODING 432
SWIDTH 617 0
DWIDTH 12 0
BBX 14 13 1 0
BITMAP
000001D0
000002C0
1D00A780
2C00FD00
2C01E000
3801D000
7402C000
74038000
B0078000
B00B4000
E02F4000
B9AB0000
2F8A0000
ENDCHAR
STARTCHAR uni01F0
ENCODING 496
SWIDTH 253 0
DWIDTH 5 0
BBX 11 20 -3 -5
BITMAP
007074
002ED0
000F40
000000
001D00
001D00
002C00
003800
003800
007400
007000
00B000
00E000
00E000
01D000
02C000
02C000
038000
5B4000
7D0000
ENDCHAR
STARTCHAR Aringacute
ENCODING 506
SWIDTH 555 0
DWIDTH 11 0
BBX 12 19 -1 0
BITMAP
00001E
000078
0000D0
0002E0
000924
000924
0007E0
000EA0
002DB0
0038B0
00B470
00E074
02D074
07FFF4
0BAAB8
1E0038
2C002C
78002C
F0002C
ENDCHAR
STARTCHAR aringacute
ENCODING 507
SWIDTH 564 0
DWIDTH 11 0
BBX 10 19 1 0
BITMAP
0002D0
000740
001D00
007D00
00C300
00D300
007D00
000000
02F870
0F9AA0
2D03D0
7802D0
B002C0
F00380
E00780
E00B40
E02F40
B9AB00
2F8A00
ENDCHAR
STARTCHAR AEacute
ENCODING 508
SWIDTH 816 0
DWIDTH 16 0
BBX 18 18 -1 0
BITMAP
0000000E00
0000002800
000000A000
0000000000
00007FFFF0
0000EBAA90
0002DB0000
00078B0000
000F0E0000
002D1D0000
00781FFF40
00F02D5500
02FFF80000
07AAB80000
0F00740000
2D00B00000
7800B55500
B000FFFD00
ENDCHAR
STARTCHAR aeacute
ENCODING 509
SWIDTH 814 0
DWIDTH 16 0
BBX 15 15 1 0
BITMAP
00000E00
00003800
0000A000
00000000
02F4DBE0
0F9EFDB8
2D07E028
7803C038
B00381F4
F007FF90
E00B5400
E01F4000
E03F8000
B9DFE6A0
2E4DBF90
ENDCHAR
STARTCHAR Oslashacute
ENCODING 510
SWIDTH 720 0
DWIDTH 14 0
BBX 13 19 1 -1
BITMAP
00007800
0000E000
00028000
00000040
006FE6C0
01FABF40
07801F00
1E007F80
2D00E380
3802C380
740B0380
742D0780
B4740B40
75E00F00
7B802E00
3E007C00
2FABE000
B6FE4000
10000000
ENDCHAR
STARTCHAR oslashacute
ENCODING 511
SWIDTH 561 0
DWIDTH 11 0
BBX 10 16 1 -1
BITMAP
000780
001E00
003400
000090
02FAD0
0F9B80
2C0BC0
742ED0
B075C0
E1D1C0
E38280
EA0380
BC0B00
7D6D00
EBE400
800000
ENDCHAR
STARTCHAR Scommaaccent
ENCODING 536
SWIDTH 501 0
DWIDTH 10 0
BBX 10 18 0 -4
BITMAP
00BF90
03EAB0
0B4000
0F0000
0B0000
078000
02F400
006E00
000B80
0003C0
0003C0
000780
B9AF00
6FE400
000000
038000
070000
0D0000
ENDCHAR
STARTCHAR scommaaccent
ENCODING 537
SWIDTH 428 0
DWIDTH 9 0
BBX 8 15 0 -4
BITMAP
06FA
1F5A
2C00
2D00
1F40
06E0
00B8
002C
002C
E5B8
6F90
0000
0E00
1C00
3400
ENDCHAR
STARTCHAR Tcommaaccent
ENCODING 538
SWIDTH 498 0
DWIDTH 10 0
BBX 11 18 1 -4
BITMAP
3FFFF8
15B954
007400
00B000
00E000
00E000
01D000
02D000
02C000
038000
078000
074000
0B0000
0B0000
000000
1D0000
380000
600000
ENDCHAR
STARTCHAR tcommaaccent
ENCODING 539
SWIDTH 324 0
DWIDTH 6 0
BBX 7 17 0 -4
BITMAP
01C0
0380
2FFC
1B54
0B00
0E00
0E00
1D00
2C00
2C00
2800
2D40
0BD0
0000
1D00
2800
7000
ENDCHAR
STARTCHAR dotlessj
ENCODING 567
SWIDTH 253 0
DWIDTH 5 0
BBX 8 16 -3 -5
BITMAP
001D
001D
002C
0038
0038
0074
0070
00B0
00E0
00E0
01D0
02C0
02C0
0380
5B40
7D00
ENDCHAR
STARTCHAR uni02BC
ENCODING 700
SWIDTH 169 0
DWIDTH 3 0
BBX 4 5 1 9
BITMAP
0F
1E
2C
34
A0
ENDCHAR
STARTCHAR circumflex
ENCODING 710
SWIDTH 554 0
DWIDTH 11 0
BBX 6 3 4 12
BITMAP
0B40
2EC0
A0A0
ENDCHAR
STARTCHAR caron
ENCODING 711
SWIDTH 554 0
DWIDTH 11 0
BBX 7 3 4 12
BITMAP
7074
2ED0
0F40
ENDCHAR
STARTCHAR macron
ENCODING 713
SWIDTH 535 0
DWIDTH 11 0
BBX 6 2 4 12
BITMAP
5550
FFD0
ENDCHAR
STARTCHAR breve
ENCODING 728
SWIDTH 554 0
DWIDTH 11 0
BBX 6 3 4 12
BITMAP
6030
39A0
1F80
ENDCHAR
STARTCHAR dotaccent
ENCODING 729
SWIDTH 243 0
DWIDTH 5 0
BBX 2 2 3 13
BITMAP
B0
A0
ENDCHAR
STARTCHAR ring
ENCODING 730
SWIDTH 577 0
DWIDTH 12 0
BBX 5 4 5 12
BITMAP
2E00
A280
A280
2E00
ENDCHAR
STARTCHAR ogonek
ENCODING 731
SWIDTH 182 0
DWIDTH 4 0
BBX 4 4 -2 -4
BITMAP
19
34
74
2D
ENDCHAR
STARTCHAR tilde
ENCODING 732
SWIDTH 554 0
DWIDTH 11 0
BBX 8 3 3 12
BITMAP
2E09
779C
90B4
ENDCHAR
STARTCHAR hungarumlaut
ENCODING 733
SWIDTH 554 0
DWIDTH 11 0
BBX 7 3 4 12
BITMAP
1D38
38A0
9280
ENDCHAR
STARTCHAR uni02F3
ENCODING 755
SWIDTH 333 0
DWIDTH 7 0
BBX 5 4 -1 -5
BITMAP
2E00
A280
A280
2E00
ENDCHAR
STARTCHAR uni0300
ENCODING 768
SWIDTH 0 0
DWIDTH 0 0
BBX 3 3 -7 12
BITMAP
F0
74
1C
ENDCHAR
STARTCHAR uni0301
ENCODING 769
SWIDTH 0 0
DWIDTH 0 0
BBX 4 3 -5 12
BITMAP
1E
78
D0
ENDCHAR
STARTCHAR uni0303
ENCODING 771
SWIDTH 0 0
DWIDTH 0 0
BBX 7 3 -8 12
BITMAP
7D18
ABA4
C1E0
ENDCHAR
STARTCHAR hook
ENCODING 777
SWIDTH 0 0
DWIDTH 0 0
BBX 4 5 -6 12
BITMAP
B9
0A
1E
78
A0
ENDCHAR
STARTCHAR uni030F
ENCODING 783
SWIDTH 0 0
DWIDTH 0 0
BBX 7 3 -10 12
BITMAP
B1D0
38B0
1C28
ENDCHAR
STARTCHAR dotbelow
ENCODING 803
SWIDTH 0 0
DWIDTH 0 0
BBX 3 2 -9 -3
BITMAP
34
74
ENDCHAR
STARTCHAR tonos
ENCODING 900
SWIDTH 562 0
DWIDTH 11 0
BBX 4 4 6 12
BITMAP
1D
2C
74
90
ENDCHAR
STARTCHAR dieresistonos
ENCODING 901
SWIDTH 562 0
DWIDTH 11 0
BBX 6 4 4 13
BITMAP
01E0
0280
7670
7060
ENDCHAR
STARTCHAR Alphatonos
ENCODING 902
SWIDTH 555 0
DWIDTH 11 0
BBX 11 15 -1 0
BITMAP
00E000
02D2D0
0387E0
0A0AA0
001DA0
0038B0
0074B0
00E074
02D074
03FFF4
0BAAB8
1E0038
2C002C
78002C
F0002C
ENDCHAR
STARTCHAR anoteleia
ENCODING 903
SWIDTH 252 0
DWIDTH 5 0
BBX 3 3 1 6
BITMAP
14
7C
78
ENDCHAR
STARTCHAR Epsilontonos
ENCODING 904
SWIDTH 567 0
DWIDTH 11 0
BBX 12 15 0 0
BITMAP
0B0000
1E3FFF
287AA9
70B000
00B000
00E000
01D000
01FFF4
02E550
02C000
038000
074000
074000
0B9550
0FFFD0
ENDCHAR
STARTCHAR Etatonos
ENCODING 905
SWIDTH 753 0
DWIDTH 15 0
BBX 15 15 0 0
BITMAP
0B000000
1E2C002C
28380038
70740038
00740074
00B00070
00B000B0
00FFFFE0
01E556E0
01D001D0
02C002C0
038002C0
03800380
07400740
0B000740
ENDCHAR
STARTCHAR Iotatonos
ENCODING 906
SWIDTH 363 0
DWIDTH 7 0
BBX 7 15 1 0
BITMAP
2D00
3874
70B0
D0E0
00E0
01D0
02C0
02C0
0380
0740
0740
0B00
0A00
0E00
1D00
ENDCHAR
STARTCHAR Omicrontonos
ENCODING 908
SWIDTH 756 0
DWIDTH 15 0
BBX 14 15 1 0
BITMAP
2D000000
381BF800
70BEAF40
D2E007C0
078002D0
0F0001D0
1E0001E0
2D0001D0
2C0001D0
2C0002C0
2C000780
2D000B40
1F002E00
07E6F800
01BF9000
ENDCHAR
STARTCHAR Upsilontonos
ENCODING 910
SWIDTH 640 0
DWIDTH 13 0
BBX 15 15 0 0
BITMAP
0B000000
1E7400B4
283801E0
702C03C0
001C0B40
001D1E00
000E3800
000BB400
0007D000
00078000
00074000
00074000
000B0000
000E0000
000E0000
ENDCHAR
STARTCHAR Omegatonos
ENCODING 911
SWIDTH 782 0
DWIDTH 16 0
BBX 14 15 1 0
BITMAP
1D000000
2C1BF900
74BEAF40
92E003D0
078001E0
0B0000E0
0E0000F0
1D0000E0
1D0001E0
1D0002D0
0E000780
0B000F00
07403800
57D1F940
FFD3FFC0
ENDCHAR
STARTCHAR iotadieresistonos
ENCODING 912
SWIDTH 305 0
DWIDTH 6 0
BBX 6 17 1 0
BITMAP
01E0
0280
76B0
60A0
0000
0000
1D00
2C00
2C00
3800
7400
7400
B000
A000
E000
F500
7F00
ENDCHAR
STARTCHAR Alpha
ENCODING 913
SWIDTH 555 0
DWIDTH 11 0
BBX 11 14 -1 0
BITMAP
0002D0
0007E0
000AA0
001DA0
0038B0
0074B0
00E074
02D074
03FFF4
0BAAB8
1E0038
2C002C
78002C
F0002C
ENDCHAR
STARTCHAR Beta
ENCODING 914
SWIDTH 598 0
DWIDTH 12 0
BBX 11 14 1 0
BITMAP
07FF90
0796F4
0B0078
0E0038
0E0074
1D01E0
2FFF40
2D5B80
3801E0
7400E0
7400E0
B002D0
F56F80
FFF900
ENDCHAR
STARTCHAR Gamma
ENCODING 915
SWIDTH 476 0
DWIDTH 10 0
BBX 10 14 1 0
BITMAP
07FFF0
07AA90
0B0000
0E0000
0E0000
1D0000
2C0000
2C0000
380000
740000
740000
B00000
F00000
E00000
ENDCHAR
STARTCHAR uni0394
ENCODING 916
SWIDTH 558 0
DWIDTH 11 0
BBX 11 14 -1 0
BITMAP
0002D0
0003E0
000BA0
001DA0
002CB0
0078B0
00B070
01D074
03C074
074034
0E0038
2D0038
3D5578
7FFFF8
ENDCHAR
STARTCHAR Epsilon
ENCODING 917
SWIDTH 511 0
DWIDTH 10 0
BBX 10 14 1 0
BITMAP
07FFF0
07AA90
0B0000
0E0000
0E0000
1D0000
2FFF40
2D5500
380000
740000
740000
B00000
F55400
FFFC00
ENDCHAR
STARTCHAR Zeta
ENCODING 918
SWIDTH 530 0
DWIDTH 11 0
BBX 12 14 0 0
BITMAP
03FFFD
02AABC
0000B4
0001D0
000780
000E00
003C00
00B400
02D000
078000
1E0000
3C0000
BAAA40
FFFF80
ENDCHAR
STARTCHAR Eta
ENCODING 919
SWIDTH 678 0
DWIDTH 14 0
BBX 13 14 1 0
BITMAP
07400380
07400740
0B000B00
0E000B00
0E000E00
1D001D00
2FFFFD00
2D557C00
38003800
74003800
74007400
B000B000
E000B000
E000E000
ENDCHAR
STARTCHAR Theta
ENCODING 920
SWIDTH 720 0
DWIDTH 14 0
BBX 13 14 1 0
BITMAP
006FE400
01FABD00
07800F00
1E000780
2D000380
38000380
74FFD380
74554780
B4000B40
74000F00
78002E00
3D007C00
1F9BE000
02FE4000
ENDCHAR
STARTCHAR Iota
ENCODING 921
SWIDTH 272 0
DWIDTH 5 0
BBX 5 14 1 0
BITMAP
0740
0740
0B00
0E00
0E00
1D00
2C00
2C00
3800
7400
7400
B000
E000
E000
ENDCHAR
STARTCHAR Kappa
ENCODING 922
SWIDTH 557 0
DWIDTH 11 0
BBX 12 14 1 0
BITMAP
07402D
0740B4
0B02D0
0E0B40
0E2D00
1DB400
2EF000
2EB400
383800
742C00
741E00
B00B00
E00740
E003C0
ENDCHAR
STARTCHAR Lambda
ENCODING 923
SWIDTH 558 0
DWIDTH 11 0
BBX 12 14 -1 0
BITMAP
0002D0
0003E0
000BA0
001DB0
002CB0
007470
00E074
02D074
038038
0B4038
1E0028
2C002C
78002C
F0001D
ENDCHAR
STARTCHAR Mu
ENCODING 924
SWIDTH 836 0
DWIDTH 17 0
BBX 16 14 1 0
BITMAP
07D0003E
07D000BD
0AE001ED
0EA002AC
0DA0076C
1DB00E38
2C701C74
28703874
3834B0B0
7434D0E0
703AC0E0
B02F41D0
E02E02C0
E01D02C0
ENDCHAR
STARTCHAR Nu
ENCODING 925
SWIDTH 702 0
DWIDTH 14 0
BBX 13 14 1 0
BITMAP
078002C0
07D00280
0BE00380
0EB00740
0D740740
1D380B00
2C2C0E00
280D0E00
380B1D00
74076C00
7003AC00
B002F800
E001F400
E000F400
ENDCHAR
STARTCHAR Xi
ENCODING 926
SWIDTH 517 0
DWIDTH 10 0
BBX 11 14 0 0
BITMAP
03FFFC
02AAA4
000000
000000
000000
000000
07FFC0
055540
000000
000000
000000
000000
555540
FFFF80
ENDCHAR
STARTCHAR Omicron
ENCODING 927
SWIDTH 720 0
DWIDTH 14 0
BBX 13 14 1 0
BITMAP
006FE400
01FABD00
07800F00
1E000780
2D000380
38000380
74000380
74000780
B4000B40
74000F00
78002E00
3D007C00
1F9BE000
02FE4000
ENDCHAR
STARTCHAR Pi
ENCODING 928
SWIDTH 679 0
DWIDTH 14 0
BBX 13 14 1 0
BITMAP
07FFFF80
07955B40
0B000B00
0E000B00
0E000E00
1D001E00
2C001D00
2C002C00
38003C00
74003800
74007400
B0007400
E000B000
E000E000
ENDCHAR
STARTCHAR Rho
ENCODING 929
SWIDTH 565 0
DWIDTH 11 0
BBX 11 14 1 0
BITMAP
07FF80
079AE0
0B00B4
0E0074
0E00B4
1D00F0
2C07D0
2FFF40
395000
740000
740000
B00000
E00000
E00000
ENDCHAR
STARTCHAR Sigma
ENCODING 931
SWIDTH 520 0
DWIDTH 10 0
BBX 12 14 -1 0
BITMAP
01FFFF
01EAA9
00E000
007400
003800
001D00
000E00
001D00
007400
01E000
078000
0E0000
2E5550
7FFFF0
ENDCHAR
STARTCHAR Tau
ENCODING 932
SWIDTH 498 0
DWIDTH 10 0
BBX 10 14 2 0
BITMAP
FFFFE0
56E550
01D000
02C000
038000
038000
074000
0B4000
0B0000
0E0000
1E0000
1D0000
2C0000
2C0000
ENDCHAR
STARTCHAR Upsilon
ENCODING 933
SWIDTH 502 0
DWIDTH 10 0
BBX 10 14 2 0
BITMAP
E001E0
B00380
700B40
741D00
383800
2CB000
1DD000
1F8000
0F0000
0E0000
1D0000
1D0000
2C0000
380000
ENDCHAR
STARTCHAR Phi
ENCODING 934
SWIDTH 744 0
DWIDTH 15 0
BBX 14 14 1 0
BITMAP
0002C000
0002C000
01AFF900
0BEBAF40
1E0743C0
380B02D0
740F01D0
740E02C0
B41D03C0
782D0B40
3D2C6E00
0BFFF400
00790000
00740000
ENDCHAR
STARTCHAR Chi
ENCODING 935
SWIDTH 519 0
DWIDTH 10 0
BBX 13 14 -1 0
BITMAP
02C00780
01D00E00
00B02C00
0074B400
0039D000
002F8000
001E0000
003F0000
00B74000
01D38000
0742C000
0E01D000
2C00E000
B400B000
ENDCHAR
STARTCHAR Psi
ENCODING 936
SWIDTH 734 0
DWIDTH 15 0
BBX 14 14 2 0
BITMAP
380B01E0
740F01D0
B40E02C0
B01D03C0
E02C0380
E02C0740
E0380F00
B8787D00
2FFFF400
01B54000
00F00000
00E00000
01D00000
01D00000
ENDCHAR
STARTCHAR uni03A9
ENCODING 937
SWIDTH 732 0
DWIDTH 15 0
BBX 14 14 0 0
BITMAP
001BF900
00BEAF40
02E002D0
078001E0
0B0000E0
0E0000F0
1D0000E0
1D0001E0
1D0002D0
0E000380
0B000F00
07403800
57D1F940
FFD3FFC0
ENDCHAR
STARTCHAR Iotadieresis
ENCODING 938
SWIDTH 272 0
DWIDTH 5 0
BBX 7 18 1 0
BITMAP
1C28
1C28
0000
0000
0740
0740
0B00
0E00
0E00
1D00
2C00
2C00
3800
7400
7400
B000
E000
E000
ENDCHAR
STARTCHAR Upsilondieresis
ENCODING 939
SWIDTH 502 0
DWIDTH 10 0
BBX 10 18 2 0
BITMAP
070A00
070900
000000
000000
E001E0
B00380
700B40
741D00
383800
2CB000
1DD000
1F8000
0F0000
0E0000
1D0000
1D0000
2C0000
380000
ENDCHAR
STARTCHAR alphatonos
ENCODING 940
SWIDTH 568 0
DWIDTH 11 0
BBX 10 16 1 0
BITMAP
000780
000B00
001D00
002800
000000
02F870
0F9AA0
2D03D0
7802D0
B002C0
F00380
E00740
E00B40
E02F00
B9AB40
2F87D0
ENDCHAR
STARTCHAR epsilontonos
ENCODING 941
SWIDTH 444 0
DWIDTH 9 0
BBX 9 16 0 0
BITMAP
000380
000740
000E00
001800
000000
01BE40
079680
0E0000
0E0000
0B4000
03F800
1E5400
740000
740000
3D6A00
1BF900
ENDCHAR
STARTCHAR etatonos
ENCODING 942
SWIDTH 577 0
DWIDTH 12 0
BBX 11 21 0 -5
BITMAP
0001E0
0002C0
000740
000A00
000000
075BD0
0779B0
0BC074
0F4074
0E00B0
1D00B0
1C00E0
2C00E0
3801D0
3802C0
7402C0
000380
000740
000740
000B00
000A00
ENDCHAR
STARTCHAR iotatonos
ENCODING 943
SWIDTH 305 0
DWIDTH 6 0
BBX 6 16 1 0
BITMAP
01E0
02C0
0740
0A00
0000
1D00
2C00
2C00
3800
7400
7400
B000
A000
E000
F500
7F00
ENDCHAR
STARTCHAR upsilondieresistonos
ENCODING 944
SWIDTH 576 0
DWIDTH 12 0
BBX 10 17 1 0
BITMAP
000740
000E00
02AA80
028280
000000
000000
1D00E0
2C00E0
2800E0
3800E0
7401D0
7401D0
B002C0
B00380
B00B00
3D6D00
1BE400
ENDCHAR
STARTCHAR alpha
ENCODING 945
SWIDTH 568 0
DWIDTH 11 0
BBX 10 11 1 0
BITMAP
02F870
0F9AA0
2D03D0
7802D0
B002C0
F00380
E00740
E00B40
E02F00
B9AB40
2F87D0
ENDCHAR
STARTCHAR beta
ENCODING 946
SWIDTH 577 0
DWIDTH 12 0
BBX 12 20 -1 -5
BITMAP
0007F8
002E6E
00740B
00A007
00E00B
01D06D
02CBE0
02C5B4
03802C
07401D
07401D
0B002C
0E0038
0F96F4
1DBF80
1C0000
2C0000
380000
380000
740000
ENDCHAR
STARTCHAR gamma
ENCODING 947
SWIDTH 458 0
DWIDTH 9 0
BBX 9 16 1 -5
BITMAP
E003C0
A00740
B00E00
B01D00
743800
747400
34E000
39D000
2A8000
2F0000
1E0000
2C0000
380000
740000
B00000
E00000
ENDCHAR
STARTCHAR delta
ENCODING 948
SWIDTH 553 0
DWIDTH 11 0
BBX 11 15 0 0
BITMAP
001BE4
0079B8
00A000
00E000
00B400
002E00
006F80
07D2D0
1E00E0
3800E0
7400E0
7400E0
3802C0
2E5B40
06F900
ENDCHAR
STARTCHAR epsilon
ENCODING 949
SWIDTH 444 0
DWIDTH 9 0
BBX 9 11 0 0
BITMAP
01BE40
079680
0E0000
0E0000
0B4000
03F800
1E5400
740000
740000
3D6A00
1BF900
ENDCHAR
STARTCHAR zeta
ENCODING 950
SWIDTH 453 0
DWIDTH 9 0
BBX 10 19 1 -4
BITMAP
03FFD0
0157C0
001E00
007800
01E000
078000
0E0000
2C0000
740000
B00000
E00000
E00000
F00000
7D0000
1FD000
01F000
007000
00A000
02C000
ENDCHAR
STARTCHAR eta
ENCODING 951
SWIDTH 577 0
DWIDTH 12 0
BBX 11 16 0 -5
BITMAP
075BD0
0779B0
0BC074
0F4074
0E00B0
1D00B0
1C00E0
2C00E0
3801D0
3802C0
7402C0
000380
000740
000740
000B00
000A00
ENDCHAR
STARTCHAR theta
ENCODING 952
SWIDTH 542 0
DWIDTH 11 0
BBX 10 15 1 0
BITMAP
00BE40
03E7C0
0B01D0
1D01D0
2C01D0
3801D0
7401D0
BFFFC0
B55780
E00380
E00740
E00A00
E01D00
B9B400
2F9000
ENDCHAR
STARTCHAR iota
ENCODING 953
SWIDTH 305 0
DWIDTH 6 0
BBX 4 11 1 0
BITMAP
1D
2C
2C
38
74
74
B0
A0
E0
F5
7F
ENDCHAR
STARTCHAR kappa
ENCODING 954
SWIDTH 487 0
DWIDTH 10 0
BBX 10 11 0 0
BITMAP
0741E0
070380
0B0E00
0E3800
0EF000
1FF000
2E7800
2C2C00
381D00
380F00
740740
ENDCHAR
STARTCHAR lambda
ENCODING 955
SWIDTH 482 0
DWIDTH 10 0
BBX 10 15 -1 0
BITMAP
02F400
017C00
001D00
001D00
000D00
002E00
003E00
00AA00
01DB00
038B00
070700
0E0740
2C0740
740390
B002E0
ENDCHAR
STARTCHAR uni03BC
ENCODING 956
SWIDTH 583 0
DWIDTH 12 0
BBX 12 16 -1 -5
BITMAP
01D00B
01D00E
02C00E
03801D
03802C
07402C
070038
0B00B4
0F01F4
0F9A70
1DF8B0
2C0000
2C0000
380000
340000
740000
ENDCHAR
STARTCHAR nu
ENCODING 957
SWIDTH 488 0
DWIDTH 10 0
BBX 9 11 1 0
BITMAP
E002C0
E00380
B00740
B00B00
B00E00
741D00
743800
34B000
35D000
3F4000
2E0000
ENDCHAR
STARTCHAR xi
ENCODING 958
SWIDTH 444 0
DWIDTH 9 0
BBX 9 19 1 -4
BITMAP
07FF80
02F940
078000
0E0000
0E0000
0B4000
02FD00
1B9400
780000
F00000
E00000
E00000
E00000
790000
1B8000
01E000
00B000
00E000
028000
ENDCHAR
STARTCHAR omicron
ENCODING 959
SWIDTH 561 0
DWIDTH 11 0
BBX 10 11 1 0
BITMAP
02FD00
0F9B40
2C02C0
7401D0
B001D0
E002C0
E002C0
E00380
B00B00
7D6D00
1BE400
ENDCHAR
STARTCHAR pi
ENCODING 960
SWIDTH 600 0
DWIDTH 12 0
BBX 12 11 1 0
BITMAP
7FFFFD
6E56D4
1D02C0
2C0380
2C0740
380740
380B00
740A00
B00E00
B00E40
E00BC0
ENDCHAR
STARTCHAR rho
ENCODING 961
SWIDTH 570 0
DWIDTH 11 0
BBX 12 16 -1 -5
BITMAP
001FE0
00B9B8
01D02D
02C01D
03801D
07401D
07002C
0B0038
0E00B4
0F96E0
1DBE40
1C0000
2C0000
380000
340000
740000
ENDCHAR
STARTCHAR sigma1
ENCODING 962
SWIDTH 453 0
DWIDTH 9 0
BBX 8 15 1 -4
BITMAP
02FE
0F9A
2D00
7400
B000
E000
E000
E000
B400
7E00
0BD0
00B0
0070
00E0
02C0
ENDCHAR
STARTCHAR sigma
ENCODING 963
SWIDTH 581 0
DWIDTH 12 0
BBX 11 11 1 0
BITMAP
02FFF8
1F9B94
3C0380
B40280
B002C0
E002C0
E00380
E00340
B00B00
7D6D00
1BE400
ENDCHAR
STARTCHAR tau
ENCODING 964
SWIDTH 417 0
DWIDTH 8 0
BBX 8 11 1 0
BITMAP
7FFF
5B95
0740
0B00
0E00
0E00
1D00
1D00
2C00
1E50
0BD0
ENDCHAR
STARTCHAR upsilon
ENCODING 965
SWIDTH 576 0
DWIDTH 12 0
BBX 10 11 1 0
BITMAP
1D00E0
2C00E0
2800E0
3800E0
7401D0
7401D0
B002C0
B00380
B00B00
3D6D00
1BE400
ENDCHAR
STARTCHAR phi
ENCODING 966
SWIDTH 669 0
DWIDTH 13 0
BBX 12 16 1 -5
BITMAP
0606E4
0E0E7C
2C2C1D
742C1D
B0381D
E0741D
E0742C
E0B078
B0E0F0
7DEBC0
1BF900
02C000
02C000
038000
038000
074000
ENDCHAR
STARTCHAR chi
ENCODING 967
SWIDTH 502 0
DWIDTH 10 0
BBX 13 16 -2 -5
BITMAP
02E00740
01B40E00
00382C00
00287400
002CE000
002EC000
001F4000
001E0000
003D0000
00BE0000
01DA0000
038A0000
0B0B0000
1D070000
78079000
F002F000
ENDCHAR
STARTCHAR psi
ENCODING 968
SWIDTH 713 0
DWIDTH 14 0
BBX 13 20 1 -5
BITMAP
0002C000
00038000
00034000
00074000
1D0B0740
2C0A0740
280E0740
381D0740
741D0B00
742C0B00
B0380E00
B0382D00
74747800
2EBAE000
0BFE4000
00E00000
00D00000
01D00000
02C00000
02C00000
ENDCHAR
STARTCHAR omega
ENCODING 969
SWIDTH 729 0
DWIDTH 15 0
BBX 13 11 1 0
BITMAP
0B000740
1D000380
3C000380
74000380
B01D0380
F02C0740
E02C0740
E0380B00
E0781D00
B9EEB800
2F4BE000
ENDCHAR
STARTCHAR iotadieresis
ENCODING 970
SWIDTH 305 0
DWIDTH 6 0
BBX 6 15 1 0
BITMAP
70A0
60D0
0000
0000
1D00
2C00
2C00
3800
7400
7400
B000
A000
E000
F500
7F00
ENDCHAR
STARTCHAR upsilondieresis
ENCODING 971
SWIDTH 576 0
DWIDTH 12 0
BBX 10 15 1 0
BITMAP
01C280
01C340
000000
000000
1D00E0
2C00E0
2800E0
3800E0
7401D0
7401D0
B002C0
B00380
B00B00
3D6D00
1BE400
ENDCHAR
STARTCHAR omicrontonos
ENCODING 972
SWIDTH 561 0
DWIDTH 11 0
BBX 10 16 1 0
BITMAP
000740
000B00
001D00
002800
000000
02FD00
0F9B40
2C02C0
7401D0
B001D0
E002C0
E002C0
E00380
B00B00
7D6D00
1BE400
ENDCHAR
STARTCHAR upsilontonos
ENCODING 973
SWIDTH 576 0
DWIDTH 12 0
BBX 10 16 1 0
BITMAP
000B40
000E00
001C00
003400
000000
1D00E0
2C00E0
2800E0
3800E0
7401D0
7401D0
B002C0
B00380
B00B00
3D6D00
1BE400
ENDCHAR
STARTCHAR omegatonos
ENCODING 974
SWIDTH 729 0
DWIDTH 15 0
BBX 13 16 1 0
BITMAP
0000B400
0000E000
0002C000
00034000
00000000
0B000740
1D000380
3C000380
74000380
B01D0380
F02C0740
E02C0740
E0380B00
E0781D00
B9EEB800
2F4BE000
ENDCHAR
STARTCHAR uni03D1
ENCODING 977
SWIDTH 569 0
DWIDTH 11 0
BBX 12 15 0 0
BITMAP
002F80
00B6E0
01D0B0
01D074
01D074
00F474
002FFE
7D00B4
5E00B0
1D00E0
2C01D0
3802C0
380B40
3D6D00
1BE400
ENDCHAR
STARTCHAR uni03D2
ENCODING 978
SWIDTH 509 0
DWIDTH 10 0
BBX 10 14 2 0
BITMAP
E001F0
B00790
700E00
742D00
387400
2CB000
1DD000
1F8000
0F0000
0E0000
1D0000
1D0000
2C0000
380000
ENDCHAR
STARTCHAR uni03D6
ENCODING 982
SWIDTH 791 0
DWIDTH 16 0
BBX 16 11 1 0
BITMAP
6FFFFFFD
5B9557D4
0E0002C0
2D0002C0
380002C0
740E02C0
741D0380
741D0740
743D0F00
3DAA6D00
1F82E400
ENDCHAR
STARTCHAR uni0400
ENCODING 1024
SWIDTH 511 0
DWIDTH 10 0
BBX 10 18 1 0
BITMAP
007800
002C00
000A00
000000
07FFF0
07AA90
0B0000
0E0000
0E0000
1D0000
2FFF40
2D5500
380000
740000
740000
B00000
F55400
FFFC00
ENDCHAR
STARTCHAR afii10023
ENCODING 1025
SWIDTH 511 0
DWIDTH 10 0
BBX 10 18 1 0
BITMAP
00A0D0
00A1D0
000000
000000
07FFF0
07AA90
0B0000
0E0000
0E0000
1D0000
2FFF40
2D5500
380000
740000
740000
B00000
F55400
FFFC00
ENDCHAR
STARTCHAR afii10051
ENCODING 1026
SWIDTH 666 0
DWIDTH 13 0
BBX 10 14 2 0
BITMAP
FFFFC0
5B9540
074000
070000
0B0000
0FFF40
0E5AE0
1D00E0
2C00B0
2800E0
3800E0
7401D0
746B80
B07E00
ENDCHAR
STARTCHAR afii10052
ENCODING 1027
SWIDTH 476 0
DWIDTH 10 0
BBX 10 18 1 0
BITMAP
0002D0
000740
001D00
000000
07FFF0
07AA90
0B0000
0E0000
0E0000
1D0000
2C0000
2C0000
380000
740000
740000
B00000
F00000
E00000
ENDCHAR
STARTCHAR afii10053
ENCODING 1028
SWIDTH 584 0
DWIDTH 12 0
BBX 12 14 1 0
BITMAP
001BF9
01FAAD
07D000
0F0000
2D0000
3C0000
7FFF80
795540
B40000
740000
780000
3D0000
1FAAC0
06FE80
ENDCHAR
STARTCHAR afii10054
ENCODING 1029
SWIDTH 501 0
DWIDTH 10 0
BBX 10 14 0 0
BITMAP
00BF90
03EAB0
0B4000
0F0000
0B0000
078000
02F400
006E00
000B80
0003C0
0003C0
000780
B9AF00
6FE400
ENDCHAR
STARTCHAR afii10055
ENCODING 1030
SWIDTH 272 0
DWIDTH 5 0
BBX 5 14 1 0
BITMAP
0740
0740
0B00
0E00
0E00
1D00
2C00
2C00
3800
7400
7400
B000
E000
E000
ENDCHAR
STARTCHAR afii10056
ENCODING 1031
SWIDTH 272 0
DWIDTH 5 0
BBX 7 18 1 0
BITMAP
1C28
1C28
0000
0000
0740
0740
0B00
0E00
0E00
1D00
2C00
2C00
3800
7400
7400
B000
E000
E000
ENDCHAR
STARTCHAR afii10057
ENCODING 1032
SWIDTH 267 0
DWIDTH 5 0
BBX 9 18 -3 -4
BITMAP
000740
000740
000B00
000E00
000E00
001D00
002C00
002C00
003800
003800
007400
00B000
00B000
00E000
01D000
02C000
AB8000
F90000
ENDCHAR
STARTCHAR afii10058
ENCODING 1033
SWIDTH 889 0
DWIDTH 18 0
BBX 18 14 -1 0
BITMAP
0003FFD000
0007AAD000
000B02C000
000E038000
001D038000
002C074000
00380BFE40
00780B5BC0
00B40E01D0
00F01D00E0
01E01D01D0
02C02C02C0
6B403D6F40
BD003FF900
ENDCHAR
STARTCHAR afii10059
ENCODING 1034
SWIDTH 901 0
DWIDTH 18 0
BBX 16 14 1 0
BITMAP
07400E00
07401D00
0B001D00
0E002C00
0E003800
1D003800
2FFFFFE4
2D55B9BD
3800B00E
7400E00F
7400E00E
B001D02D
E002D6B8
E002FF90
ENDCHAR
STARTCHAR afii10060
ENCODING 1035
SWIDTH 666 0
DWIDTH 13 0
BBX 10 14 2 0
BITMAP
FFFFC0
5B9540
074000
070000
0B0000
0FFF80
0E5AE0
1D00E0
2C00B0
2800E0
3800E0
7401D0
7402C0
B002C0
ENDCHAR
STARTCHAR afii10061
ENCODING 1036
SWIDTH 559 0
DWIDTH 11 0
BBX 12 18 1 0
BITMAP
0000F0
000280
000A00
000000
07402D
0740B4
0B02D0
0E0B40
0E2D00
1DB400
2ED000
2EC000
38E000
747400
742C00
B00E00
E00740
E002C0
ENDCHAR
STARTCHAR uni040D
ENCODING 1037
SWIDTH 696 0
DWIDTH 14 0
BBX 13 18 1 0
BITMAP
001E0000
000B0000
00028000
00000000
074007C0
07000F80
0B003B80
0E00B740
0D01DB00
1D074B00
2C0E0E00
2C280D00
38B01D00
75D02C00
77802800
BE003800
FC007400
F4007000
ENDCHAR
STARTCHAR afii10062
ENCODING 1038
SWIDTH 571 0
DWIDTH 11 0
BBX 13 18 0 0
BITMAP
00700D00
00796C00
001FE000
00000000
0B0003C0
07400B40
03401E00
02802C00
02C07400
01D0E000
00E2C000
00B34000
007A0000
003D0000
00780000
01E00000
ABC00000
FE000000
ENDCHAR
STARTCHAR afii10145
ENCODING 1039
SWIDTH 679 0
DWIDTH 14 0
BBX 13 18 1 -4
BITMAP
07400380
07400740
0B000B00
0E000B00
0E000E00
1D001E00
2C001D00
2C002C00
38003C00
74003800
74007400
B0007400
F555B000
FFFFE000
00D00000
01D00000
02C00000
02C00000
ENDCHAR
STARTCHAR afii10017
ENCODING 1040
SWIDTH 555 0
DWIDTH 11 0
BBX 11 14 -1 0
BITMAP
0002D0
0007E0
000AA0
001DA0
0038B0
0074B0
00E074
02D074
03FFF4
0BAAB8
1E0038
2C002C
78002C
F0002C
ENDCHAR
STARTCHAR afii10018
ENCODING 1041
SWIDTH 563 0
DWIDTH 11 0
BBX 10 14 1 0
BITMAP
07FFF0
07AA90
0B0000
0E0000
0E0000
1D0000
2FF900
2D6F80
3803C0
3802C0
7402C0
B00780
B5AE00
FFE400
ENDCHAR
STARTCHAR afii10019
ENCODING 1042
SWIDTH 598 0
DWIDTH 12 0
BBX 11 14 1 0
BITMAP
07FF90
0796F4
0B0078
0E0038
0E0074
1D01E0
2FFF40
2D5B80
3801E0
7400E0
7400E0
B002D0
F56F80
FFF900
ENDCHAR
STARTCHAR afii10020
ENCODING 1043
SWIDTH 476 0
DWIDTH 10 0
BBX 10 14 1 0
BITMAP
07FFF0
07AA90
0B0000
0E0000
0E0000
1D0000
2C0000
2C0000
380000
740000
740000
B00000
F00000
E00000
ENDCHAR
STARTCHAR afii10021
ENCODING 1044
SWIDTH 621 0
DWIDTH 12 0
BBX 15 18 -2 -4
BITMAP
00007FF4
0000BAF0
0001E0E0
0002C0E0
000381D0
000742C0
000E02C0
001D0380
00380740
00B40740
01E00B00
03C00F00
1BAAAF90
2FFFFFD0
380002C0
34000280
74000380
B0000740
ENDCHAR
STARTCHAR afii10022
ENCODING 1045
SWIDTH 511 0
DWIDTH 10 0
BBX 10 14 1 0
BITMAP
07FFF0
07AA90
0B0000
0E0000
0E0000
1D0000
2FFF40
2D5500
380000
740000
740000
B00000
F55400
FFFC00
ENDCHAR
STARTCHAR afii10024
ENCODING 1046
SWIDTH 775 0
DWIDTH 16 0
BBX 18 14 -1 0
BITMAP
02D01D01E0
00E01D03C0
00B42C0F00
0038383C00
001D38B400
000F76D000
0007BB4000
000FBB0000
003CE78000
00B4D2C000
02D1D1E000
0B42C0B000
2D02C07800
B803802D00
ENDCHAR
STARTCHAR afii10025
ENCODING 1047
SWIDTH 532 0
DWIDTH 11 0
BBX 11 14 0 0
BITMAP
01BF80
07A6F0
0100B4
000074
0000B0
0006D0
07FD00
055B40
0002D0
0001D0
0001D0
0003C0
E96F40
6FE800
ENDCHAR
STARTCHAR afii10026
ENCODING 1048
SWIDTH 696 0
DWIDTH 14 0
BBX 13 14 1 0
BITMAP
074007C0
07000F80
0B003B80
0E00B740
0D01DB00
1D074B00
2C0E0E00
2C280D00
38B01D00
75D02C00
77802800
BE003800
FC007400
F4007000
ENDCHAR
STARTCHAR afii10027
ENCODING 1049
SWIDTH 696 0
DWIDTH 14 0
BBX 13 18 1 0
BITMAP
00740E00
00396D00
001BE400
00000000
074007C0
07000F80
0B003B80
0E00B740
0D01DB00
1D074B00
2C0E0E00
2C280D00
38B01D00
75D02C00
77802800
BE003800
FC007400
F4007000
ENDCHAR
STARTCHAR afii10028
ENCODING 1050
SWIDTH 559 0
DWIDTH 11 0
BBX 12 14 1 0
BITMAP
07402D
0740B4
0B02D0
0E0B40
0E2D00
1DB400
2ED000
2EC000
38E000
747400
742C00
B00E00
E00740
E002C0
ENDCHAR
STARTCHAR afii10029
ENCODING 1051
SWIDTH 644 0
DWIDTH 13 0
BBX 14 14 -1 0
BITMAP
0003FFF0
0007AAE0
000B01D0
000E01D0
001D02C0
002C0380
00380380
00780740
00B40B00
00F00B00
01E00E00
02C01D00
6B401D00
BD002C00
ENDCHAR
STARTCHAR afii10030
ENCODING 1052
SWIDTH 836 0
DWIDTH 17 0
BBX 16 14 1 0
BITMAP
07D0003E
07D000BD
0AE001ED
0EA002AC
0DA0076C
1DB00E38
2C701C74
28703874
3834B0B0
7434D0E0
703AC0E0
B02F41D0
E02E02C0
E01D02C0
ENDCHAR
STARTCHAR afii10031
ENCODING 1053
SWIDTH 678 0
DWIDTH 14 0
BBX 13 14 1 0
BITMAP
07400380
07400740
0B000B00
0E000B00
0E000E00
1D001D00
2FFFFD00
2D557C00
38003800
74003800
74007400
B000B000
E000B000
E000E000
ENDCHAR
STARTCHAR afii10032
ENCODING 1054
SWIDTH 720 0
DWIDTH 14 0
BBX 13 14 1 0
BITMAP
006FE400
01FABD00
07800F00
1E000780
2D000380
38000380
74000380
74000780
B4000B40
74000F00
78002E00
3D007C00
1F9BE000
02FE4000
ENDCHAR
STARTCHAR afii10033
ENCODING 1055
SWIDTH 679 0
DWIDTH 14 0
BBX 13 14 1 0
BITMAP
07FFFF80
07955B40
0B000B00
0E000B00
0E000E00
1D001E00
2C001D00
2C002C00
38003C00
74003800
74007400
B0007400
E000B000
E000E000
ENDCHAR
STARTCHAR afii10034
ENCODING 1056
SWIDTH 565 0
DWIDTH 11 0
BBX 11 14 1 0
BITMAP
07FF80
079AE0
0B00B4
0E0074
0E00B4
1D00F0
2C07D0
2FFF40
395000
740000
740000
B00000
E00000
E00000
ENDCHAR
STARTCHAR afii10035
ENCODING 1057
SWIDTH 584 0
DWIDTH 12 0
BBX 12 14 1 0
BITMAP
001BF9
01FAAD
07D000
0F0000
2D0000
3C0000
780000
740000
B40000
740000
780000
3D0000
1F9AC0
06FE80
ENDCHAR
STARTCHAR afii10036
ENCODING 1058
SWIDTH 498 0
DWIDTH 10 0
BBX 10 14 2 0
BITMAP
FFFFE0
56E550
01D000
02C000
038000
038000
074000
0B4000
0B0000
0E0000
1E0000
1D0000
2C0000
2C0000
ENDCHAR
STARTCHAR afii10037
ENCODING 1059
SWIDTH 571 0
DWIDTH 11 0
BBX 13 14 0 0
BITMAP
0B0003C0
07400B40
03401E00
02802C00
02C07400
01D0E000
00E2C000
00B34000
007A0000
003D0000
00780000
01E00000
ABC00000
FE000000
ENDCHAR
STARTCHAR afii10038
ENCODING 1060
SWIDTH 744 0
DWIDTH 15 0
BBX 14 14 1 0
BITMAP
0002C000
0002C000
01AFF900
0BEBAF40
1E0743C0
380B02D0
740F01D0
740E02C0
B41D03C0
782D0B40
3D2C6E00
0BFFF400
00790000
00740000
ENDCHAR
STARTCHAR afii10039
ENCODING 1061
SWIDTH 519 0
DWIDTH 10 0
BBX 13 14 -1 0
BITMAP
02C00780
01D00E00
00B02C00
0074B400
0039D000
002F8000
001E0000
003F0000
00B74000
01D38000
0742C000
0E01D000
2C00E000
B400B000
ENDCHAR
STARTCHAR afii10040
ENCODING 1062
SWIDTH 665 0
DWIDTH 13 0
BBX 13 18 1 -4
BITMAP
07400740
07400B00
0B000E00
0E000E00
0E001D00
1D002D00
2C002C00
2C003800
38003800
74007400
7400B000
B000B000
FAAAF800
FFFFFC00
00002C00
00003800
00003400
00007400
ENDCHAR
STARTCHAR afii10041
ENCODING 1063
SWIDTH 639 0
DWIDTH 13 0
BBX 11 14 2 0
BITMAP
1D0038
2C0038
2C0074
3800B0
7400B0
7400E0
B400D0
7816D0
3FFFC0
055280
000380
000740
000740
000B00
ENDCHAR
STARTCHAR afii10042
ENCODING 1064
SWIDTH 955 0
DWIDTH 19 0
BBX 18 14 1 0
BITMAP
07401D00B0
07402C00B0
0B003800E0
0E003801D0
0E007401D0
1D007402C0
2C00B00380
2C00E00380
3800E00740
7401D00B00
7402C00B00
B002C00E00
FAABEAAE00
FFFFFFFD00
ENDCHAR
STARTCHAR afii10043
ENCODING 1065
SWIDTH 957 0
DWIDTH 19 0
BBX 18 18 1 -4
BITMAP
07401D00B0
07402C00B0
0B003800E0
0E003801D0
0E007401D0
1D007402C0
2C00B00380
2C00E00380
3800E00740
7401D00B00
7402C00B00
B002C00E00
FAABEAAE80
FFFFFFFFC0
0000000380
0000000380
0000000740
0000000700
ENDCHAR
STARTCHAR afii10044
ENCODING 1066
SWIDTH 625 0
DWIDTH 13 0
BBX 10 14 2 0
BITMAP
FFC000
5B8000
074000
074000
0B0000
0E0000
0FFE00
1E6B80
2C02D0
2C01D0
3802D0
7403C0
796F40
BFE800
ENDCHAR
STARTCHAR afii10045
ENCODING 1067
SWIDTH 786 0
DWIDTH 16 0
BBX 15 14 1 0
BITMAP
07400038
07400078
0B000074
0E0000B0
0E0000B0
1D0000E0
2FF901D0
2D6F41D0
380382C0
7403C380
74038380
B00B4740
F5AE0B00
FFE40B00
ENDCHAR
STARTCHAR afii10046
ENCODING 1068
SWIDTH 554 0
DWIDTH 11 0
BBX 9 14 1 0
BITMAP
074000
074000
0B0000
0E0000
0E0000
1D0000
2FF900
2D6F40
380380
7403C0
740380
B00B40
F5AE00
FFE400
ENDCHAR
STARTCHAR afii10047
ENCODING 1069
SWIDTH 584 0
DWIDTH 12 0
BBX 11 14 0 0
BITMAP
06FE40
07ABE0
0000B8
00003C
00002C
00002C
02FFFC
01557C
000038
0000B4
0000E0
4007D0
B9AF40
6FE400
ENDCHAR
STARTCHAR afii10048
ENCODING 1070
SWIDTH 979 0
DWIDTH 20 0
BBX 18 14 1 0
BITMAP
074006F900
07403EAF80
0B00F402D0
0E02D001E0
0E078000F0
1D0B4000F0
2FFF0000F0
2D5F0000E0
380F0001E0
740F0002D0
740B000780
B007801F40
E002FABD00
E0006FE000
ENDCHAR
STARTCHAR afii10049
ENCODING 1071
SWIDTH 568 0
DWIDTH 11 0
BBX 13 14 -1 0
BITMAP
001BFF40
007E5B00
00E00B00
01D00E00
02C00E00
01D01D00
00F42C00
007FFC00
00797800
00F07400
03C07400
0B40B000
2D00E000
7800E000
ENDCHAR
STARTCHAR afii10065
ENCODING 1072
SWIDTH 564 0
DWIDTH 11 0
BBX 10 11 1 0
BITMAP
02F870
0F9AA0
2D03D0
7802D0
B002C0
F00380
E00780
E00B40
E02F40
B9AB00
2F8A00
ENDCHAR
STARTCHAR afii10066
ENCODING 1073
SWIDTH 541 0
DWIDTH 11 0
BBX 11 15 1 0
BITMAP
0006B4
01BE90
079000
0E0000
2C0000
39BD00
7B9B40
B80380
B00380
E00380
E00380
E00740
B00F00
7D7D00
1BE400
ENDCHAR
STARTCHAR afii10067
ENCODING 1074
SWIDTH 538 0
DWIDTH 11 0
BBX 9 11 1 0
BITMAP
02FE00
1F9BC0
3C02C0
7402C0
B00B40
FFFD00
E55F00
E00740
B00740
7D6F00
1BF800
ENDCHAR
STARTCHAR afii10068
ENCODING 1075
SWIDTH 457 0
DWIDTH 9 0
BBX 9 11 0 0
BITMAP
06FD00
0A5B40
000380
000B40
006D00
07E400
2D0000
740000
740000
3D6D00
1BE800
ENDCHAR
STARTCHAR afii10069
ENCODING 1076
SWIDTH 562 0
DWIDTH 11 0
BBX 10 15 1 0
BITMAP
02FD00
025B40
0003C0
0001D0
0001D0
06F9D0
1F5BD0
3C03D0
7402D0
B002C0
E00380
E00B40
F01E00
79B800
1FE000
ENDCHAR
STARTCHAR afii10070
ENCODING 1077
SWIDTH 493 0
DWIDTH 10 0
BBX 9 11 1 0
BITMAP
02F900
0F9F00
2D0740
780B00
B06E00
FFF400
E50000
E00000
B00000
7D6C00
1BE400
ENDCHAR
STARTCHAR afii10072
ENCODING 1078
SWIDTH 833 0
DWIDTH 17 0
BBX 18 11 -1 0
BITMAP
07E01D06F0
05B81C1E50
002C283800
002C38B000
001D34E000
002FFFD000
003DB6D000
0078A1D000
00F0E0E000
17D0D0B940
7E41C02F40
ENDCHAR
STARTCHAR afii10073
ENCODING 1079
SWIDTH 436 0
DWIDTH 9 0
BBX 8 11 0 0
BITMAP
0AF9
0E6F
000B
000B
001E
07F4
057C
000D
001D
E5BC
BF90
ENDCHAR
STARTCHAR afii10074
ENCODING 1080
SWIDTH 577 0
DWIDTH 12 0
BBX 10 11 1 0
BITMAP
1D00A0
2C00E0
2C01D0
3801D0
7402C0
740380
B00780
B00B40
E02F40
B9AB00
2F8A00
ENDCHAR
STARTCHAR afii10075
ENCODING 1081
SWIDTH 577 0
DWIDTH 12 0
BBX 10 15 1 0
BITMAP
0340B0
0396D0
01BE40
000000
1D00A0
2C00E0
2C01D0
3801D0
7402C0
740380
B00780
B00B40
E02F40
B9AB00
2F8A00
ENDCHAR
STARTCHAR afii10076
ENCODING 1082
SWIDTH 477 0
DWIDTH 10 0
BBX 10 11 0 0
BITMAP
0740F0
0703C0
0B0F00
0E3C00
0EB000
1FD000
1DE000
2C7400
382D00
380E00
740B40
ENDCHAR
STARTCHAR afii10077
ENCODING 1083
SWIDTH 537 0
DWIDTH 11 0
BBX 11 11 -1 0
BITMAP
0007F8
002E78
007438
00B074
00E074
01D0B0
02C0E0
0380E0
0B01D0
6D01C0
F802C0
ENDCHAR
STARTCHAR afii10078
ENCODING 1084
SWIDTH 689 0
DWIDTH 14 0
BBX 13 11 0 0
BITMAP
078003C0
07C00BC0
0BC01F80
0ED02B40
0DD07740
1CA0D700
1CA1CB00
28634A00
387A0D00
343D1D00
70381C00
ENDCHAR
STARTCHAR afii10079
ENCODING 1085
SWIDTH 599 0
DWIDTH 12 0
BBX 12 11 0 0
BITMAP
07401D
07402C
0B002C
0E0038
0E0034
1FFFF4
1E55B0
2C00A0
3800E0
3801D0
7401D0
ENDCHAR
STARTCHAR afii10080
ENCODING 1086
SWIDTH 561 0
DWIDTH 11 0
BBX 10 11 1 0
BITMAP
02FD00
0F9B40
2C02C0
7401D0
B001D0
E002C0
E002C0
E00380
B00B00
7D6D00
1BE400
ENDCHAR
STARTCHAR afii10081
ENCODING 1087
SWIDTH 577 0
DWIDTH 12 0
BBX 11 11 0 0
BITMAP
075BD0
0779B4
0BC074
0F4074
0E00B0
1D00B0
1C00E0
2C00E0
3801D0
3802C0
7402C0
ENDCHAR
STARTCHAR afii10082
ENCODING 1088
SWIDTH 577 0
DWIDTH 12 0
BBX 12 16 -1 -5
BITMAP
01C6E4
01DE7C
02F01D
03D00E
03801D
07401D
07402C
0B0038
0F40B4
0ED6E0
1D7E40
2C0000
2C0000
380000
340000
740000
ENDCHAR
STARTCHAR afii10083
ENCODING 1089
SWIDTH 450 0
DWIDTH 9 0
BBX 8 11 1 0
BITMAP
01FE
0B9A
2D00
7400
B000
E000
E000
E000
B000
7D68
1BE4
ENDCHAR
STARTCHAR afii10084
ENCODING 1090
SWIDTH 872 0
DWIDTH 17 0
BBX 17 11 0 0
BITMAP
075B81BD00
0775E79F00
0B80BD0740
0F40B40740
0E00B00B00
1D00E00B00
1C01D00E00
2C01D01D00
3802C01D00
3803802C00
7403803800
ENDCHAR
STARTCHAR afii10085
ENCODING 1091
SWIDTH 461 0
DWIDTH 9 0
BBX 12 16 -2 -5
BITMAP
03800B
03801D
02C03C
02C074
01D0E0
01D1D0
00D380
00E740
00AE00
00BD00
00B800
00B000
00E000
02C000
5B4000
B90000
ENDCHAR
STARTCHAR afii10086
ENCODING 1092
SWIDTH 663 0
DWIDTH 13 0
BBX 12 20 1 -5
BITMAP
000340
000700
000B00
000E00
01BF90
0BAEB4
2D1C3C
742C1D
B0381D
E0341D
E0742C
E0B038
B4A0B0
3EEBD0
0BFA00
01C000
02C000
028000
038000
074000
ENDCHAR
STARTCHAR afii10087
ENCODING 1093
SWIDTH 478 0
DWIDTH 10 0
BBX 11 11 -1 0
BITMAP
074078
02C0E0
01D2C0
00EB40
007D00
007800
00FC00
02CE00
0B0B00
1D0740
7802C0
ENDCHAR
STARTCHAR afii10088
ENCODING 1094
SWIDTH 595 0
DWIDTH 12 0
BBX 10 15 1 -4
BITMAP
1D00A0
2C00E0
2C01D0
3801D0
7402C0
740380
B00780
B00B40
E02F40
B9A790
2F83D0
0001D0
0002C0
0002C0
000380
ENDCHAR
STARTCHAR afii10089
ENCODING 1095
SWIDTH 555 0
DWIDTH 11 0
BBX 10 11 1 0
BITMAP
2C01D0
3801D0
7402C0
740380
740B80
782B40
2FE700
050B00
000E00
000E00
001D00
ENDCHAR
STARTCHAR afii10090
ENCODING 1096
SWIDTH 872 0
DWIDTH 17 0
BBX 16 11 1 0
BITMAP
1D00E00E
2C01D00E
2C02C01D
3802C02C
7403802C
74074038
B00B4074
B00F00B4
E02F02F0
B9A79AB0
2F42F8A0
ENDCHAR
STARTCHAR afii10091
ENCODING 1097
SWIDTH 890 0
DWIDTH 18 0
BBX 16 15 1 -4
BITMAP
1D00E00E
2C01D00E
2C02C01D
3802C02C
7403802C
74074038
B00B4074
B00F00B4
E02F02F0
B9A79AB9
2F42F83D
0000002D
0000002C
00000038
00000038
ENDCHAR
STARTCHAR afii10092
ENCODING 1098
SWIDTH 591 0
DWIDTH 12 0
BBX 10 11 1 0
BITMAP
FFC000
57C000
038000
074000
07BE40
0B97D0
0A01D0
0E00E0
0E01D0
0B9B80
02FE00
ENDCHAR
STARTCHAR afii10093
ENCODING 1099
SWIDTH 721 0
DWIDTH 14 0
BBX 13 11 1 0
BITMAP
1D000380
2C000340
2C000740
38000B00
78000B00
7FF80E00
B96E1D00
B00E1D00
B00E2C00
797D2C00
1BE43800
ENDCHAR
STARTCHAR afii10094
ENCODING 1100
SWIDTH 519 0
DWIDTH 10 0
BBX 8 11 1 0
BITMAP
1D00
2C00
2C00
3800
7AF8
796E
B00B
B00B
B00F
796D
1BE4
ENDCHAR
STARTCHAR afii10095
ENCODING 1101
SWIDTH 456 0
DWIDTH 9 0
BBX 8 11 0 0
BITMAP
1BE4
197D
000F
000B
000B
1FFF
055F
000E
002C
A6F4
BF90
ENDCHAR
STARTCHAR afii10096
ENCODING 1102
SWIDTH 780 0
DWIDTH 16 0
BBX 15 11 0 0
BITMAP
07406F80
0741E6F0
0B038074
0E0B0038
0E0E0038
1FFE0078
1E6D0074
2C1D00B0
380E01D0
380B9B80
7402FD00
ENDCHAR
STARTCHAR afii10097
ENCODING 1103
SWIDTH 526 0
DWIDTH 11 0
BBX 11 11 -1 0
BITMAP
006FF8
02E578
078074
074074
0380B0
01FFE0
01E6E0
0381D0
0B41C0
2E02C0
780380
ENDCHAR
STARTCHAR uni0450
ENCODING 1104
SWIDTH 493 0
DWIDTH 10 0
BBX 9 15 1 0
BITMAP
03C000
01D000
007000
000000
02F900
0F9F00
2D0740
780B00
B06E00
FFF400
E50000
E00000
B00000
7D6C00
1BE400
ENDCHAR
STARTCHAR afii10071
ENCODING 1105
SWIDTH 493 0
DWIDTH 10 0
BBX 9 15 1 0
BITMAP
028740
028700
000000
000000
02F900
0F9F00
2D0740
780B00
B06E00
FFF400
E50000
E00000
B00000
7D6C00
1BE400
ENDCHAR
STARTCHAR afii10099
ENCODING 1106
SWIDTH 577 0
DWIDTH 12 0
BBX 11 20 0 -5
BITMAP
01D000
01C000
0FFF40
079500
038000
075BD0
0BB9F0
0B8074
0F0074
1E00B0
1D00E0
2C00E0
3801D0
3801C0
7402C0
000380
000380
000740
005E00
00F800
ENDCHAR
STARTCHAR afii10100
ENCODING 1107
SWIDTH 457 0
DWIDTH 9 0
BBX 9 15 0 0
BITMAP
0002C0
000B40
001800
000000
06FD00
0A5B40
000380
000B40
006D00
07E400
2D0000
740000
740000
3D6D00
1BE800
ENDCHAR
STARTCHAR afii10101
ENCODING 1108
SWIDTH 450 0
DWIDTH 9 0
BBX 8 11 1 0
BITMAP
02FE
0F9A
2D00
7800
B400
FFF4
E550
E000
B000
7968
1BE4
ENDCHAR
STARTCHAR afii10102
ENCODING 1109
SWIDTH 428 0
DWIDTH 9 0
BBX 8 11 0 0
BITMAP
06FA
1F5A
2C00
2D00
1F40
06E0
00B8
002C
002C
E5B8
6F90
ENDCHAR
STARTCHAR afii10103
ENCODING 1110
SWIDTH 253 0
DWIDTH 5 0
BBX 5 15 0 0
BITMAP
01C0
02C0
0000
0000
0740
0740
0B00
0E00
0E00
1D00
1C00
2C00
3800
3800
7400
ENDCHAR
STARTCHAR afii10104
ENCODING 1111
SWIDTH 253 0
DWIDTH 5 0
BBX 7 15 0 0
BITMAP
1D28
1C28
0000
0000
0740
0740
0B00
0E00
0E00
1D00
1C00
2C00
3800
3800
7400
ENDCHAR
STARTCHAR afii10105
ENCODING 1112
SWIDTH 253 0
DWIDTH 5 0
BBX 8 20 -3 -5
BITMAP
0007
000B
0000
0000
001D
001D
002C
0038
0038
0074
0070
00B0
00E0
00E0
01D0
02C0
02C0
0380
5B40
7D00
ENDCHAR
STARTCHAR afii10106
ENCODING 1113
SWIDTH 762 0
DWIDTH 15 0
BBX 15 11 -1 0
BITMAP
000BF400
002DB400
0074B000
00B0E000
00E0E000
01D1FFE0
02C1E5B8
0382C02C
0B01C03C
6E01E5B4
F8007F90
ENDCHAR
STARTCHAR afii10107
ENCODING 1114
SWIDTH 812 0
DWIDTH 16 0
BBX 15 11 0 0
BITMAP
07407400
07407400
0B00B000
0E00A000
0E00FFE0
1FFFE5B8
2E56C02C
2C01C02C
3802D038
3801F5F4
74006F90
ENDCHAR
STARTCHAR afii10108
ENCODING 1115
SWIDTH 577 0
DWIDTH 12 0
BBX 11 15 0 0
BITMAP
01D000
01C000
0FFF40
079500
035BD0
0779F0
0BC074
0B4074
0E00B0
1D00B0
1C00E0
2C00E0
3801D0
3802C0
7402C0
ENDCHAR
STARTCHAR afii10109
ENCODING 1116
SWIDTH 477 0
DWIDTH 10 0
BBX 10 15 0 0
BITMAP
0001E0
000380
000D00
000000
0740F0
0703C0
0B0F00
0E3C00
0EB000
1FD000
1DE000
2C7400
382D00
380E00
740B40
ENDCHAR
STARTCHAR uni045D
ENCODING 1117
SWIDTH 577 0
DWIDTH 12 0
BBX 10 15 1 0
BITMAP
01D000
00B000
002800
000000
1D00A0
2C00E0
2C01D0
3801D0
7402C0
740380
B00780
B00B40
E02F40
B9AB00
2F8A00
ENDCHAR
STARTCHAR afii10110
ENCODING 1118
SWIDTH 461 0
DWIDTH 9 0
BBX 12 20 -2 -5
BITMAP
00740E
00396D
001BE4
000000
03800B
03801D
02C03C
02C074
01D0E0
01D1D0
00D380
00E740
00AE00
00BD00
00B800
00B000
00E000
02C000
5B4000
B90000
ENDCHAR
STARTCHAR afii10193
ENCODING 1119
SWIDTH 577 0
DWIDTH 12 0
BBX 10 16 1 -5
BITMAP
1D00A0
2C00E0
2C01D0
3801D0
7402C0
740380
B00780
B00B40
E02F40
B9AB00
2F8A00
000000
024000
074000
0B0000
0E0000
ENDCHAR
STARTCHAR uni0460
ENCODING 1120
SWIDTH 953 0
DWIDTH 19 0
BBX 18 14 1 0
BITMAP
007F81BE00
02EAC2AB80
0B800002D0
0E000001D0
2D000001D0
3C000001D0
78000002D0
74000002C0
7401D00380
B401D00B40
7402C01E00
7807C03D00
2EAEEAF400
0BF86F9000
ENDCHAR
STARTCHAR uni0461
ENCODING 1121
SWIDTH 717 0
DWIDTH 14 0
BBX 14 11 1 0
BITMAP
E02C00E0
A02C01D0
B02C02C0
B01D0380
701D0740
742D0B00
747D0E00
34DE2C00
3A8A7400
3F4BD000
2E0B8000
ENDCHAR
STARTCHAR uni0462
ENCODING 1122
SWIDTH 619 0
DWIDTH 12 0
BBX 11 15 1 0
BITMAP
00B000
00E000
00E000
7FFFC0
6AEA40
02C000
038000
07FE40
079BE0
0B00B0
0E00B4
0E00B0
1D01E0
2E6B80
2FF900
ENDCHAR
STARTCHAR uni0463
ENCODING 1123
SWIDTH 551 0
DWIDTH 11 0
BBX 9 13 1 0
BITMAP
074000
074000
FFF800
5E5400
0D0000
1D0000
2EFD00
2E5B40
380380
380380
380780
2E6F00
0BF800
ENDCHAR
STARTCHAR uni0464
ENCODING 1124
SWIDTH 860 0
DWIDTH 17 0
BBX 17 14 1 0
BITMAP
074006FE40
07402FAA80
0B00B80000
0E01E00000
0E03C00000
1D07400000
2FFFFFF000
2D5F555000
380E000000
740F000000
740B000000
B007800000
E002F9A400
E0006FE400
ENDCHAR
STARTCHAR uni0465
ENCODING 1125
SWIDTH 687 0
DWIDTH 14 0
BBX 14 11 0 0
BITMAP
07402FE0
0741F990
0B03C000
0E074000
0E0F0000
1FFFFF40
1E6E5500
2C1D0000
380E0000
380B9640
7401FE00
ENDCHAR
STARTCHAR uni0466
ENCODING 1126
SWIDTH 601 0
DWIDTH 12 0
BBX 12 14 -1 0
BITMAP
0000E0
0002F0
0007B0
000E74
001D34
003838
00BFF8
01EBAC
03CB1C
074A1D
0E0E0D
2C1D0E
741C0B
B02C0B
ENDCHAR
STARTCHAR uni0467
ENCODING 1127
SWIDTH 528 0
DWIDTH 11 0
BBX 11 11 -1 0
BITMAP
000F80
001F80
003AC0
00B2C0
01E1D0
02FFD0
07ADE0
0F28E0
1D34B0
3874B0
B07074
ENDCHAR
STARTCHAR uni0468
ENCODING 1128
SWIDTH 840 0
DWIDTH 17 0
BBX 15 14 1 0
BITMAP
07400780
07400F80
0B001EC0
0E0039C0
0E00B1D0
1D01D1D0
2FFFFFE0
2D5BADE0
380E28B0
742C38B0
74747474
B0B07074
F1D0B038
E380E038
ENDCHAR
STARTCHAR uni0469
ENCODING 1129
SWIDTH 721 0
DWIDTH 14 0
BBX 13 11 0 0
BITMAP
07403D00
0740BE00
0B00DA00
0F02CB00
0E074B00
1FFFFF40
1E6EFB40
2C38E380
38B1D380
39E1C2C0
76C2C2C0
ENDCHAR
STARTCHAR uni046A
ENCODING 1130
SWIDTH 660 0
DWIDTH 13 0
BBX 15 14 -1 0
BITMAP
00BFFFF8
00B955F4
007802D0
002C0B40
000E2D00
000BB400
006FFD00
01E79B40
03838780
0B074380
0E0B0380
2C0B0380
380E03C0
B41D02C0
ENDCHAR
STARTCHAR uni046B
ENCODING 1131
SWIDTH 603 0
DWIDTH 12 0
BBX 13 11 -1 0
BITMAP
02FFFF40
01E56F00
00E02C00
0074B400
002AD000
01BFE000
079E7C00
0E1D1C00
2C1C1D00
782C0D00
B0380E00
ENDCHAR
STARTCHAR uni046C
ENCODING 1132
SWIDTH 915 0
DWIDTH 18 0
BBX 18 14 1 0
BITMAP
0742FFFFE0
0742E557D0
0B01E00B40
0E00B02D00
0E0078B400
1D002ED000
2FFFFFE400
2D5B9F6D00
380E0E1E00
742C1D0E00
74382C0E00
B0B02C0E00
E0E0380B00
E2D0740B00
ENDCHAR
STARTCHAR uni046D
ENCODING 1133
SWIDTH 800 0
DWIDTH 16 0
BBX 16 11 0 0
BITMAP
0747FFFE
074795BC
0B0280B0
0F01D280
0E00BB40
1FFFFFE0
1E6E38B0
2C383474
38B07474
39E0B038
76C0A038
ENDCHAR
STARTCHAR uni046E
ENCODING 1134
SWIDTH 532 0
DWIDTH 11 0
BBX 12 22 -1 -5
BITMAP
001C2D
000E74
0007D0
006FE0
01E5BC
00402D
00001D
00002C
0001B4
01FF40
0156D0
0000B0
000074
000074
0000B4
0001F0
016FC0
2FF900
B40000
BAA940
2FFF80
000040
ENDCHAR
STARTCHAR uni046F
ENCODING 1135
SWIDTH 446 0
DWIDTH 9 0
BBX 10 17 -1 -4
BITMAP
00A1E0
003F40
01BF40
0297C0
0001D0
0001D0
000780
00FE00
005B40
000380
000780
016F00
2FE400
B40000
E00000
7FFD00
055600
ENDCHAR
STARTCHAR uni0470
ENCODING 1136
SWIDTH 734 0
DWIDTH 15 0
BBX 14 14 2 0
BITMAP
380B01E0
740F01D0
B40E02C0
B01D03C0
E02C0380
E02C0740
E0380F00
B8787D00
2FFFF400
01B54000
00F00000
00E00000
01D00000
01D00000
ENDCHAR
STARTCHAR uni0471
ENCODING 1137
SWIDTH 713 0
DWIDTH 14 0
BBX 13 20 1 -5
BITMAP
0002C000
00038000
00034000
00074000
1D0B0740
2C0A0740
280E0740
381D0740
741D0B00
742C0B00
B0380E00
B0382D00
74747800
2EBAE000
0BFE4000
00E00000
00D00000
01D00000
02C00000
02C00000
ENDCHAR
STARTCHAR uni0472
ENCODING 1138
SWIDTH 720 0
DWIDTH 14 0
BBX 13 14 1 0
BITMAP
006FE400
01FABD00
07800F00
1E000780
2C000380
38000380
7FFFFF80
79555B80
B4000B40
74000F00
78002E00
3D007C00
1F9BE000
02FE4000
ENDCHAR
STARTCHAR uni0473
ENCODING 1139
SWIDTH 561 0
DWIDTH 11 0
BBX 10 11 1 0
BITMAP
02FD00
0F9B80
2D02C0
7802D0
B001D0
FFFFC0
E557C0
E00380
B00B00
796D00
1BE400
ENDCHAR
STARTCHAR uni0474
ENCODING 1140
SWIDTH 559 0
DWIDTH 11 0
BBX 12 14 2 0
BITMAP
E0007D
E001E5
E002C0
B00740
B00B00
B01D00
742C00
747400
74B000
35D000
3AC000
3B4000
2F0000
2D0000
ENDCHAR
STARTCHAR uni0475
ENCODING 1141
SWIDTH 439 0
DWIDTH 9 0
BBX 10 11 1 0
BITMAP
E002D0
E00B40
B01D00
B02C00
B07400
70B000
74D000
76C000
378000
3B0000
3E0000
ENDCHAR
STARTCHAR uni0476
ENCODING 1142
SWIDTH 559 0
DWIDTH 11 0
BBX 12 18 2 0
BITMAP
3C7400
1D2C00
070D00
000000
E0007D
E001E5
E002C0
B00740
B00B00
B01D00
742C00
747400
74B000
35D000
3AC000
3B4000
2F0000
2D0000
ENDCHAR
STARTCHAR uni0477
ENCODING 1143
SWIDTH 439 0
DWIDTH 9 0
BBX 10 15 1 0
BITMAP
B4E000
287400
0D2800
000000
E002D0
E00B40
B01D00
B02C00
B07400
70B000
74D000
76C000
378000
3B0000
3E0000
ENDCHAR
STARTCHAR uni0478
ENCODING 1144
SWIDTH 1184 0
DWIDTH 24 0
BBX 24 19 1 -5
BITMAP
006FE4000000
01FABD000000
07800F000000
1E00078B001D
2D0003874038
380003874074
7400038340E0
7400078381D0
B4000B428380
74000F02C740
78002E02CE00
3D007C01DC00
1F9BE001F800
02FE4000F000
00000000E000
00000002C000
000000074000
0000016E0000
000001F80000
ENDCHAR
STARTCHAR uni0479
ENCODING 1145
SWIDTH 1003 0
DWIDTH 20 0
BBX 20 16 1 -5
BITMAP
02FD03800E
0F9B43801D
2C02C38038
7401D2C0B4
B001D2C0E0
E002C1D2C0
E002C1D380
E00380DB00
B00B00DE00
7D6D00FC00
1BE400B400
000000B000
000001D000
000003C000
00005B4000
0000F90000
ENDCHAR
STARTCHAR uni047A
ENCODING 1146
SWIDTH 738 0
DWIDTH 15 0
BBX 13 16 1 -1
BITMAP
0002D000
006FF800
02FBEE00
0B814B40
1E0003C0
2C0002C0
380002C0
740002C0
740002C0
B4000380
74000740
78000F00
3D142D00
1FBDF400
06FF9000
00B80000
ENDCHAR
STARTCHAR uni047B
ENCODING 1147
SWIDTH 578 0
DWIDTH 12 0
BBX 10 13 1 -1
BITMAP
007800
02FE00
1FBBC0
3C01D0
7400E0
B001E0
E001D0
E001D0
E002C0
B00740
7AEE00
1FF800
03C000
ENDCHAR
STARTCHAR uni047C
ENCODING 1148
SWIDTH 953 0
DWIDTH 19 0
BBX 18 20 1 0
BITMAP
00007FA400
0000956800
00000E0000
0000070000
0000180000
0000000000
007F81BE00
02EAC2AB80
0B800002D0
0E000001D0
2D000001D0
3C000001D0
78000002D0
74000002C0
7400000380
B400000B40
7400001E00
7801003D00
2EAFE6F400
0BF9BF9000
ENDCHAR
STARTCHAR uni047D
ENCODING 1149
SWIDTH 758 0
DWIDTH 15 0
BBX 14 17 1 0
BITMAP
000BE500
00296F00
0002C000
0000D000
00024000
00000000
06F47E00
1FA46B80
3C0002C0
740001D0
B00002C0
E00002C0
E00003C0
E0000780
B0000F00
7ABEBD00
1FEBE400
ENDCHAR
STARTCHAR uni047E
ENCODING 1150
SWIDTH 953 0
DWIDTH 19 0
BBX 18 17 1 0
BITMAP
0007FFF800
0002082000
0000000000
007F81BE00
02EAC2AB80
0B800002D0
0E000001D0
2D000001D0
3C000001D0
78000002D0
74000002C0
7401D00380
B401D00B40
7402C01E00
7807C03D00
2EAEEAF400
0BF46F9000
ENDCHAR
STARTCHAR uni047F
ENCODING 1151
SWIDTH 717 0
DWIDTH 14 0
BBX 14 14 1 0
BITMAP
03FFFC00
02091400
00000000
E02C00E0
A02C01D0
B02C02C0
B01D0380
701D0740
742D0B00
747D0E00
34DE2C00
3A8A7400
3F4BD000
2E0B8000
ENDCHAR
STARTCHAR uni0480
ENCODING 1152
SWIDTH 584 0
DWIDTH 12 0
BBX 12 19 1 -5
BITMAP
001BF9
01FAAD
07D000
0F0000
2D0000
3C0000
780000
740000
B40000
740000
780000
3D0000
1FA800
06FC00
003800
003800
007400
00B000
00B000
ENDCHAR
STARTCHAR uni0481
ENCODING 1153
SWIDTH 450 0
DWIDTH 9 0
BBX 8 16 1 -5
BITMAP
02FE
0F9A
2D00
7800
B000
E000
E000
E000
F000
7EA0
1BE0
01D0
01D0
02C0
02C0
0380
ENDCHAR
STARTCHAR uni0482
ENCODING 1154
SWIDTH 608 0
DWIDTH 12 0
BBX 10 13 1 0
BITMAP
000180
0102C0
03D740
01BE00
002F80
003AF0
50B020
B9D000
1FC000
07F400
0E2D00
1D0400
180000
ENDCHAR
STARTCHAR uni0483
ENCODING 1155
SWIDTH 560 0
DWIDTH 11 0
BBX 8 3 3 11
BITMAP
000A
7FFD
7000
ENDCHAR
STARTCHAR uni0484
ENCODING 1156
SWIDTH 580 0
DWIDTH 12 0
BBX 8 2 3 12
BITMAP
16BD
7A57
ENDCHAR
STARTCHAR uni0485
ENCODING 1157
SWIDTH 580 0
DWIDTH 12 0
BBX 3 3 6 12
BITMAP
B0
A0
24
ENDCHAR
STARTCHAR uni0486
ENCODING 1158
SWIDTH 580 0
DWIDTH 12 0
BBX 3 3 6 12
BITMAP
74
28
60
ENDCHAR
STARTCHAR uni0488
ENCODING 1160
SWIDTH 988 0
DWIDTH 20 0
BBX 20 17 0 -3
BITMAP
0000BD0000
0000860000
0000000000
07D0000B80
0920001490
0000000000
0000000000
2E000000B8
5240000249
0000000000
0000000000
0000000000
07D0000B80
0920001490
0000000000
0000BD0000
0000860000
ENDCHAR
STARTCHAR uni0489
ENCODING 1161
SWIDTH 956 0
DWIDTH 19 0
BBX 19 19 0 -4
BITMAP
0000180000
0000340000
0200340000
0280700640
00D0002E00
0090002800
0000000000
0000000000
A400000280
7E000002F4
0600000068
0000000000
0000000000
0000001800
00A0001D00
0640380A00
0000340200
0000700000
0000600000
ENDCHAR
STARTCHAR uni048A
ENCODING 1162
SWIDTH 703 0
DWIDTH 14 0
BBX 13 22 1 -4
BITMAP
00740E00
00396D00
001BE400
00000000
074007C0
07000F80
0B003B80
0E00B740
0D01DB00
1D074B00
2C0E0E00
2C280D00
38B01D00
75D02C00
77802800
BE003800
FC007900
F4007E00
00001C00
00003800
0000B400
0000E000
ENDCHAR
STARTCHAR uni048B
ENCODING 1163
SWIDTH 579 0
DWIDTH 12 0
BBX 10 19 1 -4
BITMAP
0340B0
0396D0
01BE40
000000
1D00A0
2C00E0
2C01D0
3801D0
7402C0
740380
B00780
B00B40
E02F40
B9AB50
2F8BD0
000280
000340
000B00
000E00
ENDCHAR
STARTCHAR uni048C
ENCODING 1164
SWIDTH 553 0
DWIDTH 11 0
BBX 9 14 1 0
BITMAP
074000
074000
3FFC00
1F5400
0E0000
1D0000
1FF900
2DAF40
380380
3403C0
740380
B00B40
B5BE00
FFE400
ENDCHAR
STARTCHAR uni048D
ENCODING 1165
SWIDTH 519 0
DWIDTH 10 0
BBX 8 15 1 0
BITMAP
0740
0B00
7FF4
1E50
1D00
2C00
2C00
3800
7800
7FF8
B96F
B00B
B00B
796D
1BE4
ENDCHAR
STARTCHAR uni048E
ENCODING 1166
SWIDTH 565 0
DWIDTH 11 0
BBX 11 14 1 0
BITMAP
07FF80
079AE0
0B00B0
0E0074
0E00B4
1D18F0
2C1ED0
2FFF40
395B00
740240
740000
B00000
E00000
E00000
ENDCHAR
STARTCHAR uni048F
ENCODING 1167
SWIDTH 577 0
DWIDTH 12 0
BBX 12 16 -1 -5
BITMAP
01C6E4
01DE7C
02F01D
03D00E
03801E
07401D
07402D
0B002C
0F4A78
0EEBF0
1D7FC0
2C02C0
2C0080
380000
340000
740000
ENDCHAR
STARTCHAR afii10050
ENCODING 1168
SWIDTH 476 0
DWIDTH 10 0
BBX 11 17 1 0
BITMAP
000038
000074
0000B0
07FFF0
07AA90
0B0000
0E0000
0E0000
1D0000
2C0000
2C0000
380000
740000
740000
B00000
F00000
E00000
ENDCHAR
STARTCHAR afii10098
ENCODING 1169
SWIDTH 382 0
DWIDTH 8 0
BBX 9 14 0 0
BITMAP
0002C0
000380
000780
07FF40
075500
0B0000
0E0000
0E0000
1D0000
1C0000
2C0000
380000
380000
740000
ENDCHAR
STARTCHAR uni0492
ENCODING 1170
SWIDTH 471 0
DWIDTH 9 0
BBX 10 14 1 0
BITMAP
07FFF0
07AA90
0B0000
0E0000
1E0000
1D0000
FFF400
7D5000
380000
740000
740000
B00000
E00000
E00000
ENDCHAR
STARTCHAR uni0493
ENCODING 1171
SWIDTH 382 0
DWIDTH 8 0
BBX 9 11 0 0
BITMAP
07FF40
075500
0B0000
0E0000
0E0000
BFF000
6D5000
2C0000
380000
380000
740000
ENDCHAR
STARTCHAR uni0494
ENCODING 1172
SWIDTH 603 0
DWIDTH 12 0
BBX 10 19 1 -5
BITMAP
07FFF0
07AA90
0B0000
0E0000
0E0000
1D0000
2FF800
2D6F40
380780
7402C0
7401D0
B001D0
E001D0
E002D0
0003C0
000B40
001F00
AAFC00
7F9000
ENDCHAR
STARTCHAR uni0495
ENCODING 1173
SWIDTH 491 0
DWIDTH 10 0
BBX 9 16 0 -5
BITMAP
07FF40
075500
0B0000
0E0000
0E0000
1FF800
1E6E00
2C0B00
380740
380740
740740
000B40
000F00
002D00
29B800
1F9000
ENDCHAR
STARTCHAR uni0496
ENCODING 1174
SWIDTH 821 0
DWIDTH 16 0
BBX 18 18 -1 -4
BITMAP
02D01D01E0
00E01D03C0
00B42C0F00
0038383C00
001D38B400
000F76D000
0007BB4000
000FBB0000
003CE78000
00B4D2C000
02D1D1E000
0B42C0B000
2D02C07A40
B803802F40
0000000B00
0000000A00
0000000E00
0000001D00
ENDCHAR
STARTCHAR uni0497
ENCODING 1175
SWIDTH 837 0
DWIDTH 17 0
BBX 18 15 -1 -4
BITMAP
07E01D06F0
05B81C1E50
002C283800
002C38B000
001D34E000
002FFFD000
003DB6D000
0078A1D000
00F0E0E000
17D0D0B940
7E41C02F40
0000000740
0000000B00
0000000B00
0000000E00
ENDCHAR
STARTCHAR uni0498
ENCODING 1176
SWIDTH 532 0
DWIDTH 11 0
BBX 11 18 0 -4
BITMAP
01BF80
07A6F0
0100B4
000074
0000B0
0006D0
07FD00
055B40
0002D0
0001D0
0001D0
0003C0
E96F40
6FE800
01C000
00D000
01D000
0F8000
ENDCHAR
STARTCHAR uni0499
ENCODING 1177
SWIDTH 436 0
DWIDTH 9 0
BBX 8 15 0 -4
BITMAP
0AF9
0E6F
000B
000B
001E
07F4
057C
000D
001D
E5BC
BF90
0300
0340
0740
3E00
ENDCHAR
STARTCHAR uni049A
ENCODING 1178
SWIDTH 600 0
DWIDTH 12 0
BBX 12 18 1 -4
BITMAP
07402D
0740B4
0B02D0
0E0B40
0E2D00
1DB400
2ED000
2EC000
38E000
747400
742C00
B00E00
E00790
E002E0
0000E0
0001D0
0001C0
0002C0
ENDCHAR
STARTCHAR uni049B
ENCODING 1179
SWIDTH 520 0
DWIDTH 10 0
BBX 10 15 0 -4
BITMAP
0740E0
070380
0B0E00
0E3800
0EE000
1FD000
1DE000
2C7400
382C00
380E40
740BD0
0002C0
0002C0
000380
000340
ENDCHAR
STARTCHAR uni049C
ENCODING 1180
SWIDTH 559 0
DWIDTH 11 0
BBX 12 14 1 0
BITMAP
07402D
0740B4
0B36D0
0E7F40
0E7D00
1DF400
2EE000
2EF000
39F800
76AC00
769D00
B00F00
E00740
E003C0
ENDCHAR
STARTCHAR uni049D
ENCODING 1181
SWIDTH 475 0
DWIDTH 10 0
BBX 11 11 0 0
BITMAP
0740B4
0B36C0
0B3B00
0E7C00
0EA000
1FD000
2DE000
2DF400
39EC00
769E00
740B40
ENDCHAR
STARTCHAR uni049E
ENCODING 1182
SWIDTH 557 0
DWIDTH 11 0
BBX 12 14 1 0
BITMAP
07402D
0740B4
3FF2D0
1F5B40
0E2D00
1DB400
2EF000
2EB400
383800
742C00
741E00
B00B00
E00740
E003C0
ENDCHAR
STARTCHAR uni049F
ENCODING 1183
SWIDTH 478 0
DWIDTH 10 0
BBX 10 15 0 0
BITMAP
01D000
01C000
1FFD00
079400
0341E0
074380
0B0E00
0A3800
0EF000
1FF000
1E7800
2C2C00
381D00
380F00
740740
ENDCHAR
STARTCHAR uni04A0
ENCODING 1184
SWIDTH 631 0
DWIDTH 13 0
BBX 12 14 2 0
BITMAP
FFC01E
578078
0741E0
074780
0B1E00
0E7800
0EE000
1EE000
2CB400
2C3C00
381E00
340B40
7403C0
B001E0
ENDCHAR
STARTCHAR uni04A1
ENCODING 1185
SWIDTH 560 0
DWIDTH 11 0
BBX 11 11 1 0
BITMAP
FFC074
5781D0
038740
075E00
077800
0BE000
0E7400
0E2C00
1D0E00
1C0B40
2C03C0
ENDCHAR
STARTCHAR uni04A2
ENCODING 1186
SWIDTH 676 0
DWIDTH 14 0
BBX 13 18 1 -4
BITMAP
07400380
07400740
0B000B00
0E000B00
0E000E00
1D001D00
2FFFFD00
2D557C00
38003800
74003800
74007400
B000B000
E000B900
E000FD00
00002C00
00002C00
00003800
00003400
ENDCHAR
STARTCHAR uni04A3
ENCODING 1187
SWIDTH 599 0
DWIDTH 12 0
BBX 12 15 0 -4
BITMAP
07401D
07402C
0B002C
0E0038
0E0034
1FFFF4
1E55B0
2C00A0
3800E0
3801E4
7401F8
000074
000074
0000B0
0000E0
ENDCHAR
STARTCHAR uni04A4
ENCODING 1188
SWIDTH 754 0
DWIDTH 15 0
BBX 16 14 1 0
BITMAP
074003FE
07400795
0B000B00
0E000B00
0E000E00
1D001D00
2FFFFD00
2D557C00
38003800
74003800
74007400
B000B000
E000B000
E000E000
ENDCHAR
STARTCHAR uni04A5
ENCODING 1189
SWIDTH 687 0
DWIDTH 14 0
BBX 15 11 0 0
BITMAP
07401FF8
07402D54
0B002C00
0E003800
0E003400
1FFFF400
1E55B000
2C00A000
3800E000
3801D000
7401D000
ENDCHAR
STARTCHAR uni04A6
ENCODING 1190
SWIDTH 996 0
DWIDTH 20 0
BBX 18 19 1 -5
BITMAP
07FFFF4000
07955B0000
0B000E0000
0E000E0000
0E001D0000
1D001C0000
2C002FF800
2C00396F00
3800340780
74007403C0
7400B002D0
B000B002D0
E000E002C0
E001D002C0
0000000380
0000000B40
0000002E00
0000A6F800
00007F9000
ENDCHAR
STARTCHAR uni04A7
ENCODING 1191
SWIDTH 817 0
DWIDTH 16 0
BBX 15 16 0 -5
BITMAP
07FFFC00
07557800
0B007400
0E007400
0E00B000
1D00BF90
1C00F6F4
2C01D078
3801D02C
3802C02C
7403802C
00000038
00000074
000000F0
00019BD0
0000BE40
ENDCHAR
STARTCHAR uni04A8
ENCODING 1192
SWIDTH 720 0
DWIDTH 14 0
BBX 13 15 1 -1
BITMAP
006FE000
01FAA000
0B806900
1E02FF00
2C078780
380B0380
740E0780
741D0780
B41D0B40
741D0F00
781D2D00
3D0EB800
1F9FE000
02FFFA00
00007E00
ENDCHAR
STARTCHAR uni04A9
ENCODING 1193
SWIDTH 599 0
DWIDTH 12 0
BBX 10 11 1 0
BITMAP
02F800
1F9400
3C1B90
743EE0
B0B4B0
E0B0B0
E0E0E0
E0F1D0
B0B780
7DBF50
1BEFD0
ENDCHAR
STARTCHAR uni04AA
ENCODING 1194
SWIDTH 584 0
DWIDTH 12 0
BBX 12 18 1 -4
BITMAP
001BF9
01FAAD
07D000
0F0000
2D0000
3C0000
780000
740000
B40000
740000
780000
3D0000
1F9AC0
06FE80
003000
003400
007400
03E000
ENDCHAR
STARTCHAR uni04AB
ENCODING 1195
SWIDTH 450 0
DWIDTH 9 0
BBX 8 15 1 -4
BITMAP
01FE
0B9A
2D00
7400
B000
E000
E000
E000
B000
7D68
1BE4
0300
0340
0740
3E00
ENDCHAR
STARTCHAR uni04AC
ENCODING 1196
SWIDTH 498 0
DWIDTH 10 0
BBX 10 18 2 -4
BITMAP
FFFFE0
56E550
01D000
02C000
038000
038000
074000
0B0000
0B0000
0E0000
1E0000
1D0000
2E4000
2F4000
074000
0B0000
0A0000
0E0000
ENDCHAR
STARTCHAR uni04AD
ENCODING 1197
SWIDTH 884 0
DWIDTH 18 0
BBX 17 15 0 -4
BITMAP
075B81BD00
0775E79F00
0B80BD0740
0F40B40740
0E00B00B00
1D00E00B00
1C01D00E00
2C01D01D00
3802C01D00
3803802E40
7403800F80
0000000740
0000000B00
0000000B00
0000000E00
ENDCHAR
STARTCHAR uni04AE
ENCODING 1198
SWIDTH 502 0
DWIDTH 10 0
BBX 10 14 2 0
BITMAP
E001E0
B00380
700B40
741D00
383800
2CB000
1DD000
1F8000
0F0000
0E0000
1D0000
1D0000
2C0000
380000
ENDCHAR
STARTCHAR uni04AF
ENCODING 1199
SWIDTH 461 0
DWIDTH 9 0
BBX 9 16 1 -5
BITMAP
E002C0
E00740
B00E00
B01D00
703800
74B000
74E000
36C000
3B4000
2F0000
2D0000
2C0000
380000
380000
740000
B00000
ENDCHAR
STARTCHAR uni04B0
ENCODING 1200
SWIDTH 502 0
DWIDTH 10 0
BBX 11 14 1 0
BITMAP
380078
2C00E0
1C02D0
1D0740
0E0E00
0B2C00
077400
03E000
03C000
BFFD00
6BA800
074000
0B0000
0E0000
ENDCHAR
STARTCHAR uni04B1
ENCODING 1201
SWIDTH 461 0
DWIDTH 9 0
BBX 10 16 0 -5
BITMAP
3800B0
3801D0
2C0380
2C0740
1C0E00
1D2C00
1D3800
0DB000
0ED000
0BC000
0B4000
FFF400
5E5000
0E0000
1D0000
2C0000
ENDCHAR
STARTCHAR uni04B2
ENCODING 1202
SWIDTH 568 0
DWIDTH 11 0
BBX 13 18 -1 -4
BITMAP
02C00780
01D00E00
00B02C00
0074B400
0039D000
002F8000
001E0000
003F0000
00B74000
01D38000
0742C000
0E01D000
2C00F800
B400BC00
00002C00
00002800
00003800
00007400
ENDCHAR
STARTCHAR uni04B3
ENCODING 1203
SWIDTH 520 0
DWIDTH 10 0
BBX 11 15 0 -4
BITMAP
0B00B4
0741D0
028780
01DE00
00FC00
00B400
01F800
075C00
0E0E00
3C0B40
B407D0
0002C0
0002C0
000380
000340
ENDCHAR
STARTCHAR uni04B4
ENCODING 1204
SWIDTH 776 0
DWIDTH 16 0
BBX 14 18 2 -4
BITMAP
FFFFE1D0
AAEA91D0
01D002C0
02C003C0
03800380
03800740
07400740
0B000B00
0B000E00
0E000E00
1E001D00
1D002C00
2EAABD40
2FFFFF40
00000B00
00000B00
00000E00
00000E00
ENDCHAR
STARTCHAR uni04B5
ENCODING 1205
SWIDTH 657 0
DWIDTH 13 0
BBX 12 15 1 -4
BITMAP
FFFE1D
5B952C
07402C
0B0038
0B0034
0E0074
0D00B0
1D01F0
1D03E0
0E6DF4
07E4BC
000038
000038
000074
0000B4
ENDCHAR
STARTCHAR uni04B6
ENCODING 1206
SWIDTH 636 0
DWIDTH 13 0
BBX 11 18 2 -4
BITMAP
1D0038
2C0038
2C0074
3800B0
7400B0
7400E0
B000D0
7806D0
3FFFC0
055280
000380
000740
000790
000BD0
0001D0
0002C0
0002C0
000380
ENDCHAR
STARTCHAR uni04B7
ENCODING 1207
SWIDTH 543 0
DWIDTH 11 0
BBX 10 15 1 -4
BITMAP
2C01D0
3801D0
7402C0
740380
740B80
782B40
2FE700
050B00
000E00
000E40
001F80
000380
000740
000B00
000B00
ENDCHAR
STARTCHAR uni04B8
ENCODING 1208
SWIDTH 639 0
DWIDTH 13 0
BBX 11 14 2 0
BITMAP
1D0038
2C0038
2C0074
3800B0
7470B0
74A0E0
B0A0D0
78E6D0
3FFFC0
06D280
028380
024740
000740
000B00
ENDCHAR
STARTCHAR uni04B9
ENCODING 1209
SWIDTH 554 0
DWIDTH 11 0
BBX 10 11 1 0
BITMAP
2C01D0
3801D0
7402C0
74D380
75CB80
79EB40
2FE700
074B00
034E00
070E00
001D00
ENDCHAR
STARTCHAR uni04BA
ENCODING 1210
SWIDTH 639 0
DWIDTH 13 0
BBX 11 14 1 0
BITMAP
074000
074000
0B0000
0E0000
0E0000
1EAF90
2FAAF0
2C0074
380074
7400B0
7400E0
B000E0
E001D0
E002C0
ENDCHAR
STARTCHAR uni04BB
ENCODING 1211
SWIDTH 576 0
DWIDTH 12 0
BBX 10 11 0 0
BITMAP
074000
074000
0B0000
0E0000
0E6F40
1EE6D0
1F00E0
2D01D0
3C01D0
3802C0
7402C0
ENDCHAR
STARTCHAR uni04BC
ENCODING 1212
SWIDTH 765 0
DWIDTH 15 0
BBX 14 14 1 0
BITMAP
0001BE40
001FAAE0
007800F0
00F000B0
B2D001F0
B3805BD0
7FFFFE00
1B954000
0B400000
0B400000
07800000
03D00100
01F9AF00
006FE900
ENDCHAR
STARTCHAR uni04BD
ENCODING 1213
SWIDTH 592 0
DWIDTH 12 0
BBX 12 11 0 0
BITMAP
000BE4
002E7C
00B41D
39E02C
76C1B8
3FFFD0
079400
038000
03C000
01F5B0
006F90
ENDCHAR
STARTCHAR uni04BE
ENCODING 1214
SWIDTH 765 0
DWIDTH 15 0
BBX 14 18 1 -4
BITMAP
0001BE40
001FAAE0
007800F0
00F000B0
B2D001F0
B3805BD0
7FFFFE00
1B954000
0B400000
0B400000
07800000
03D00000
01F96F00
006FF900
000B0000
000B0000
000E0000
000E0000
ENDCHAR
STARTCHAR uni04BF
ENCODING 1215
SWIDTH 592 0
DWIDTH 12 0
BBX 12 15 0 -4
BITMAP
000BE4
002E7C
00B41D
39E02C
76C1B8
3FFFD0
079400
038000
02C000
01F5B0
007F90
001D00
002C00
003C00
003800
ENDCHAR
STARTCHAR uni04C0
ENCODING 1216
SWIDTH 272 0
DWIDTH 5 0
BBX 5 14 1 0
BITMAP
0740
0740
0B00
0E00
0E00
1D00
2C00
2C00
3800
7400
7400
B000
E000
E000
ENDCHAR
STARTCHAR uni04C1
ENCODING 1217
SWIDTH 775 0
DWIDTH 16 0
BBX 18 18 -1 0
BITMAP
0000D02C00
0000E5B400
00006F9000
0000000000
02D01D01E0
00E01D03C0
00B42C0F00
0038383C00
001D38B400
000F76D000
0007BB4000
000FBB0000
003CE78000
00B4D2C000
02D1D1E000
0B42C0B000
2D02C07800
B803802D00
ENDCHAR
STARTCHAR uni04C2
ENCODING 1218
SWIDTH 833 0
DWIDTH 17 0
BBX 18 15 -1 0
BITMAP
0001C03800
0000E5B000
00007F9000
0000000000
07E01D06F0
05B81C1E50
002C283800
002C38B000
001D34E000
002FFFD000
003DB6D000
0078A1D000
00F0E0E000
17D0D0B940
7E41C02F40
ENDCHAR
STARTCHAR uni04C3
ENCODING 1219
SWIDTH 628 0
DWIDTH 13 0
BBX 12 19 1 -5
BITMAP
07402E
074078
0B01E0
0E0780
0E1E00
1D7800
2DE000
2FF900
3E6F80
7802D0
7400E0
B000F0
F000F0
E000E0
0001E0
0003C0
000B80
2ABE00
2FE400
ENDCHAR
STARTCHAR uni04C4
ENCODING 1220
SWIDTH 514 0
DWIDTH 10 0
BBX 10 16 0 -5
BITMAP
0740E0
070380
0B0F00
0E2C00
0EB000
1FF800
1D5F00
2C0780
380380
3802C0
740380
000380
000740
001F00
19BD00
1BE000
ENDCHAR
STARTCHAR uni04C5
ENCODING 1221
SWIDTH 649 0
DWIDTH 13 0
BBX 14 18 -1 -4
BITMAP
0003FFF0
0007AAE0
000B01D0
000E01D0
001D02C0
002C0380
00380380
00780740
00B40B00
00F00B00
01E00E00
02C01D00
6B401E40
BD002F40
00000700
00000E00
00002D00
00003800
ENDCHAR
STARTCHAR uni04C6
ENCODING 1222
SWIDTH 536 0
DWIDTH 11 0
BBX 11 15 -1 -4
BITMAP
0007F8
002E78
007438
00B074
00E074
01D0B0
02C0E0
0380E0
0B01D0
6D01E4
F802F4
000070
0000E0
0001C0
000380
ENDCHAR
STARTCHAR uni04C7
ENCODING 1223
SWIDTH 678 0
DWIDTH 14 0
BBX 13 19 1 -5
BITMAP
07400380
07400740
0B000B00
0E000B00
0E000E00
1D001D00
2FFFFD00
2D557C00
38003800
74003800
74007400
B000B000
E000B000
E000E000
0001D000
0002C000
000B4000
3ABE0000
2FE40000
ENDCHAR
STARTCHAR uni04C8
ENCODING 1224
SWIDTH 599 0
DWIDTH 12 0
BBX 12 16 0 -5
BITMAP
07401D
07402C
0B002C
0E0038
0E0034
1FFFF4
1E55B0
2C00A0
3800E0
3801D0
7401D0
0002C0
000380
000B40
0A6E00
07F800
ENDCHAR
STARTCHAR uni04C9
ENCODING 1225
SWIDTH 684 0
DWIDTH 14 0
BBX 13 18 1 -4
BITMAP
07400380
07400740
0B000B00
0E000B00
0E000E00
1D001D00
2FFFFD00
2D557C00
38003800
74003800
74007400
B000B000
E000B900
E000FD00
00002800
00007400
0000F000
0001D000
ENDCHAR
STARTCHAR uni04CA
ENCODING 1226
SWIDTH 599 0
DWIDTH 12 0
BBX 12 15 0 -4
BITMAP
07401D
07402C
0B002C
0E0038
0E0034
1FFFF4
1E55B0
2C00A0
3800E0
3801E4
7401F8
000074
0000A0
0000D0
0002C0
ENDCHAR
STARTCHAR uni04CB
ENCODING 1227
SWIDTH 639 0
DWIDTH 13 0
BBX 11 18 2 -4
BITMAP
1D0038
2C0038
2C0074
3800B0
7400B0
7400E0
B000D0
7806D0
3FFFC0
055280
000380
000740
002B40
007F00
007000
00B000
00A000
00E000
ENDCHAR
STARTCHAR uni04CC
ENCODING 1228
SWIDTH 578 0
DWIDTH 12 0
BBX 9 15 2 -4
BITMAP
7402C0
B00380
B00740
E00B40
E01F00
F07E00
7FDE00
051D00
001D00
006C00
01F800
01D000
02C000
02C000
038000
ENDCHAR
STARTCHAR uni04CD
ENCODING 1229
SWIDTH 841 0
DWIDTH 17 0
BBX 16 18 1 -4
BITMAP
07D0003E
07D000BD
0AE001ED
0EA002AC
0DA0076C
1DB00E38
2C701C74
28703874
3834B0B0
7434D0E0
703AC0E0
B02F41D0
E02E02E4
E01D02F4
00000070
000000E0
000002C0
00000780
ENDCHAR
STARTCHAR uni04CE
ENCODING 1230
SWIDTH 688 0
DWIDTH 14 0
BBX 13 15 0 -4
BITMAP
078003C0
07C00BC0
0BC01F80
0ED02B40
0DD07740
1CA0D700
1CA1CB00
28634A00
387A0D00
343D1E40
70381F40
00000700
00000E00
00001D00
00002800
ENDCHAR
STARTCHAR uni04CF
ENCODING 1231
SWIDTH 272 0
DWIDTH 5 0
BBX 5 14 1 0
BITMAP
0740
0740
0B00
0E00
0E00
1D00
2C00
2C00
3800
7400
7400
B000
E000
E000
ENDCHAR
STARTCHAR uni04D0
ENCODING 1232
SWIDTH 555 0
DWIDTH 11 0
BBX 13 18 -1 0
BITMAP
001C0380
001E5B00
0007F900
00000000
0002D000
0007E000
000AA000
001DA000
0038B000
0074B000
00E07400
02D07400
03FFF400
0BAAB800
1E003800
2C002C00
78002C00
F0002C00
ENDCHAR
STARTCHAR uni04D1
ENCODING 1233
SWIDTH 564 0
DWIDTH 11 0
BBX 10 15 1 0
BITMAP
028070
02D5E0
00BF40
000000
02F870
0F9AA0
2D03D0
7802D0
B002C0
F00380
E00780
E00B40
E02F40
B9AB00
2F8A00
ENDCHAR
STARTCHAR uni04D2
ENCODING 1234
SWIDTH 555 0
DWIDTH 11 0
BBX 12 18 -1 0
BITMAP
000A0D
000A1D
000000
000000
0002D0
0007E0
000AA0
001DA0
0038B0
0074B0
00E074
02D074
03FFF4
0BAAB8
1E0038
2C002C
78002C
F0002C
ENDCHAR
STARTCHAR uni04D3
ENCODING 1235
SWIDTH 564 0
DWIDTH 11 0
BBX 10 15 1 0
BITMAP
01C280
01C240
000000
000000
02F870
0F9AA0
2D03D0
7802D0
B002C0
F00380
E00780
E00B40
E02F40
B9AB00
2F8A00
ENDCHAR
STARTCHAR uni04D4
ENCODING 1236
SWIDTH 816 0
DWIDTH 16 0
BBX 18 14 -1 0
BITMAP
00007FFFF0
0000EBAA90
0002DB0000
00078B0000
000F0E0000
002D1D0000
00781FFF40
00F02D5500
02FFF80000
07AAB80000
0F00740000
2D00B00000
7800B55500
B000FFFD00
ENDCHAR
STARTCHAR uni04D5
ENCODING 1237
SWIDTH 814 0
DWIDTH 16 0
BBX 15 11 1 0
BITMAP
02F4DBE0
0F9EFDB8
2D07E028
7803C038
B00381F4
F007FF90
E00B5400
E01F4000
E03F8000
B9DFE6A0
2E4DBF90
ENDCHAR
STARTCHAR uni04D6
ENCODING 1238
SWIDTH 511 0
DWIDTH 10 0
BBX 11 18 1 0
BITMAP
01C034
01E5B0
007F80
000000
07FFF0
07AA90
0B0000
0E0000
0E0000
1D0000
2FFF40
2D5500
380000
740000
740000
B00000
F55400
FFFC00
ENDCHAR
STARTCHAR uni04D7
ENCODING 1239
SWIDTH 493 0
DWIDTH 10 0
BBX 10 15 1 0
BITMAP
0A01D0
075780
02FE00
000000
02F900
0F9F00
2D0740
780B00
B06E00
FFF400
E50000
E00000
B00000
7D6C00
1BE400
ENDCHAR
STARTCHAR uni04D8
ENCODING 1240
SWIDTH 661 0
DWIDTH 13 0
BBX 12 14 1 0
BITMAP
06BF90
0FAAF4
04007C
00002D
00001D
00001E
01AFFD
2FEA6D
B8003C
F00078
E000F0
F007D0
BEAF40
1BE400
ENDCHAR
STARTCHAR uni04D9
ENCODING 1241
SWIDTH 493 0
DWIDTH 10 0
BBX 9 11 0 0
BITMAP
06F900
0E6F40
000780
0003C0
000280
06BF80
1F9B40
780B00
741E00
79B800
1FD000
ENDCHAR
STARTCHAR uni04DA
ENCODING 1242
SWIDTH 661 0
DWIDTH 13 0
BBX 12 18 1 0
BITMAP
003470
0034A0
000000
000000
06BF90
0FAAF4
04007C
00002D
00001D
00001E
01AFFD
2FEA6D
B8003C
F00078
E000F0
F007D0
BEAF40
1BE400
ENDCHAR
STARTCHAR uni04DB
ENCODING 1243
SWIDTH 493 0
DWIDTH 10 0
BBX 9 15 0 0
BITMAP
01C340
018340
000000
000000
06F900
0E6F40
000780
0003C0
000280
06BF80
1F9B40
780B00
741E00
79B800
1FD000
ENDCHAR
STARTCHAR uni04DC
ENCODING 1244
SWIDTH 775 0
DWIDTH 16 0
BBX 18 18 -1 0
BITMAP
000070A000
000070A000
0000000000
0000000000
02D01D01E0
00E01D03C0
00B42C0F00
0038383C00
001D38B400
000F76D000
0007BB4000
000FBB0000
003CE78000
00B4D2C000
02D1D1E000
0B42C0B000
2D02C07800
B803802D00
ENDCHAR
STARTCHAR uni04DD
ENCODING 1245
SWIDTH 833 0
DWIDTH 17 0
BBX 18 15 -1 0
BITMAP
000070D000
0000A0D000
0000000000
0000000000
07E01D06F0
05B81C1E50
002C283800
002C38B000
001D34E000
002FFFD000
003DB6D000
0078A1D000
00F0E0E000
17D0D0B940
7E41C02F40
ENDCHAR
STARTCHAR uni04DE
ENCODING 1246
SWIDTH 532 0
DWIDTH 11 0
BBX 11 18 0 0
BITMAP
0070A0
0070A0
000000
000000
01BF80
07A6F0
0100B4
000074
0000B0
0006D0
07FD00
055B40
0002D0
0001D0
0001D0
0003C0
E96F40
6FE800
ENDCHAR
STARTCHAR uni04DF
ENCODING 1247
SWIDTH 436 0
DWIDTH 9 0
BBX 9 15 0 0
BITMAP
028340
028340
000000
000000
0AF900
0E6F00
000B00
000B00
001E00
07F400
057C00
000D00
001D00
E5BC00
BF9000
ENDCHAR
STARTCHAR uni04E0
ENCODING 1248
SWIDTH 525 0
DWIDTH 11 0
BBX 11 14 0 0
BITMAP
03FFF8
02AAF4
0002D0
000B40
002C00
00E000
02F900
015B80
0002C0
0001D0
0002C0
000780
E96F00
6FE400
ENDCHAR
STARTCHAR uni04E1
ENCODING 1249
SWIDTH 456 0
DWIDTH 9 0
BBX 11 16 -2 -5
BITMAP
01FFF8
0155B4
0001D0
000740
001D00
00B400
01F900
005B40
0002C0
0001D0
0001D0
0001D0
0002C0
000740
796E00
2FE400
ENDCHAR
STARTCHAR uni04E2
ENCODING 1250
SWIDTH 696 0
DWIDTH 14 0
BBX 13 17 1 0
BITMAP
00055400
002FF800
00000000
074007C0
07000F80
0B003B80
0E00B740
0D01DB00
1D074B00
2C0E0E00
2C280D00
38B01D00
75D02C00
77802800
BE003800
FC007400
F4007000
ENDCHAR
STARTCHAR uni04E3
ENCODING 1251
SWIDTH 577 0
DWIDTH 12 0
BBX 10 14 1 0
BITMAP
005540
01FF80
000000
1D00A0
2C00E0
2C01D0
3801D0
7402C0
740380
B00780
B00B40
E02F40
B9AB00
2F8A00
ENDCHAR
STARTCHAR uni04E4
ENCODING 1252
SWIDTH 696 0
DWIDTH 14 0
BBX 13 18 1 0
BITMAP
001C2800
001C2800
00000000
00000000
074007C0
07000F80
0B003B80
0E00B740
0D01DB00
1D074B00
2C0E0E00
2C280D00
38B01D00
75D02C00
77802800
BE003800
FC007400
F4007000
ENDCHAR
STARTCHAR uni04E5
ENCODING 1253
SWIDTH 577 0
DWIDTH 12 0
BBX 10 15 1 0
BITMAP
01C280
01C280
000000
000000
1D00A0
2C00E0
2C01D0
3801D0
7402C0
740380
B00780
B00B40
E02F40
B9AB00
2F8A00
ENDCHAR
STARTCHAR uni04E6
ENCODING 1254
SWIDTH 720 0
DWIDTH 14 0
BBX 13 18 1 0
BITMAP
001C2800
001C2800
00000000
00000000
006FE400
01FABD00
07800F00
1E000780
2D000380
38000380
74000380
74000780
B4000B40
74000F00
78002E00
3D007C00
1F9BE000
02FE4000
ENDCHAR
STARTCHAR uni04E7
ENCODING 1255
SWIDTH 561 0
DWIDTH 11 0
BBX 10 15 1 0
BITMAP
028340
028340
000000
000000
02FD00
0F9B40
2C02C0
7401D0
B001D0
E002C0
E002C0
E00380
B00B00
7D6D00
1BE400
ENDCHAR
STARTCHAR uni04E8
ENCODING 1256
SWIDTH 720 0
DWIDTH 14 0
BBX 13 14 1 0
BITMAP
006FE400
01FABD00
07800F00
1E000780
2C000380
38000380
7FFFFF80
79555B80
B4000B40
74000F00
78002E00
3D007C00
1F9BE000
02FE4000
ENDCHAR
STARTCHAR uni04E9
ENCODING 1257
SWIDTH 561 0
DWIDTH 11 0
BBX 10 11 1 0
BITMAP
02FD00
0F9B80
2D02C0
7802D0
B001D0
FFFFC0
E557C0
E00380
B00B00
796D00
1BE400
ENDCHAR
STARTCHAR uni04EA
ENCODING 1258
SWIDTH 720 0
DWIDTH 14 0
BBX 13 18 1 0
BITMAP
001C2800
001C2800
00000000
00000000
006FE400
01FABD00
07800F00
1E000780
2C000380
38000380
7FFFFF80
79555B80
B4000B40
74000F00
78002E00
3D007C00
1F9BE000
02FE4000
ENDCHAR
STARTCHAR uni04EB
ENCODING 1259
SWIDTH 561 0
DWIDTH 11 0
BBX 10 15 1 0
BITMAP
028340
028340
000000
000000
02FD00
0F9B80
2D02C0
7802D0
B001D0
FFFFC0
E557C0
E00380
B00B00
796D00
1BE400
ENDCHAR
STARTCHAR uni04EC
ENCODING 1260
SWIDTH 584 0
DWIDTH 12 0
BBX 11 18 0 0
BITMAP
0070A0
0060D0
000000
000000
06FE40
07ABE0
0000B8
00003C
00002C
00002C
02FFFC
01557C
000038
0000B4
0000E0
4007D0
B9AF40
6FE400
ENDCHAR
STARTCHAR uni04ED
ENCODING 1261
SWIDTH 456 0
DWIDTH 9 0
BBX 8 15 0 0
BITMAP
0347
0346
0000
0000
1BE4
197D
000F
000B
000B
1FFF
055F
000E
002C
A6F4
BF90
ENDCHAR
STARTCHAR uni04EE
ENCODING 1262
SWIDTH 571 0
DWIDTH 11 0
BBX 13 17 0 0
BITMAP
00155000
003FF400
00000000
0B0003C0
07400B40
03401E00
02802C00
02C07400
01D0E000
00E2C000
00B34000
007A0000
003D0000
00780000
01E00000
ABC00000
FE000000
ENDCHAR
STARTCHAR uni04EF
ENCODING 1263
SWIDTH 461 0
DWIDTH 9 0
BBX 12 19 -2 -5
BITMAP
001554
003FF4
000000
03800B
03801D
02C03C
02C074
01D0E0
01D1D0
00D380
00E740
00AE00
00BD00
00B800
00B000
00E000
02C000
5B4000
B90000
ENDCHAR
STARTCHAR uni04F0
ENCODING 1264
SWIDTH 571 0
DWIDTH 11 0
BBX 13 18 0 0
BITMAP
00283400
00287400
00000000
00000000
0B0003C0
07400B40
03401E00
02802C00
02C07400
01D0E000
00E2C000
00B34000
007A0000
003D0000
00780000
01E00000
ABC00000
FE000000
ENDCHAR
STARTCHAR uni04F1
ENCODING 1265
SWIDTH 461 0
DWIDTH 9 0
BBX 12 20 -2 -5
BITMAP
001C34
002834
000000
000000
03800B
03801D
02C03C
02C074
01D0E0
01D1D0
00D380
00E740
00AE00
00BD00
00B800
00B000
00E000
02C000
5B4000
B90000
ENDCHAR
STARTCHAR uni04F2
ENCODING 1266
SWIDTH 571 0
DWIDTH 11 0
BBX 13 18 0 0
BITMAP
00038B40
000A1D00
00286400
00000000
0B0003C0
07400B40
03401E00
02802C00
02C07400
01D0E000
00E2C000
00B34000
007A0000
003D0000
00780000
01E00000
ABC00000
FE000000
ENDCHAR
STARTCHAR uni04F3
ENCODING 1267
SWIDTH 461 0
DWIDTH 9 0
BBX 12 20 -2 -5
BITMAP
00038B
000A1D
002860
000000
03800B
03801D
02C03C
02C074
01D0E0
01D1D0
00D380
00E740
00AE00
00BD00
00B800
00B000
00E000
02C000
5B4000
B90000
ENDCHAR
STARTCHAR uni04F4
ENCODING 1268
SWIDTH 639 0
DWIDTH 13 0
BBX 11 18 2 0
BITMAP
00D1C0
00D1C0
000000
000000
1D0038
2C0038
2C0074
3800B0
7400B0
7400E0
B400D0
7816D0
3FFFC0
055280
000380
000740
000740
000B00
ENDCHAR
STARTCHAR uni04F5
ENCODING 1269
SWIDTH 555 0
DWIDTH 11 0
BBX 10 15 1 0
BITMAP
028740
028700
000000
000000
2C01D0
3801D0
7402C0
740380
740B80
782B40
2FE700
050B00
000E00
000E00
001D00
ENDCHAR
STARTCHAR uni04F6
ENCODING 1270
SWIDTH 476 0
DWIDTH 10 0
BBX 10 18 1 -4
BITMAP
07FFF0
07AA90
0B0000
0E0000
0E0000
1D0000
2C0000
2C0000
380000
740000
740000
B00000
F80000
FC0000
2C0000
380000
380000
740000
ENDCHAR
STARTCHAR uni04F7
ENCODING 1271
SWIDTH 382 0
DWIDTH 8 0
BBX 9 15 0 -4
BITMAP
07FF40
075500
0B0000
0E0000
0E0000
1D0000
1C0000
2C0000
380000
390000
7E0000
1E0000
1D0000
2C0000
2C0000
ENDCHAR
STARTCHAR uni04F8
ENCODING 1272
SWIDTH 786 0
DWIDTH 16 0
BBX 15 18 1 0
BITMAP
00070E00
00060D00
00000000
00000000
07400038
07400078
0B000074
0E0000B0
0E0000B0
1D0000E0
2FF901D0
2D6F41D0
380382C0
7403C380
74038380
B00B4740
F5AE0B00
FFE40B00
ENDCHAR
STARTCHAR uni04F9
ENCODING 1273
SWIDTH 721 0
DWIDTH 14 0
BBX 13 15 1 0
BITMAP
00347000
0034A000
00000000
00000000
1D000380
2C000340
2C000740
38000B00
78000B00
7FF80E00
B96E1D00
B00E1D00
B00E2C00
797D2C00
1BE43800
ENDCHAR
STARTCHAR uni04FA
ENCODING 1274
SWIDTH 471 0
DWIDTH 9 0
BBX 11 18 0 -4
BITMAP
01FFFC
01EAA4
02C000
038000
078000
074000
3FFD00
1F5400
0E0000
1D0000
1D0000
2C0000
3D0000
3F0000
0A0000
0E0000
6D0000
B80000
ENDCHAR
STARTCHAR uni04FB
ENCODING 1275
SWIDTH 382 0
DWIDTH 8 0
BBX 9 15 0 -4
BITMAP
07FF40
075500
0B0000
0E0000
0E0000
BFF000
6D5000
2C0000
380000
390000
7E0000
0D0000
0D0000
6C0000
F40000
ENDCHAR
STARTCHAR uni04FC
ENCODING 1276
SWIDTH 508 0
DWIDTH 10 0
BBX 13 18 -1 -4
BITMAP
02C00780
01D00E00
00B02C00
0074B400
0039D000
002F8000
001E0000
003F0000
00B74000
01D38000
0742C000
0E01D000
2C00E400
B400BC00
00002800
00003800
0001B400
0002E000
ENDCHAR
STARTCHAR uni04FD
ENCODING 1277
SWIDTH 469 0
DWIDTH 9 0
BBX 11 15 -1 -4
BITMAP
074078
02C0E0
01D2C0
00EB40
007D00
007800
00FC00
02CE00
0B0B00
1D0790
7802E0
0000D0
0000D0
0006C0
000F40
ENDCHAR
STARTCHAR uni04FE
ENCODING 1278
SWIDTH 519 0
DWIDTH 10 0
BBX 13 14 -1 0
BITMAP
02C00780
01D00E00
00A02C00
00707400
0039D000
002F8000
07FFF800
06BFA400
00BB4000
01D38000
0782C000
0E01D000
2C00E000
B400B000
ENDCHAR
STARTCHAR uni04FF
ENCODING 1279
SWIDTH 478 0
DWIDTH 10 0
BBX 11 11 -1 0
BITMAP
074078
02C0F0
01D2D0
00EB40
00BE00
0FFFE0
05FD40
02CD00
0B0B00
1D0740
7802C0
ENDCHAR
STARTCHAR uni0500
ENCODING 1280
SWIDTH 565 0
DWIDTH 11 0
BBX 11 14 1 0
BITMAP
000074
0000B0
0000B0
0000E0
0001D0
0001D0
06FFC0
2E9780
B40380
E00740
E00B00
F00B00
7E5E00
1BFE00
ENDCHAR
STARTCHAR uni0501
ENCODING 1281
SWIDTH 577 0
DWIDTH 12 0
BBX 11 15 1 0
BITMAP
000038
000038
000074
0000B0
02F8B0
0F9AE0
2D02E0
7802D0
B002C0
F003C0
E00780
E00B40
E02F40
B9AB00
2F8A00
ENDCHAR
STARTCHAR uni0502
ENCODING 1282
SWIDTH 831 0
DWIDTH 17 0
BBX 15 14 1 0
BITMAP
00007400
00007400
0000B000
0000E000
0000E000
0001D000
06FFC038
2FA7C074
780380B0
B00740B0
E00740E0
F00F41D0
B9BBDB80
1FE1BE00
ENDCHAR
STARTCHAR uni0503
ENCODING 1283
SWIDTH 850 0
DWIDTH 17 0
BBX 15 15 1 0
BITMAP
00003800
00003800
00007400
00007000
02F8B000
0F9AE000
2D02D000
7802D000
B002C038
F0038074
E0078074
E00B40B0
E02F40E0
B9B6D7C0
2F80BE40
ENDCHAR
STARTCHAR uni0504
ENCODING 1284
SWIDTH 837 0
DWIDTH 17 0
BBX 14 14 2 0
BITMAP
1BF90000
7E6F0000
10074000
00074000
000B0000
006D0000
7FE000E0
15B801D0
002C01D0
002D02C0
002D0380
002D0780
001FAF00
0006F800
ENDCHAR
STARTCHAR uni0505
ENCODING 1285
SWIDTH 743 0
DWIDTH 15 0
BBX 13 11 1 0
BITMAP
2FE00000
79B80000
002C0000
002C0000
00740740
2FD00740
15F00B00
00740E00
00741E00
00397C00
001BE000
ENDCHAR
STARTCHAR uni0506
ENCODING 1286
SWIDTH 569 0
DWIDTH 11 0
BBX 9 18 2 -4
BITMAP
1BF900
7E6F00
100740
000740
000B00
006D00
7FE000
15B800
002D00
001D00
001D00
002C00
003E00
003F00
000B00
000E00
000D00
001D00
ENDCHAR
STARTCHAR uni0507
ENCODING 1287
SWIDTH 470 0
DWIDTH 9 0
BBX 8 15 1 -4
BITMAP
2FE0
79B8
002C
002C
0074
2FD0
15F0
0074
0074
00B4
00FD
002C
0038
0038
0074
ENDCHAR
STARTCHAR uni0508
ENCODING 1288
SWIDTH 895 0
DWIDTH 18 0
BBX 18 14 -1 0
BITMAP
0003FFD000
0007AAD000
000B02C000
000E038000
001D038000
002C074000
00380B00E0
00780B00E0
00B40E01D0
00F01D02C0
01E01D0380
02C01D0780
6B400FAF00
BD0006F800
ENDCHAR
STARTCHAR uni0509
ENCODING 1289
SWIDTH 806 0
DWIDTH 16 0
BBX 16 11 -1 0
BITMAP
0007F800
002E7C00
00743800
00B07400
00E0740E
01D0B00E
02C0E01D
0380E02C
0B00E038
6D00B5B4
F8002FD0
ENDCHAR
STARTCHAR uni050A
ENCODING 1290
SWIDTH 953 0
DWIDTH 19 0
BBX 17 14 1 0
BITMAP
0740038000
0740074000
0B000B0000
0E000B0000
0E000E0000
1D001D0000
2FFFFD02C0
2D557C0380
3800380740
7400380740
7400740B00
B000740E00
E0003EBD00
E0001BE400
ENDCHAR
STARTCHAR uni050B
ENCODING 1291
SWIDTH 867 0
DWIDTH 17 0
BBX 16 11 0 0
BITMAP
07401D00
07402C00
0B002C00
0E003800
0E00340B
1FFFF40E
1E55B00E
2C00A01D
3800F02C
3800B9B4
74002FD0
ENDCHAR
STARTCHAR uni050C
ENCODING 1292
SWIDTH 695 0
DWIDTH 14 0
BBX 12 14 1 0
BITMAP
002BF9
01FAAF
07D000
0F0000
2D0000
3C0000
780000
7403FF
B4015F
74000E
78001D
3D0078
1FAAF0
02FE40
ENDCHAR
STARTCHAR uni050D
ENCODING 1293
SWIDTH 588 0
DWIDTH 12 0
BBX 10 11 1 0
BITMAP
01BF90
0B9590
2D0000
740000
B00000
E03FE0
E015E0
E001D0
B00380
7D5F00
1BF800
ENDCHAR
STARTCHAR uni050E
ENCODING 1294
SWIDTH 658 0
DWIDTH 13 0
BBX 10 14 2 0
BITMAP
FFFFE0
56E550
01D000
02C000
038000
038000
0740B0
0B00E0
0B00E0
0E01D0
0E02C0
1E0380
0FAF40
02F900
ENDCHAR
STARTCHAR uni050F
ENCODING 1295
SWIDTH 586 0
DWIDTH 12 0
BBX 10 11 1 0
BITMAP
FFFE00
5B9500
074000
0B0000
0E01D0
0E01C0
1D02C0
1D0380
1D0740
1F6F00
06F800
ENDCHAR
STARTCHAR uni0510
ENCODING 1296
SWIDTH 539 0
DWIDTH 11 0
BBX 11 14 1 0
BITMAP
00BF90
07E6F4
0B4010
0E0000
0B0000
078000
01FF40
1F9500
780000
B00000
B00000
B40000
7E5B40
1BFA00
ENDCHAR
STARTCHAR uni0511
ENCODING 1297
SWIDTH 444 0
DWIDTH 9 0
BBX 9 11 0 0
BITMAP
01BE40
079680
0E0000
0E0000
0B4000
03F800
1E5400
740000
740000
3D6A00
1BF900
ENDCHAR
STARTCHAR uni0512
ENCODING 1298
SWIDTH 633 0
DWIDTH 13 0
BBX 14 18 -1 -4
BITMAP
0003FFF0
0007AAE0
000B01D0
000E01D0
001D02C0
002C0380
00380380
00780740
00B40B00
00F00B00
01E00E00
02C01D00
6B401E40
BD002F40
00000740
00000700
00001E00
00007900
ENDCHAR
STARTCHAR uni0513
ENCODING 1299
SWIDTH 526 0
DWIDTH 11 0
BBX 11 15 -1 -4
BITMAP
0007F8
002E78
007438
00B074
00E074
01D0B0
02C0E0
0380E0
0B01D0
6D01D0
F802F4
000070
0000B0
0005E0
000780
ENDCHAR
STARTCHAR uni1E00
ENCODING 7680
SWIDTH 555 0
DWIDTH 11 0
BBX 11 19 -1 -5
BITMAP
0002D0
0007E0
000AA0
001DA0
0038B0
0074B0
00E074
02D074
03FFF4
0BAAB8
1E0038
2C002C
78002C
F0002C
000000
01F800
034900
034900
01F800
ENDCHAR
STARTCHAR uni1E01
ENCODING 7681
SWIDTH 564 0
DWIDTH 11 0
BBX 10 16 1 -5
BITMAP
02F870
0F9AA0
2D03D0
7802D0
B002C0
F00380
E00780
E00B40
E02F40
B9AB00
2F8A00
000000
0B8000
24A000
24A000
0B8000
ENDCHAR
STARTCHAR uni1E3E
ENCODING 7742
SWIDTH 836 0
DWIDTH 17 0
BBX 16 18 1 0
BITMAP
00000B40
00001D00
00007400
00000000
07D0003E
07D000BD
0AE001ED
0EA002AC
0DA0076C
1DB00E38
2C701C74
28703874
3834B0B0
7434D0E0
703AC0E0
B02F41D0
E02E02C0
E01D02C0
ENDCHAR
STARTCHAR uni1E3F
ENCODING 7743
SWIDTH 872 0
DWIDTH 17 0
BBX 17 15 0 0
BITMAP
000003C000
00000B0000
0000280000
0000000000
075B81BD00
0775E79F00
0B80BD0740
0F40B40740
0E00B00B00
1D00E00B00
1C01D00E00
2C01D01D00
3802C01D00
3803802C00
7403803800
ENDCHAR
STARTCHAR Wgrave
ENCODING 7808
SWIDTH 852 0
DWIDTH 17 0
BBX 17 18 2 0
BITMAP
000B000000
0003800000
0001C00000
0000000000
B002D00780
B003D00B00
B00AD00E00
B00DE02C00
B02CE03800
B034A07400
B0B0A0E000
B0E0A1D000
71C0A28000
7780A74000
7700AB0000
7A00BD0000
7D007C0000
7800780000
ENDCHAR
STARTCHAR wgrave
ENCODING 7809
SWIDTH 716 0
DWIDTH 14 0
BBX 14 15 1 0
BITMAP
003C0000
001D0000
00070000
00000000
E00F00F0
A02F01D0
A03B02C0
B0770740
B0D74B00
B1C74E00
B3835C00
B7037800
BA03B400
7D03E000
7803D000
ENDCHAR
STARTCHAR Wacute
ENCODING 7810
SWIDTH 852 0
DWIDTH 17 0
BBX 17 18 2 0
BITMAP
00001E0000
0000380000
0000A00000
0000000000
B002D00780
B003D00B00
B00AD00E00
B00DE02C00
B02CE03800
B034A07400
B0B0A0E000
B0E0A1D000
71C0A28000
7780A74000
7700AB0000
7A00BD0000
7D007C0000
7800780000
ENDCHAR
STARTCHAR wacute
ENCODING 7811
SWIDTH 716 0
DWIDTH 14 0
BBX 14 15 1 0
BITMAP
0000B400
0001D000
00074000
00000000
E00F00F0
A02F01D0
A03B02C0
B0770740
B0D74B00
B1C74E00
B3835C00
B7037800
BA03B400
7D03E000
7803D000
ENDCHAR
STARTCHAR Wdieresis
ENCODING 7812
SWIDTH 852 0
DWIDTH 17 0
BBX 17 18 2 0
BITMAP
000A1D0000
000A1C0000
0000000000
0000000000
B002D00780
B003D00B00
B00AD00E00
B00DE02C00
B02CE03800
B034A07400
B0B0A0E000
B0E0A1D000
71C0A28000
7780A74000
7700AB0000
7A00BD0000
7D007C0000
7800780000
ENDCHAR
STARTCHAR wdieresis
ENCODING 7813
SWIDTH 716 0
DWIDTH 14 0
BBX 14 15 1 0
BITMAP
0034A000
0074A000
00000000
00000000
E00F00F0
A02F01D0
A03B02C0
B0770740
B0D74B00
B1C74E00
B3835C00
B7037800
BA03B400
7D03E000
7803D000
ENDCHAR
STARTCHAR uni1EA0
ENCODING 7840
SWIDTH 555 0
DWIDTH 11 0
BBX 11 17 -1 -3
BITMAP
0002D0
0007E0
000AA0
001DA0
0038B0
0074B0
00E074
02D074
03FFF4
0BAAB8
1E0038
2C002C
78002C
F0002C
000000
007400
007000
ENDCHAR
STARTCHAR uni1EA1
ENCODING 7841
SWIDTH 564 0
DWIDTH 11 0
BBX 10 14 1 -3
BITMAP
02F870
0F9AA0
2D03D0
7802D0
B002C0
F00380
E00780
E00B40
E02F40
B9AB00
2F8A00
000000
0B0000
0A0000
ENDCHAR
STARTCHAR uni1EA2
ENCODING 7842
SWIDTH 555 0
DWIDTH 11 0
BBX 12 20 -1 0
BITMAP
0000F8
00001D
00002C
0000E4
0000C0
000000
0002D0
0007E0
000AA0
001DA0
0038B0
0074B0
00E074
02D074
03FFF4
0BAAB8
1E0038
2C002C
78002C
F0002C
ENDCHAR
STARTCHAR uni1EA3
ENCODING 7843
SWIDTH 564 0
DWIDTH 11 0
BBX 10 17 1 0
BITMAP
002E00
000280
000740
002D00
002400
000000
02F870
0F9AA0
2D03D0
7802D0
B002C0
F00380
E00780
E00B40
E02F40
B9AB00
2F8A00
ENDCHAR
STARTCHAR uni1EA4
ENCODING 7844
SWIDTH 555 0
DWIDTH 11 0
BBX 14 19 -1 0
BITMAP
000000B0
0001F280
00076800
00090900
00000000
0002D000
0007E000
000AA000
001DA000
0038B000
0074B000
00E07400
02D07400
03FFF400
0BAAB800
1E003800
2C002C00
78002C00
F0002C00
ENDCHAR
STARTCHAR uni1EA5
ENCODING 7845
SWIDTH 564 0
DWIDTH 11 0
BBX 12 16 1 0
BITMAP
00001D
002E64
00A700
028180
000000
02F870
0F9AA0
2D03D0
7802D0
B002C0
F00380
E00780
E00B40
E02F40
B9AB00
2F8A00
ENDCHAR
STARTCHAR uni1EA6
ENCODING 7846
SWIDTH 555 0
DWIDTH 11 0
BBX 12 19 -1 0
BITMAP
00A000
0025F0
000768
000909
000000
0002D0
0007E0
000AA0
001DA0
0038B0
0074B0
00E074
02D074
03FFF4
0BAAB8
1E0038
2C002C
78002C
F0002C
ENDCHAR
STARTCHAR uni1EA7
ENCODING 7847
SWIDTH 564 0
DWIDTH 11 0
BBX 10 16 1 0
BITMAP
0D0000
062E00
00A700
028180
000000
02F870
0F9AA0
2D03D0
7802D0
B002C0
F00380
E00780
E00B40
E02F40
B9AB00
2F8A00
ENDCHAR
STARTCHAR uni1EA8
ENCODING 7848
SWIDTH 555 0
DWIDTH 11 0
BBX 14 20 -1 0
BITMAP
000002D0
000000A0
0001F240
00076800
00090900
00000000
0002D000
0007E000
000AA000
001DA000
0038B000
0074B000
00E07400
02D07400
03FFF400
0BAAB800
1E003800
2C002C00
78002C00
F0002C00
ENDCHAR
STARTCHAR uni1EA9
ENCODING 7849
SWIDTH 564 0
DWIDTH 11 0
BBX 11 17 1 0
BITMAP
000068
00001C
002E64
00A700
028180
000000
02F870
0F9AA0
2D03D0
7802D0
B002C0
F00380
E00780
E00B40
E02F40
B9AB00
2F8A00
ENDCHAR
STARTCHAR uni1EAA
ENCODING 7850
SWIDTH 555 0
DWIDTH 11 0
BBX 13 21 -1 0
BITMAP
0007E180
00096F40
00040000
0001F000
00036800
00090900
00000000
0002D000
0007E000
000AA000
001DA000
0038B000
0074B000
00E07400
02D07400
03FFF400
0BAAB800
1E003800
2C002C00
78002C00
F0002C00
ENDCHAR
STARTCHAR uni1EAB
ENCODING 7851
SWIDTH 564 0
DWIDTH 11 0
BBX 11 18 1 0
BITMAP
00B924
019BE0
000000
002E00
00A700
028180
000000
02F870
0F9AA0
2D03D0
7802D0
B002C0
F00380
E00780
E00B40
E02F40
B9AB00
2F8A00
ENDCHAR
STARTCHAR uni1EAC
ENCODING 7852
SWIDTH 555 0
DWIDTH 11 0
BBX 12 21 -1 -3
BITMAP
0000F0
0003B8
001D0D
000000
0002D0
0007E0
000AA0
001DA0
0038B0
0074B0
00E074
02D074
03FFF4
0BAAB8
1E0038
2C002C
78002C
F0002C
000000
007400
007000
ENDCHAR
STARTCHAR uni1EAD
ENCODING 7853
SWIDTH 564 0
DWIDTH 11 0
BBX 10 18 1 -3
BITMAP
002D00
00BB00
028280
000000
02F870
0F9AA0
2D03D0
7802D0
B002C0
F00380
E00780
E00B40
E02F40
B9AB00
2F8A00
000000
0B0000
0A0000
ENDCHAR
STARTCHAR uni1EAE
ENCODING 7854
SWIDTH 555 0
DWIDTH 11 0
BBX 12 20 -1 0
BITMAP
00001D
000064
000C0A
000A6D
0002E4
000000
0002D0
0007E0
000AA0
001DA0
0038B0
0074B0
00E074
02D074
03FFF4
0BAAB8
1E0038
2C002C
78002C
F0002C
ENDCHAR
STARTCHAR uni1EAF
ENCODING 7855
SWIDTH 564 0
DWIDTH 11 0
BBX 10 17 1 0
BITMAP
000280
000900
0280C0
01D680
007E00
000000
02F870
0F9AA0
2D03D0
7802D0
B002C0
F00380
E00780
E00B40
E02F40
B9AB00
2F8A00
ENDCHAR
STARTCHAR uni1EB0
ENCODING 7856
SWIDTH 555 0
DWIDTH 11 0
BBX 12 20 -1 0
BITMAP
000280
000090
000C0A
000A6D
0002E4
000000
0002D0
0007E0
000AA0
001DA0
0038B0
0074B0
00E074
02D074
03FFF4
0BAAB8
1E0038
2C002C
78002C
F0002C
ENDCHAR
STARTCHAR uni1EB1
ENCODING 7857
SWIDTH 564 0
DWIDTH 11 0
BBX 10 17 1 0
BITMAP
007000
001800
0280C0
01D680
007E00
000000
02F870
0F9AA0
2D03D0
7802D0
B002C0
F00380
E00780
E00B40
E02F40
B9AB00
2F8A00
ENDCHAR
STARTCHAR uni1EB2
ENCODING 7858
SWIDTH 555 0
DWIDTH 11 0
BBX 12 20 -1 0
BITMAP
0000B4
000028
000CAA
000A6D
0002E4
000000
0002D0
0007E0
000AA0
001DA0
0038B0
0074B0
00E074
02D074
03FFF4
0BAAB8
1E0038
2C002C
78002C
F0002C
ENDCHAR
STARTCHAR uni1EB3
ENCODING 7859
SWIDTH 564 0
DWIDTH 11 0
BBX 10 17 1 0
BITMAP
001A00
000300
0299C0
01D680
007E00
000000
02F870
0F9AA0
2D03D0
7802D0
B002C0
F00380
E00780
E00B40
E02F40
B9AB00
2F8A00
ENDCHAR
STARTCHAR uni1EB4
ENCODING 7860
SWIDTH 555 0
DWIDTH 11 0
BBX 13 21 -1 0
BITMAP
0007D280
000D7F00
00000000
000C0A00
000A6D00
0002E400
00000000
0002D000
0007E000
000AA000
001DA000
0038B000
0074B000
00E07400
02D07400
03FFF400
0BAAB800
1E003800
2C002C00
78002C00
F0002C00
ENDCHAR
STARTCHAR uni1EB5
ENCODING 7861
SWIDTH 564 0
DWIDTH 11 0
BBX 10 18 1 0
BITMAP
00B930
029BD0
000000
0280C0
01D680
007E00
000000
02F870
0F9AA0
2D03D0
7802D0
B002C0
F00380
E00780
E00B40
E02F40
B9AB00
2F8A00
ENDCHAR
STARTCHAR uni1EB6
ENCODING 7862
SWIDTH 555 0
DWIDTH 11 0
BBX 12 21 -1 -3
BITMAP
000D06
000A6D
0002F4
000000
0002D0
0007E0
000AA0
001DA0
0038B0
0074B0
00E074
02D074
03FFF4
0BAAB8
1E0038
2C002C
78002C
F0002C
000000
007400
007000
ENDCHAR
STARTCHAR uni1EB7
ENCODING 7863
SWIDTH 564 0
DWIDTH 11 0
BBX 10 18 1 -3
BITMAP
0180C0
00E680
007E00
000000
02F870
0F9AA0
2D03D0
7802D0
B002C0
F00380
E00780
E00B40
E02F40
B9AB00
2F8A00
000000
0B0000
0A0000
ENDCHAR
STARTCHAR uni1EB8
ENCODING 7864
SWIDTH 511 0
DWIDTH 10 0
BBX 10 17 1 -3
BITMAP
07FFF0
07AA90
0B0000
0E0000
0E0000
1D0000
2FFF40
2D5500
380000
740000
740000
B00000
F55400
FFFC00
000000
0B0000
0A0000
ENDCHAR
STARTCHAR uni1EB9
ENCODING 7865
SWIDTH 493 0
DWIDTH 10 0
BBX 9 14 1 -3
BITMAP
02F900
0F9F00
2D0740
780B00
B06E00
FFF400
E50000
E00000
B00000
7D6C00
1BE400
000000
0E0000
0E0000
ENDCHAR
STARTCHAR uni1EBA
ENCODING 7866
SWIDTH 511 0
DWIDTH 10 0
BBX 10 20 1 0
BITMAP
001F40
0001C0
0002C0
000E00
001C00
000000
07FFF0
07AA90
0B0000
0E0000
0E0000
1D0000
2FFF40
2D5500
380000
740000
740000
B00000
F55400
FFFC00
ENDCHAR
STARTCHAR uni1EBB
ENCODING 7867
SWIDTH 493 0
DWIDTH 10 0
BBX 9 17 1 0
BITMAP
007D00
000700
001A00
007800
006000
000000
02F900
0F9F00
2D0740
780B00
B06E00
FFF400
E50000
E00000
B00000
7D6C00
1BE400
ENDCHAR
STARTCHAR uni1EBC
ENCODING 7868
SWIDTH 511 0
DWIDTH 10 0
BBX 10 18 1 0
BITMAP
00B430
01AEA0
0246D0
000000
07FFF0
07AA90
0B0000
0E0000
0E0000
1D0000
2FFF40
2D5500
380000
740000
740000
B00000
F55400
FFFC00
ENDCHAR
STARTCHAR uni1EBD
ENCODING 7869
SWIDTH 493 0
DWIDTH 10 0
BBX 9 15 1 0
BITMAP
02D0C0
0ABA80
0C1E00
000000
02F900
0F9F00
2D0740
780B00
B06E00
FFF400
E50000
E00000
B00000
7D6C00
1BE400
ENDCHAR
STARTCHAR uni1EBE
ENCODING 7870
SWIDTH 511 0
DWIDTH 10 0
BBX 12 19 1 0
BITMAP
00000B
001F28
007680
019090
000000
07FFF0
07AA90
0B0000
0E0000
0E0000
1D0000
2FFF40
2D5500
380000
740000
740000
B00000
F55400
FFFC00
ENDCHAR
STARTCHAR uni1EBF
ENCODING 7871
SWIDTH 493 0
DWIDTH 10 0
BBX 11 16 1 0
BITMAP
00002C
007CA0
01DA00
064240
000000
02F900
0F9F00
2D0740
780B00
B06E00
FFF400
E50000
E00000
B00000
7D6C00
1BE400
ENDCHAR
STARTCHAR uni1EC0
ENCODING 7872
SWIDTH 511 0
DWIDTH 10 0
BBX 10 19 1 0
BITMAP
0A0000
025F00
007680
019090
000000
07FFF0
07AA90
0B0000
0E0000
0E0000
1D0000
2FFF40
2D5500
380000
740000
740000
B00000
F55400
FFFC00
ENDCHAR
STARTCHAR uni1EC1
ENCODING 7873
SWIDTH 493 0
DWIDTH 10 0
BBX 9 16 1 0
BITMAP
280000
097C00
01DA00
064240
000000
02F900
0F9F00
2D0740
780B00
B06E00
FFF400
E50000
E00000
B00000
7D6C00
1BE400
ENDCHAR
STARTCHAR uni1EC2
ENCODING 7874
SWIDTH 511 0
DWIDTH 10 0
BBX 12 20 1 0
BITMAP
00002D
00000A
001F24
007680
019090
000000
07FFF0
07AA90
0B0000
0E0000
0E0000
1D0000
2FFF40
2D5500
380000
740000
740000
B00000
F55400
FFFC00
ENDCHAR
STARTCHAR uni1EC3
ENCODING 7875
SWIDTH 493 0
DWIDTH 10 0
BBX 11 17 1 0
BITMAP
0000B4
000028
007C90
01DA00
064240
000000
02F900
0F9F00
2D0740
780B00
B06E00
FFF400
E50000
E00000
B00000
7D6C00
1BE400
ENDCHAR
STARTCHAR uni1EC4
ENCODING 7876
SWIDTH 511 0
DWIDTH 10 0
BBX 11 21 1 0
BITMAP
007E18
0096F4
004000
001F00
003680
009090
000000
07FFF0
07AA90
0B0000
0E0000
0E0000
1D0000
2FFF40
2D5500
380000
740000
740000
B00000
F55400
FFFC00
ENDCHAR
STARTCHAR uni1EC5
ENCODING 7877
SWIDTH 493 0
DWIDTH 10 0
BBX 10 18 1 0
BITMAP
01F860
025BD0
010000
007C00
00DA00
024240
000000
02F900
0F9F00
2D0740
780B00
B06E00
FFF400
E50000
E00000
B00000
7D6C00
1BE400
ENDCHAR
STARTCHAR uni1EC6
ENCODING 7878
SWIDTH 511 0
DWIDTH 10 0
BBX 10 21 1 -3
BITMAP
000F40
003A80
01D0D0
000000
07FFF0
07AA90
0B0000
0E0000
0E0000
1D0000
2FFF40
2D5500
380000
740000
740000
B00000
F55400
FFFC00
000000
0B0000
0A0000
ENDCHAR
STARTCHAR uni1EC7
ENCODING 7879
SWIDTH 493 0
DWIDTH 10 0
BBX 9 18 1 -3
BITMAP
007C00
01EE00
074740
000000
02F900
0F9F00
2D0740
780B00
B06E00
FFF400
E50000
E00000
B00000
7D6C00
1BE400
000000
0E0000
0E0000
ENDCHAR
STARTCHAR uni1EC8
ENCODING 7880
SWIDTH 272 0
DWIDTH 5 0
BBX 7 20 1 0
BITMAP
02E0
0028
0074
02D0
0240
0000
0740
0740
0B00
0E00
0E00
1D00
2C00
2C00
3800
7400
7400
B000
E000
E000
ENDCHAR
STARTCHAR uni1EC9
ENCODING 7881
SWIDTH 253 0
DWIDTH 5 0
BBX 7 17 0 0
BITMAP
02E0
0028
0074
02D0
0240
0000
0740
0740
0B00
0E00
0E00
1D00
1C00
2C00
3800
3800
7400
ENDCHAR
STARTCHAR uni1ECA
ENCODING 7882
SWIDTH 272 0
DWIDTH 5 0
BBX 6 17 0 -3
BITMAP
01D0
01D0
02C0
0380
0380
0740
0B00
0B00
0E00
1D00
1D00
2C00
3800
3800
0000
B000
A000
ENDCHAR
STARTCHAR uni1ECB
ENCODING 7883
SWIDTH 253 0
DWIDTH 5 0
BBX 5 18 0 -3
BITMAP
01C0
02C0
0000
0000
0740
0740
0B00
0E00
0E00
1D00
1C00
2C00
3800
3800
7400
0000
A000
E000
ENDCHAR
STARTCHAR uni1ECC
ENCODING 7884
SWIDTH 720 0
DWIDTH 14 0
BBX 13 17 1 -3
BITMAP
006FE400
01FABD00
07800F00
1E000780
2D000380
38000380
74000380
74000780
B4000B40
74000F00
78002E00
3D007C00
1F9BE000
02FE4000
00000000
00D00000
01D00000
ENDCHAR
STARTCHAR uni1ECD
ENCODING 7885
SWIDTH 561 0
DWIDTH 11 0
BBX 10 14 1 -3
BITMAP
02FD00
0F9B40
2C02C0
7401D0
B001D0
E002C0
E002C0
E00380
B00B00
7D6D00
1BE400
000000
074000
070000
ENDCHAR
STARTCHAR uni1ECE
ENCODING 7886
SWIDTH 720 0
DWIDTH 14 0
BBX 13 20 1 0
BITMAP
0001F400
00002800
00006800
0001E000
00018000
00000000
006FE400
01FABD00
07800F00
1E000780
2D000380
38000380
74000380
74000780
B4000B40
74000F00
78002E00
3D007C00
1F9BE000
02FE4000
ENDCHAR
STARTCHAR uni1ECF
ENCODING 7887
SWIDTH 561 0
DWIDTH 11 0
BBX 10 17 1 0
BITMAP
003E00
000340
000700
003900
003000
000000
02FD00
0F9B40
2C02C0
7401D0
B001D0
E002C0
E002C0
E00380
B00B00
7D6D00
1BE400
ENDCHAR
STARTCHAR uni1ED0
ENCODING 7888
SWIDTH 720 0
DWIDTH 14 0
BBX 14 19 1 0
BITMAP
000001D0
0002D640
000AB000
00241800
00000000
006FE400
01FABD00
07800F00
1E000780
2D000380
38000380
74000380
74000780
B4000B40
74000F00
78002E00
3D007C00
1F9BE000
02FE4000
ENDCHAR
STARTCHAR uni1ED1
ENCODING 7889
SWIDTH 561 0
DWIDTH 11 0
BBX 12 16 1 0
BITMAP
00002D
003DA0
00EA00
024240
000000
02FD00
0F9B40
2C02C0
7401D0
B001D0
E002C0
E002C0
E00380
B00B00
7D6D00
1BE400
ENDCHAR
STARTCHAR uni1ED2
ENCODING 7890
SWIDTH 720 0
DWIDTH 14 0
BBX 13 19 1 0
BITMAP
01C00000
0062D000
000AB000
00242400
00000000
006FE400
01FABD00
07800F00
1E000780
2D000380
38000380
74000380
74000780
B4000B40
74000F00
78002E00
3D007C00
1F9BE000
02FE4000
ENDCHAR
STARTCHAR uni1ED3
ENCODING 7891
SWIDTH 561 0
DWIDTH 11 0
BBX 10 16 1 0
BITMAP
1C0000
0A3D00
00EA00
024240
000000
02FD00
0F9B40
2C02C0
7401D0
B001D0
E002C0
E002C0
E00380
B00B00
7D6D00
1BE400
ENDCHAR
STARTCHAR uni1ED4
ENCODING 7892
SWIDTH 720 0
DWIDTH 14 0
BBX 13 20 1 0
BITMAP
00000680
00000180
0002D600
000AB000
00242400
00000000
006FE400
01FABD00
07800F00
1E000780
2D000380
38000380
74000380
74000780
B4000B40
74000F00
78002E00
3D007C00
1F9BE000
02FE4000
ENDCHAR
STARTCHAR uni1ED5
ENCODING 7893
SWIDTH 561 0
DWIDTH 11 0
BBX 11 17 1 0
BITMAP
0000B4
000028
003DA0
00EA00
024240
000000
02FD00
0F9B40
2C02C0
7401D0
B001D0
E002C0
E002C0
E00380
B00B00
7D6D00
1BE400
ENDCHAR
STARTCHAR uni1ED6
ENCODING 7894
SWIDTH 720 0
DWIDTH 14 0
BBX 13 21 1 0
BITMAP
000B9300
0029BD00
00000000
0002D000
000AB000
00242800
00000000
006FE400
01FABD00
07800F00
1E000780
2D000380
38000380
74000380
74000780
B4000B40
74000F00
78002E00
3D007C00
1F9BE000
02FE4000
ENDCHAR
STARTCHAR uni1ED7
ENCODING 7895
SWIDTH 561 0
DWIDTH 11 0
BBX 10 18 1 0
BITMAP
00B870
029BD0
010000
003D00
00EA00
024240
000000
02FD00
0F9B40
2C02C0
7401D0
B001D0
E002C0
E002C0
E00380
B00B00
7D6D00
1BE400
ENDCHAR
STARTCHAR uni1ED8
ENCODING 7896
SWIDTH 720 0
DWIDTH 14 0
BBX 13 21 1 -3
BITMAP
0002D000
000BB000
00282800
00000000
006FE400
01FABD00
07800F00
1E000780
2D000380
38000380
74000380
74000780
B4000B40
74000F00
78002E00
3D007C00
1F9BE000
02FE4000
00000000
00D00000
01D00000
ENDCHAR
STARTCHAR uni1ED9
ENCODING 7897
SWIDTH 561 0
DWIDTH 11 0
BBX 10 18 1 -3
BITMAP
002D00
00AB00
038280
000000
02FD00
0F9B40
2C02C0
7401D0
B001D0
E002C0
E002C0
E00380
B00B00
7D6D00
1BE400
000000
074000
070000
ENDCHAR
STARTCHAR uni1EDA
ENCODING 7898
SWIDTH 713 0
DWIDTH 14 0
BBX 16 18 1 0
BITMAP
00007800
0000E000
00028000
0000001E
006FE42C
01FABD74
07800FD0
1E000740
2D000380
38000380
74000380
74000780
B4000B40
74000F00
78002E00
3D007C00
1F9BE000
02FE4000
ENDCHAR
STARTCHAR uni1EDB
ENCODING 7899
SWIDTH 561 0
DWIDTH 11 0
BBX 12 15 1 0
BITMAP
000780
001E00
00340B
00000E
02FD2D
0F9BB4
2C02C0
7401D0
B001D0
E002C0
E002C0
E00380
B00B00
7D6D00
1BE400
ENDCHAR
STARTCHAR uni1EDC
ENCODING 7900
SWIDTH 713 0
DWIDTH 14 0
BBX 16 18 1 0
BITMAP
001E0000
00070000
00028000
0000001E
006FE42C
01FABD74
07800FD0
1E000740
2D000380
38000380
74000380
74000780
B4000B40
74000F00
78002E00
3D007C00
1F9BE000
02FE4000
ENDCHAR
STARTCHAR uni1EDD
ENCODING 7901
SWIDTH 561 0
DWIDTH 11 0
BBX 12 15 1 0
BITMAP
01D000
00B000
00240B
00000E
02FD2D
0F9BB4
2C02C0
7401D0
B001D0
E002C0
E002C0
E00380
B00B00
7D6D00
1BE400
ENDCHAR
STARTCHAR uni1EDE
ENCODING 7902
SWIDTH 713 0
DWIDTH 14 0
BBX 16 20 1 0
BITMAP
0001F400
00002800
00006800
0001E000
00018000
0000001E
006FE42C
01FABD74
07800FD0
1E000740
2D000380
38000380
74000380
74000780
B4000B40
74000F00
78002E00
3D007C00
1F9BE000
02FE4000
ENDCHAR
STARTCHAR uni1EDF
ENCODING 7903
SWIDTH 561 0
DWIDTH 11 0
BBX 12 17 1 0
BITMAP
003E00
000340
000700
003900
00300B
00000E
02FD2D
0F9BB4
2C02C0
7401D0
B001D0
E002C0
E002C0
E00380
B00B00
7D6D00
1BE400
ENDCHAR
STARTCHAR uni1EE0
ENCODING 7904
SWIDTH 713 0
DWIDTH 14 0
BBX 16 18 1 0
BITMAP
001E0600
0036DD00
0060B400
0000001E
006FE42C
01FABD74
07800FD0
1E000740
2D000380
38000380
74000380
74000780
B4000B40
74000F00
78002E00
3D007C00
1F9BE000
02FE4000
ENDCHAR
STARTCHAR uni1EE1
ENCODING 7905
SWIDTH 561 0
DWIDTH 11 0
BBX 12 15 1 0
BITMAP
02E090
077DC0
090B4B
00000E
02FD2D
0F9BB4
2C02C0
7401D0
B001D0
E002C0
E002C0
E00380
B00B00
7D6D00
1BE400
ENDCHAR
STARTCHAR uni1EE2
ENCODING 7906
SWIDTH 713 0
DWIDTH 14 0
BBX 16 18 1 -3
BITMAP
0000001E
006FE42C
01FABD74
07800FD0
1E000740
2D000380
38000380
74000380
74000780
B4000B40
74000F00
78002E00
3D007C00
1F9BE000
02FE4000
00000000
00D00000
01D00000
ENDCHAR
STARTCHAR uni1EE3
ENCODING 7907
SWIDTH 561 0
DWIDTH 11 0
BBX 12 16 1 -3
BITMAP
00000B
00000E
02FD2D
0F9BB4
2C02C0
7401D0
B001D0
E002C0
E002C0
E00380
B00B00
7D6D00
1BE400
000000
074000
070000
ENDCHAR
STARTCHAR uni1EE4
ENCODING 7908
SWIDTH 675 0
DWIDTH 14 0
BBX 13 17 1 -3
BITMAP
07400380
0B000740
0E000740
0E000B00
1D000E00
2C000E00
2C001D00
38002C00
74002C00
74003800
74007400
7801E000
2EABD000
0BFE0000
00000000
01D00000
01D00000
ENDCHAR
STARTCHAR uni1EE5
ENCODING 7909
SWIDTH 577 0
DWIDTH 12 0
BBX 10 14 1 -3
BITMAP
1D00A0
2C00E0
2C01D0
3801D0
7402C0
740380
B00780
B00B40
E02F40
B9AB00
2F8A00
000000
034000
074000
ENDCHAR
STARTCHAR uni1EE6
ENCODING 7910
SWIDTH 675 0
DWIDTH 14 0
BBX 13 20 1 0
BITMAP
0003E000
00007400
0000B000
00039000
00030000
00000000
07400380
0B000740
0E000740
0E000B00
1D000E00
2C000E00
2C001D00
38002C00
74002C00
74003800
74007400
7801E000
2EABD000
0BFE0000
ENDCHAR
STARTCHAR uni1EE7
ENCODING 7911
SWIDTH 577 0
DWIDTH 12 0
BBX 10 17 1 0
BITMAP
002E00
000280
000740
002D00
002400
000000
1D00A0
2C00E0
2C01D0
3801D0
7402C0
740380
B00780
B00B40
E02F40
B9AB00
2F8A00
ENDCHAR
STARTCHAR uni1EE8
ENCODING 7912
SWIDTH 722 0
DWIDTH 14 0
BBX 16 18 1 0
BITMAP
00007800
0000E000
00028000
0000000B
0740038E
0B0007AC
0E0007E0
0E000B00
1D000E00
2C000E00
2C001D00
38002C00
74002C00
74003800
74007400
7801F000
2EABD000
06FE0000
ENDCHAR
STARTCHAR uni1EE9
ENCODING 7913
SWIDTH 617 0
DWIDTH 12 0
BBX 14 15 1 0
BITMAP
00038000
000A0000
002801D0
000002C0
1D00A780
2C00FD00
2C01E000
3801D000
7402C000
74038000
B0078000
B00B4000
E02F4000
B9AB0000
2F8A0000
ENDCHAR
STARTCHAR uni1EEA
ENCODING 7914
SWIDTH 722 0
DWIDTH 14 0
BBX 16 18 1 0
BITMAP
002D0000
000E0000
00034000
0000000B
0740038E
0B0007AC
0E0007E0
0E000B00
1D000E00
2C000E00
2C001D00
38002C00
74002C00
74003800
74007400
7801F000
2EABD000
06FE0000
ENDCHAR
STARTCHAR uni1EEB
ENCODING 7915
SWIDTH 617 0
DWIDTH 12 0
BBX 14 15 1 0
BITMAP
01D00000
00B00000
002801D0
000002C0
1D00A780
2C00FD00
2C01E000
3801D000
7402C000
74038000
B0078000
B00B4000
E02F4000
B9AB0000
2F8A0000
ENDCHAR
STARTCHAR uni1EEC
ENCODING 7916
SWIDTH 722 0
DWIDTH 14 0
BBX 16 20 1 0
BITMAP
0003E000
00003400
00007000
00039000
00030000
0000000B
0740038E
0B0007AC
0E0007E0
0E000B00
1D000E00
2C000E00
2C001D00
38002C00
74002C00
74003800
74007400
7801F000
2EABD000
06FE0000
ENDCHAR
STARTCHAR uni1EED
ENCODING 7917
SWIDTH 617 0
DWIDTH 12 0
BBX 14 17 1 0
BITMAP
002E4000
00028000
00078000
001D0000
002801D0
000002C0
1D00A780
2C00FD00
2C01E000
3801D000
7402C000
74038000
B0078000
B00B4000
E02F4000
B9AB0000
2F8A0000
ENDCHAR
STARTCHAR uni1EEE
ENCODING 7918
SWIDTH 722 0
DWIDTH 14 0
BBX 16 18 1 0
BITMAP
001E0900
0037DC00
0060B400
0000000B
0740038E
0B0007AC
0E0007E0
0E000B00
1D000E00
2C000E00
2C001D00
38002C00
74002C00
74003800
74007400
7801F000
2EABD000
06FE0000
ENDCHAR
STARTCHAR uni1EEF
ENCODING 7919
SWIDTH 617 0
DWIDTH 12 0
BBX 14 15 1 0
BITMAP
01F46000
02AE9000
030781D0
000002C0
1D00A780
2C00FD00
2C01E000
3801D000
7402C000
74038000
B0078000
B00B4000
E02F4000
B9AB0000
2F8A0000
ENDCHAR
STARTCHAR uni1EF0
ENCODING 7920
SWIDTH 722 0
DWIDTH 14 0
BBX 16 18 1 -3
BITMAP
0000000B
0740038E
0B0007AC
0E0007E0
0E000B00
1D000E00
2C000E00
2C001D00
38002C00
74002C00
74003800
74007400
7801F000
2EABD000
06FE0000
00000000
01D00000
01D00000
ENDCHAR
STARTCHAR uni1EF1
ENCODING 7921
SWIDTH 617 0
DWIDTH 12 0
BBX 14 16 1 -3
BITMAP
000001D0
000002C0
1D00A780
2C00FD00
2C01E000
3801D000
7402C000
74038000
B0078000
B00B4000
E02F4000
B9AB0000
2F8A0000
00000000
03400000
07400000
ENDCHAR
STARTCHAR Ygrave
ENCODING 7922
SWIDTH 502 0
DWIDTH 10 0
BBX 10 18 2 0
BITMAP
0B4000
028000
00D000
000000
E001E0
B00380
700B40
741D00
383800
2CB000
1DD000
1F8000
0F0000
0E0000
1D0000
1D0000
2C0000
380000
ENDCHAR
STARTCHAR ygrave
ENCODING 7923
SWIDTH 461 0
DWIDTH 9 0
BBX 12 20 -2 -5
BITMAP
002D00
000E00
000340
000000
03800B
03801D
02C03C
02C074
01D0E0
01D1D0
00D380
00E740
00AE00
00BD00
00B800
00B000
00E000
02C000
5B4000
B90000
ENDCHAR
STARTCHAR uni1EF4
ENCODING 7924
SWIDTH 502 0
DWIDTH 10 0
BBX 10 17 2 -3
BITMAP
E001E0
B00380
700B40
741D00
383800
2CB000
1DD000
1F8000
0F0000
0E0000
1D0000
1D0000
2C0000
380000
000000
740000
740000
ENDCHAR
STARTCHAR uni1EF5
ENCODING 7925
SWIDTH 461 0
DWIDTH 9 0
BBX 12 16 -2 -5
BITMAP
03800B
03801D
02C03C
02C074
01D0E0
01D1D0
00D380
00E740
00AE00
00BD00
00B800
00B000
00E1D0
02C1C0
5B4000
B90000
ENDCHAR
STARTCHAR uni1EF6
ENCODING 7926
SWIDTH 502 0
DWIDTH 10 0
BBX 10 20 2 0
BITMAP
00F800
000D00
001D00
00A400
00D000
000000
E001E0
B00380
700B40
741D00
383800
2CB000
1DD000
1F8000
0F0000
0E0000
1D0000
1D0000
2C0000
380000
ENDCHAR
STARTCHAR uni1EF7
ENCODING 7927
SWIDTH 461 0
DWIDTH 9 0
BBX 12 22 -2 -5
BITMAP
0007E0
000070
0000B0
000390
000300
000000
03800B
03801D
02C03C
02C074
01D0E0
01D1D0
00D380
00E740
00AE00
00BD00
00B800
00B000
00E000
02C000
5B4000
B90000
ENDCHAR
STARTCHAR uni1EF8
ENCODING 7928
SWIDTH 502 0
DWIDTH 10 0
BBX 10 18 2 0
BITMAP
078180
0DB740
182D00
000000
E001E0
B00380
700B40
741D00
383800
2CB000
1DD000
1F8000
0F0000
0E0000
1D0000
1D0000
2C0000
380000
ENDCHAR
STARTCHAR uni1EF9
ENCODING 7929
SWIDTH 461 0
DWIDTH 9 0
BBX 12 20 -2 -5
BITMAP
002E09
00779C
0090B4
000000
03800B
03801D
02C03C
02C074
01D0E0
01D1D0
00D380
00E740
00AE00
00BD00
00B800
00B000
00E000
02C000
5B4000
B90000
ENDCHAR
STARTCHAR uni1F4D
ENCODING 8013
SWIDTH 778 0
DWIDTH 16 0
BBX 17 15 -2 0
BITMAP
09B4000000
34E02FE400
7581FABE00
7607800B40
000F000780
001D0003C0
002C0003C0
00380003C0
0078000380
0074000780
0078000B40
0038001E00
002D007C00
000FAAF400
0002FE8000
ENDCHAR
STARTCHAR uni2000
ENCODING 8192
SWIDTH 500 0
DWIDTH 10 0
BBX 1 1 0 0
BITMAP
00
ENDCHAR
STARTCHAR uni2001
ENCODING 8193
SWIDTH 1000 0
DWIDTH 20 0
BBX 1 1 0 0
BITMAP
00
ENDCHAR
STARTCHAR uni2002
ENCODING 8194
SWIDTH 500 0
DWIDTH 10 0
BBX 1 1 0 0
BITMAP
00
ENDCHAR
STARTCHAR uni2003
ENCODING 8195
SWIDTH 1000 0
DWIDTH 20 0
BBX 1 1 0 0
BITMAP
00
ENDCHAR
STARTCHAR uni2004
ENCODING 8196
SWIDTH 333 0
DWIDTH 7 0
BBX 1 1 0 0
BITMAP
00
ENDCHAR
STARTCHAR uni2005
ENCODING 8197
SWIDTH 250 0
DWIDTH 5 0
BBX 1 1 0 0
BITMAP
00
ENDCHAR
STARTCHAR uni2006
ENCODING 8198
SWIDTH 166 0
DWIDTH 3 0
BBX 1 1 0 0
BITMAP
00
ENDCHAR
STARTCHAR uni2007
ENCODING 8199
SWIDTH 559 0
DWIDTH 11 0
BBX 1 1 0 0
BITMAP
00
ENDCHAR
STARTCHAR uni2008
ENCODING 8200
SWIDTH 266 0
DWIDTH 5 0
BBX 1 1 0 0
BITMAP
00
ENDCHAR
STARTCHAR uni2009
ENCODING 8201
SWIDTH 200 0
DWIDTH 4 0
BBX 1 1 0 0
BITMAP
00
ENDCHAR
STARTCHAR uni200A
ENCODING 8202
SWIDTH 100 0
DWIDTH 2 0
BBX 1 1 0 0
BITMAP
00
ENDCHAR
STARTCHAR uni200B
ENCODING 8203
SWIDTH 0 0
DWIDTH 0 0
BBX 1 1 0 0
BITMAP
00
ENDCHAR
STARTCHAR endash
ENCODING 8211
SWIDTH 479 0
DWIDTH 10 0
BBX 9 2 0 4
BITMAP
7FFF80
6AAA40
ENDCHAR
STARTCHAR emdash
ENCODING 8212
SWIDTH 959 0
DWIDTH 19 0
BBX 19 2 0 4
BITMAP
7FFFFFFFF4
6AAAAAAAA0
ENDCHAR
STARTCHAR afii00208
ENCODING 8213
SWIDTH 959 0
DWIDTH 19 0
BBX 19 2 0 4
BITMAP
7FFFFFFFF4
6AAAAAAAA0
ENDCHAR
STARTCHAR underscoredbl
ENCODING 8215
SWIDTH 394 0
DWIDTH 8 0
BBX 9 4 -2 -5
BITMAP
7FFF80
155540
FFFF00
555500
ENDCHAR
STARTCHAR quoteleft
ENCODING 8216
SWIDTH 169 0
DWIDTH 3 0
BBX 4 5 1 9
BITMAP
07
0D
2C
38
B4
ENDCHAR
STARTCHAR quoteright
ENCODING 8217
SWIDTH 169 0
DWIDTH 3 0
BBX 4 5 1 9
BITMAP
0F
1E
2C
34
A0
ENDCHAR
STARTCHAR quotesinglbase
ENCODING 8218
SWIDTH 240 0
DWIDTH 5 0
BBX 4 5 -1 -3
BITMAP
1E
2D
38
74
A0
ENDCHAR
STARTCHAR quotereversed
ENCODING 8219
SWIDTH 169 0
DWIDTH 3 0
BBX 2 5 2 9
BITMAP
B0
B0
70
70
30
ENDCHAR
STARTCHAR quotedblleft
ENCODING 8220
SWIDTH 351 0
DWIDTH 7 0
BBX 8 5 1 9
BITMAP
0709
0D1C
2C38
38B4
B4F0
ENDCHAR
STARTCHAR quotedblright
ENCODING 8221
SWIDTH 351 0
DWIDTH 7 0
BBX 8 5 1 9
BITMAP
0F1E
1E2C
2C38
34B0
A0D0
ENDCHAR
STARTCHAR quotedblbase
ENCODING 8222
SWIDTH 418 0
DWIDTH 8 0
BBX 8 5 -1 -3
BITMAP
1E2D
2D3C
3874
74A0
A0D0
ENDCHAR
STARTCHAR dagger
ENCODING 8224
SWIDTH 465 0
DWIDTH 9 0
BBX 8 15 2 0
BITMAP
01E0
01D0
02C0
0280
BBAD
A768
0700
0600
0A00
0D00
1D00
2C00
3C00
3800
7800
ENDCHAR
STARTCHAR daggerdbl
ENCODING 8225
SWIDTH 476 0
DWIDTH 10 0
BBX 9 15 1 0
BITMAP
007800
007400
007000
2EBB80
19E640
00D000
01D000
02C000
028000
024000
FBAD00
AB6800
060000
0E0000
1E0000
ENDCHAR
STARTCHAR bullet
ENCODING 8226
SWIDTH 377 0
DWIDTH 8 0
BBX 5 5 2 5
BITMAP
2E00
BF40
FF40
FF00
BD00
ENDCHAR
STARTCHAR ellipsis
ENCODING 8230
SWIDTH 763 0
DWIDTH 15 0
BBX 13 3 0 0
BITMAP
24090140
781F07C0
741D0780
ENDCHAR
STARTCHAR perthousand
ENCODING 8240
SWIDTH 1117 0
DWIDTH 22 0
BBX 21 14 1 0
BITMAP
06E002C00000
1E7807400000
28280D000000
342828000000
7038B0000000
7035DB907E00
707379A1D740
39DA70734340
1F6CA0770340
0074D0A70340
00D0D0EA0700
0280D1CA0A00
0A00E7876C00
1C007E02E400
ENDCHAR
STARTCHAR minute
ENCODING 8242
SWIDTH 216 0
DWIDTH 4 0
BBX 3 5 2 9
BITMAP
38
74
70
A0
90
ENDCHAR
STARTCHAR second
ENCODING 8243
SWIDTH 386 0
DWIDTH 8 0
BBX 6 5 2 9
BITMAP
38B0
74E0
70D0
A1C0
9180
ENDCHAR
STARTCHAR guilsinglleft
ENCODING 8249
SWIDTH 283 0
DWIDTH 6 0
BBX 5 8 1 1
BITMAP
0240
0A00
3800
F000
A000
7400
2800
1800
ENDCHAR
STARTCHAR guilsinglright
ENCODING 8250
SWIDTH 283 0
DWIDTH 6 0
BBX 5 8 0 1
BITMAP
1800
0D00
0B00
0340
0780
1E00
7800
6000
ENDCHAR
STARTCHAR exclamdbl
ENCODING 8252
SWIDTH 479 0
DWIDTH 10 0
BBX 11 14 0 0
BITMAP
0780B4
0B40B0
0B00F0
0E00E0
0E01D0
1D01C0
1C0280
280280
240340
340300
000000
600900
F01F00
E01D00
ENDCHAR
STARTCHAR fraction
ENCODING 8260
SWIDTH 130 0
DWIDTH 3 0
BBX 12 14 -5 0
BITMAP
00000B
00001D
000034
0000A0
0002C0
000740
000D00
002800
00B000
01D000
034000
0A0000
280000
700000
ENDCHAR
STARTCHAR zerosuperior
ENCODING 8304
SWIDTH 350 0
DWIDTH 7 0
BBX 7 9 1 5
BITMAP
07E0
1D74
3434
7034
7034
A070
A0A0
75D0
2F40
ENDCHAR
STARTCHAR foursuperior
ENCODING 8308
SWIDTH 350 0
DWIDTH 7 0
BBX 6 9 1 5
BITMAP
00B0
01E0
03A0
0990
28D0
61C0
FFF0
0280
0340
ENDCHAR
STARTCHAR fivesuperior
ENCODING 8309
SWIDTH 350 0
DWIDTH 7 0
BBX 7 9 1 5
BITMAP
0BF4
0D50
1C00
2F80
01E0
0060
00A0
51D0
7E40
ENDCHAR
STARTCHAR sixsuperior
ENCODING 8310
SWIDTH 350 0
DWIDTH 7 0
BBX 7 9 1 5
BITMAP
02F8
0A40
1800
3BD0
78B0
7070
7070
35E0
1F80
ENDCHAR
STARTCHAR sevensuperior
ENCODING 8311
SWIDTH 350 0
DWIDTH 7 0
BBX 6 9 2 5
BITMAP
7FF0
00D0
02C0
0340
0A00
1D00
3800
7000
D000
ENDCHAR
STARTCHAR eightsuperior
ENCODING 8312
SWIDTH 350 0
DWIDTH 7 0
BBX 7 9 1 5
BITMAP
07E0
1D74
2834
1D70
0FC0
75E0
A0A0
A1A0
2F80
ENDCHAR
STARTCHAR ninesuperior
ENCODING 8313
SWIDTH 350 0
DWIDTH 7 0
BBX 7 9 1 5
BITMAP
07D0
1D74
3434
3434
38B4
1FB0
00A0
4680
BE00
ENDCHAR
STARTCHAR nsuperior
ENCODING 8319
SWIDTH 368 0
DWIDTH 7 0
BBX 7 7 1 7
BITMAP
0DB4
1E28
1C18
2824
3434
3030
7070
ENDCHAR
STARTCHAR franc
ENCODING 8355
SWIDTH 550 0
DWIDTH 11 0
BBX 12 14 0 0
BITMAP
007FFE
00BAA9
00E000
00D000
01D000
02C000
02C000
03FFE0
079550
070000
7FF800
1E5000
0D0000
1D0000
ENDCHAR
STARTCHAR afii08941
ENCODING 8356
SWIDTH 550 0
DWIDTH 11 0
BBX 12 14 0 0
BITMAP
000BE8
003D6D
00B000
00E000
01D000
01D000
2FFF80
179500
3FFF00
1B5500
0B0000
1D0000
BAAA90
FFFFD0
ENDCHAR
STARTCHAR peseta
ENCODING 8359
SWIDTH 725 0
DWIDTH 15 0
BBX 14 14 0 0
BITMAP
02FE4000
02DBD000
0381E000
0740E000
0740E280
0B01D740
0E1BAFF0
0FFE1B50
1E500E00
1C000D00
2C001D00
38002C00
34002D40
74001F80
ENDCHAR
STARTCHAR uni20AB
ENCODING 8363
SWIDTH 577 0
DWIDTH 12 0
BBX 13 19 0 -4
BITMAP
00000A00
00000E00
000FFFC0
00056D40
00BE2C00
03E6B800
0B40B800
1E00B400
2C00B000
3C00F000
3801E000
3802D000
380BD000
2E6AC000
0BE28000
00000000
00000000
BFFF4000
55550000
ENDCHAR
STARTCHAR Euro
ENCODING 8364
SWIDTH 550 0
DWIDTH 11 0
BBX 12 14 0 0
BITMAP
0006F9
002FAA
00B400
01E000
02C000
2FFF80
1B5540
0B0000
7FFE00
1B5400
0B0000
078000
02EA90
00BF80
ENDCHAR
STARTCHAR afii61248
ENCODING 8453
SWIDTH 777 0
DWIDTH 16 0
BBX 12 14 2 0
BITMAP
0BE00A
28001C
700074
7000D0
740280
2F8B00
001D00
003400
00A1B8
02C74A
074A07
0D090A
280A1D
B002F4
ENDCHAR
STARTCHAR afii61289
ENCODING 8467
SWIDTH 500 0
DWIDTH 10 0
BBX 8 14 1 0
BITMAP
02F4
075C
0B0C
0B0C
0B1C
0B24
0BA0
1B80
6B00
0B00
0B01
0702
0799
01F8
ENDCHAR
STARTCHAR afii61352
ENCODING 8470
SWIDTH 950 0
DWIDTH 19 0
BBX 19 14 0 0
BITMAP
02E0028000
02F0038000
03B4034000
0378070000
072C0B0000
0B1C0A0BD0
0A0D0E2970
0E0E1D7034
1D0B1C7030
1C076C74A0
2C03A82F80
3802F40000
3401F45540
7400F0FF80
ENDCHAR
STARTCHAR uni2120
ENCODING 8480
SWIDTH 762 0
DWIDTH 15 0
BBX 13 7 1 7
BITMAP
7E2C0740
D12D0B40
D02B1A40
6D272740
0726B340
0725E340
FD24D340
ENDCHAR
STARTCHAR trademark
ENCODING 8482
SWIDTH 749 0
DWIDTH 15 0
BBX 13 7 1 7
BITMAP
BFDE03C0
0D0F07C0
0D0E4AC0
0D0D8DC0
0D0CD9C0
0D0CB5C0
0D0C71C0
ENDCHAR
STARTCHAR Omega
ENCODING 8486
SWIDTH 732 0
DWIDTH 15 0
BBX 14 14 0 0
BITMAP
001BF900
00BEAF40
02E002D0
078001E0
0B0000E0
0E0000F0
1D0000E0
1D0001E0
1D0002D0
0E000380
0B000F00
07403800
57D1F940
FFD3FFC0
ENDCHAR
STARTCHAR estimated
ENCODING 8494
SWIDTH 619 0
DWIDTH 12 0
BBX 11 11 1 0
BITMAP
02AA00
1D0180
3800A0
7800B4
B800B4
BFFFF4
B80000
780000
380060
1D0180
02FE00
ENDCHAR
STARTCHAR oneeighth
ENCODING 8539
SWIDTH 752 0
DWIDTH 15 0
BBX 14 14 1 0
BITMAP
07400E00
2B402800
27007000
0601D000
0A038000
0D0A2F80
0D1CB1D0
1C74A0D0
28D07280
02807E00
0B01D740
1D024280
34028740
A001BD00
ENDCHAR
STARTCHAR threeeighths
ENCODING 8540
SWIDTH 812 0
DWIDTH 16 0
BBX 15 14 1 0
BITMAP
1BD001C0
14B00740
00700E00
00A02800
1F807000
01D1D7E0
00D39D74
51CA1824
BE5C1D70
00740BC0
00E075E0
0280A070
0700B0A0
1D002F80
ENDCHAR
STARTCHAR fiveeighths
ENCODING 8541
SWIDTH 818 0
DWIDTH 16 0
BBX 15 14 1 0
BITMAP
1FF001C0
29400740
34000D00
3F402800
11D0B000
00D1D7E0
00D35D28
968A1C28
BE2C0D74
00740BD0
00D039A0
02806070
0B0074A0
1D002F80
ENDCHAR
STARTCHAR seveneighths
ENCODING 8542
SWIDTH 750 0
DWIDTH 15 0
BBX 14 14 1 0
BITMAP
3FF40E00
00B02800
00D07000
0281D000
07434000
0A0A2F40
1C2CA1D0
3874A0D0
70D0B280
02807E00
0B01D740
1D034280
34028740
A001BD00
ENDCHAR
STARTCHAR partialdiff
ENCODING 8706
SWIDTH 581 0
DWIDTH 12 0
BBX 10 15 1 0
BITMAP
02FE00
065B80
0002D0
0001D0
0000E0
02F9E0
1F9BE0
2C02E0
7401D0
B002C0
B00380
B00740
B00E00
79BC00
1BE000
ENDCHAR
STARTCHAR Delta
ENCODING 8710
SWIDTH 558 0
DWIDTH 11 0
BBX 11 14 -1 0
BITMAP
0002D0
0003E0
000BA0
001DA0
002CB0
0078B0
00B070
01D074
03C074
074034
0E0038
2D0038
3D5578
7FFFF8
ENDCHAR
STARTCHAR product
ENCODING 8719
SWIDTH 741 0
DWIDTH 15 0
BBX 12 19 2 -5
BITMAP
BFFFFD
BAAAAD
B0001D
B0001D
B0001D
B0001D
B0001D
B0001D
B0001D
B0001D
B0001D
B0001D
B0001D
B0001D
B0001D
B0001D
B0001D
B0001D
B0001D
ENDCHAR
STARTCHAR summation
ENCODING 8721
SWIDTH 630 0
DWIDTH 13 0
BBX 12 19 2 -5
BITMAP
FFFFF8
BAAAA4
2D0000
0F0000
078000
02D000
00B400
003C00
001E00
001E00
003C00
00B400
01E000
03C000
0B4000
1E0000
3C0000
B95554
FFFFFD
ENDCHAR
STARTCHAR minus
ENCODING 8722
SWIDTH 550 0
DWIDTH 11 0
BBX 10 2 1 6
BITMAP
BFFFD0
555540
ENDCHAR
STARTCHAR radical
ENCODING 8730
SWIDTH 548 0
DWIDTH 11 0
BBX 12 16 1 0
BITMAP
00000D
00001C
000028
000034
0000A0
0000D0
0001C0
FC0280
5D0340
0E0700
0B0A00
034D00
029C00
01F800
00F400
00B000
ENDCHAR
STARTCHAR infinity
ENCODING 8734
SWIDTH 707 0
DWIDTH 14 0
BBX 13 6 1 4
BITMAP
1B81B800
39B75B00
602D0340
602D0340
39B75B00
1F81F900
ENDCHAR
STARTCHAR integral
ENCODING 8747
SWIDTH 383 0
DWIDTH 8 0
BBX 8 20 0 -5
BITMAP
007E
01E5
02C0
02C0
02C0
02C0
02C0
02C0
02C0
02C0
02C0
02C0
02C0
02C0
02C0
02C0
0280
0380
5B40
BD00
ENDCHAR
STARTCHAR approxequal
ENCODING 8776
SWIDTH 550 0
DWIDTH 11 0
BBX 10 6 1 4
BITMAP
6E4010
E6F9D0
402F80
6E4010
E6F9D0
402F80
ENDCHAR
STARTCHAR notequal
ENCODING 8800
SWIDTH 550 0
DWIDTH 11 0
BBX 10 11 1 2
BITMAP
000900
000D00
002C00
BFFFD0
55B540
00E000
01C000
BFFFD0
5B5540
0E0000
090000
ENDCHAR
STARTCHAR lessequal
ENCODING 8804
SWIDTH 550 0
DWIDTH 11 0
BBX 10 12 1 0
BITMAP
000090
000B80
007D00
07D000
7D0000
B80000
1F9000
01B900
001B80
000190
555540
BFFFD0
ENDCHAR
STARTCHAR greaterequal
ENCODING 8805
SWIDTH 550 0
DWIDTH 11 0
BBX 10 12 1 0
BITMAP
900000
B90000
0B9000
00B800
000B80
0007D0
007E00
0BE000
BD0000
900000
555540
BFFFD0
ENDCHAR
STARTCHAR lozenge
ENCODING 9674
SWIDTH 583 0
DWIDTH 12 0
BBX 10 14 1 0
BITMAP
007000
00F800
02ED00
074E00
0E0740
2C02C0
7400E0
7400E0
2C02C0
0E0740
074E00
02ED00
00F800
007000
ENDCHAR
STARTCHAR ff
ENCODING 64256
SWIDTH 630 0
DWIDTH 13 0
BBX 18 20 -3 -5
BITMAP
0001BE0BE0
0003D52E50
0007403800
000B007400
00BFFFFF40
005E55E500
001D00E000
002C01D000
002C01D000
003802C000
0074038000
0074038000
00B0074000
00A0070000
00E00B0000
01D00E0000
01D00E0000
02C01D0000
1B41780000
7E02E00000
ENDCHAR
STARTCHAR uniFB01
ENCODING 64257
SWIDTH 568 0
DWIDTH 11 0
BBX 15 20 -3 -5
BITMAP
0001BE34
0003D574
00074000
000B0000
00BFF0E0
005E51D0
001D01D0
002C02C0
002C02C0
00380380
00740740
00740740
00B00B00
00A00A00
00E00E00
01D00000
01D00000
02C00000
1B400000
7E000000
ENDCHAR
STARTCHAR uniFB02
ENCODING 64258
SWIDTH 568 0
DWIDTH 11 0
BBX 15 20 -3 -5
BITMAP
0001BE38
0003D574
00074074
000B00B0
00BFF0E0
005E50E0
001D01D0
002C02C0
002C02C0
00380380
00740740
00740740
00B00B00
00A00E00
00E00E00
01D00000
01D00000
02C00000
1B400000
7E000000
ENDCHAR
STARTCHAR uniFB03
ENCODING 64259
SWIDTH 886 0
DWIDTH 18 0
BBX 21 20 -3 -5
BITMAP
0001BE0BE280
0003D52E5380
000740380000
000B00740000
00BFFFFF4B00
005E55E50A00
001D00E00E00
002C01D01D00
002C01D01D00
003802C02C00
007403803800
007403803800
00B007407400
00A007007400
00E00B00B000
01D00E000000
01D00E000000
02C01D000000
1B4178000000
7E02E0000000
ENDCHAR
STARTCHAR uniFB04
ENCODING 64260
SWIDTH 886 0
DWIDTH 18 0
BBX 21 20 -3 -5
BITMAP
0001BE0BE2C0
0003D52E5380
000740380380
000B00740740
00BFFFFF4B00
005E55E50B00
001D00E00E00
002C01D01D00
002C01D01D00
003802C02C00
007403802800
007403803800
00B007407400
00A007007000
00E00B00B000
01D00E000000
01D00E000000
02C01D000000
1B4178000000
7E02E0000000
ENDCHAR
STARTCHAR uniFEFF
ENCODING 65279
SWIDTH 0 0
DWIDTH 0 0
BBX 1 1 0 0
BITMAP
00
ENDCHAR
STARTCHAR uniFFFC
ENCODING 65532
SWIDTH 1000 0
DWIDTH 20 0
BBX 20 19 0 -4
BITMAP
7E3E7D7DBD
7000000009
7000000009
0000000000
7000000009
7000000009
70BD2F8289
01C725C280
72836F8289
728364C289
31C724D349
00BD2F9E00
7000000009
7000000009
3000000009
0000000000
7000000009
7000000009
7E3E7D7DBD
ENDCHAR
STARTCHAR uniFFFD
ENCODING 65533
SWIDTH 1000 0
DWIDTH 20 0
BBX 18 18 1 -3
BITMAP
0000900000
0002F80000
000BFE0000
002FFF8000
00B906E000
02F000F800
0BFAF0BE00
2FFFF0BF80
BFFF82FFE0
BFFE0BFFE0
2FFE1FFF80
0BFFFFFE00
02FE6FF800
00BD0FE000
002E1F8000
000BFE0000
0002F80000
0000900000
ENDCHAR
STARTCHAR .notdef
ENCODING -1
SWIDTH 600 0
DWIDTH 12 0
BBX 8 14 2 0
BITMAP
FFFF
C003
C003
C003
C003
C003
C003
C003
C003
C003
C003
C003
C003
FFFF
ENDCHAR
STARTCHAR null
ENCODING -1
SWIDTH 0 0
DWIDTH 0 0
BBX 1 1 0 0
BITMAP
00
ENDCHAR
STARTCHAR nonmarkingreturn
ENCODING -1
SWIDTH 509 0
DWIDTH 10 0
BBX 1 1 0 0
BITMAP
00
ENDCHAR
STARTCHAR I.alt
ENCODING -1
SWIDTH 317 0
DWIDTH 6 0
BBX 9 14 -1 0
BITMAP
01FF40
007800
007400
00B000
00B000
00E000
00D000
01D000
02C000
028000
038000
074000
0B4000
7FE000
ENDCHAR
STARTCHAR Igrave.alt
ENCODING -1
SWIDTH 317 0
DWIDTH 6 0
BBX 9 18 -1 0
BITMAP
00B000
007400
001C00
000000
01FF40
007800
007400
00B000
00B000
00E000
00D000
01D000
02C000
028000
038000
074000
0B4000
7FE000
ENDCHAR
STARTCHAR Iacute.alt
ENCODING -1
SWIDTH 317 0
DWIDTH 6 0
BBX 10 18 -1 0
BITMAP
0002D0
000740
001D00
000000
01FF40
007800
007400
00B000
00B000
00E000
00D000
01D000
02C000
028000
038000
074000
0B4000
7FE000
ENDCHAR
STARTCHAR Icircumflex.alt
ENCODING -1
SWIDTH 317 0
DWIDTH 6 0
BBX 9 18 -1 0
BITMAP
001E00
007B40
01D1C0
000000
01FF40
007800
007400
00B000
00B000
00E000
00D000
01D000
02C000
028000
038000
074000
0B4000
7FE000
ENDCHAR
STARTCHAR Idieresis.alt
ENCODING -1
SWIDTH 317 0
DWIDTH 6 0
BBX 9 18 -1 0
BITMAP
00D1C0
00D180
000000
000000
01FF40
007800
007400
00B000
00B000
00E000
00D000
01D000
02C000
028000
038000
074000
0B4000
7FE000
ENDCHAR
STARTCHAR Itilde.alt
ENCODING -1
SWIDTH 317 0
DWIDTH 6 0
BBX 10 18 -1 0
BITMAP
00B430
02AEA0
030780
000000
01FF40
007800
007400
00B000
00B000
00E000
00D000
01D000
02C000
028000
038000
074000
0B4000
7FE000
ENDCHAR
STARTCHAR Imacron.alt
ENCODING -1
SWIDTH 317 0
DWIDTH 6 0
BBX 9 17 -1 0
BITMAP
005540
01FFC0
000000
01FF40
007800
007400
00B000
00B000
00E000
00D000
01D000
02C000
028000
038000
074000
0B4000
7FE000
ENDCHAR
STARTCHAR Ibreve.alt
ENCODING -1
SWIDTH 317 0
DWIDTH 6 0
BBX 10 18 -1 0
BITMAP
00C090
00E6C0
007E00
000000
01FF40
007800
007400
00B000
00B000
00E000
00D000
01D000
02C000
028000
038000
074000
0B4000
7FE000
ENDCHAR
STARTCHAR Iogonek.alt
ENCODING -1
SWIDTH 317 0
DWIDTH 6 0
BBX 9 18 -1 -4
BITMAP
01FF40
007800
007400
00B000
00B000
00E000
00D000
01D000
02C000
028000
038000
074000
0B4000
7FE000
0A0000
180000
280000
1F0000
ENDCHAR
STARTCHAR Idotaccent.alt
ENCODING -1
SWIDTH 317 0
DWIDTH 6 0
BBX 9 18 -1 0
BITMAP
001D00
001D00
000000
000000
01FF40
007800
007400
00B000
00B000
00E000
00D000
01D000
02C000
028000
038000
074000
0B4000
7FE000
ENDCHAR
STARTCHAR IJ.alt
ENCODING -1
SWIDTH 583 0
DWIDTH 12 0
BBX 13 18 -1 -4
BITMAP
01FF4380
00780380
00740740
00B00B00
00B00B00
00E00E00
00D01D00
01D01D00
02C02C00
02802C00
03803800
07407400
0B407400
7FE0B000
0000E000
0001D000
006B8000
00BE0000
ENDCHAR
STARTCHAR Iotatonos.alt
ENCODING -1
SWIDTH 439 0
DWIDTH 9 0
BBX 9 15 1 0
BITMAP
2D0000
38FF80
702D00
D03800
003800
007400
00B000
00B000
00E000
00D000
01D000
02C000
028000
078000
2FF000
ENDCHAR
STARTCHAR Iota.alt
ENCODING -1
SWIDTH 317 0
DWIDTH 6 0
BBX 9 14 -1 0
BITMAP
01FF40
007800
007400
00B000
00B000
00E000
00D000
01D000
02C000
028000
038000
074000
0B4000
7FE000
ENDCHAR
STARTCHAR Iotadieresis.alt
ENCODING -1
SWIDTH 317 0
DWIDTH 6 0
BBX 9 18 -1 0
BITMAP
00D1C0
00D180
000000
000000
01FF40
007800
007400
00B000
00B000
00E000
00D000
01D000
02C000
028000
038000
074000
0B4000
7FE000
ENDCHAR
STARTCHAR afii10055.alt
ENCODING -1
SWIDTH 317 0
DWIDTH 6 0
BBX 9 14 -1 0
BITMAP
01FF40
007800
007400
00B000
00B000
00E000
00D000
01D000
02C000
028000
038000
074000
0B4000
7FE000
ENDCHAR
STARTCHAR afii10056.alt
ENCODING -1
SWIDTH 317 0
DWIDTH 6 0
BBX 9 18 -1 0
BITMAP
00D1C0
00D180
000000
000000
01FF40
007800
007400
00B000
00B000
00E000
00D000
01D000
02C000
028000
038000
074000
0B4000
7FE000
ENDCHAR
STARTCHAR cyrillicbreve
ENCODING -1
SWIDTH 562 0
DWIDTH 11 0
BBX 8 3 3 12
BITMAP
B01D
7578
2FE0
ENDCHAR
STARTCHAR caroncommaaccent
ENCODING -1
SWIDTH 477 0
DWIDTH 10 0
BBX 3 3 5 12
BITMAP
2C
74
90
ENDCHAR
STARTCHAR commaaccent
ENCODING -1
SWIDTH 477 0
DWIDTH 10 0
BBX 4 3 1 -4
BITMAP
1D
28
60
ENDCHAR
STARTCHAR commaaccentrotate
ENCODING -1
SWIDTH 477 0
DWIDTH 10 0
BBX 3 3 5 12
BITMAP
18
74
E0
ENDCHAR
STARTCHAR dasiaoxia
ENCODING -1
SWIDTH 418 0
DWIDTH 8 0
BBX 6 4 3 11
BITMAP
15E0
A2C0
E340
A500
ENDCHAR
STARTCHAR uni04C0.alt
ENCODING -1
SWIDTH 317 0
DWIDTH 6 0
BBX 9 14 -1 0
BITMAP
01FF40
007800
007400
00B000
00B000
00E000
00D000
01D000
02C000
028000
038000
074000
0B4000
7FE000
ENDCHAR
STARTCHAR uni04CF.alt
ENCODING -1
SWIDTH 317 0
DWIDTH 6 0
BBX 9 14 -1 0
BITMAP
01FF40
007800
007400
00B000
00B000
00E000
00D000
01D000
02C000
028000
038000
074000
0B4000
7FE000
ENDCHAR
STARTCHAR uni1EC8.alt
ENCODING -1
SWIDTH 317 0
DWIDTH 6 0
BBX 9 20 -1 0
BITMAP
001F40
0002C0
000680
001E00
001800
000000
01FF40
007800
007400
00B000
00B000
00E000
00D000
01D000
02C000
028000
038000
074000
0B4000
7FE000
ENDCHAR
STARTCHAR uni1ECA.alt
ENCODING -1
SWIDTH 317 0
DWIDTH 6 0
BBX 9 17 -1 -3
BITMAP
01FF40
007800
007400
00B000
00B000
00E000
00D000
01D000
02C000
028000
038000
074000
0B4000
7FE000
000000
0E0000
0D0000
ENDCHAR
STARTCHAR circumflexacutecomb
ENCODING -1
SWIDTH 0 0
DWIDTH 0 0
BBX 9 4 -8 12
BITMAP
000380
0B8D00
1DD000
606000
ENDCHAR
STARTCHAR circumflexgravecomb
ENCODING -1
SWIDTH 0 0
DWIDTH 0 0
BBX 7 4 -9 12
BITMAP
9000
22E0
0774
1818
ENDCHAR
STARTCHAR circumflexhookcomb
ENCODING -1
SWIDTH 0 0
DWIDTH 0 0
BBX 9 5 -8 12
BITMAP
001A00
000340
0B8D00
1DD000
606000
ENDCHAR
STARTCHAR circumflextildecomb
ENCODING -1
SWIDTH 0 0
DWIDTH 0 0
BBX 8 6 -8 12
BITMAP
1F49
35F8
0000
0780
1DD0
6060
ENDCHAR
STARTCHAR breveacutecomb
ENCODING -1
SWIDTH 0 0
DWIDTH 0 0
BBX 7 5 -8 12
BITMAP
00B4
0280
6034
39A0
1F80
ENDCHAR
STARTCHAR brevegravecomb
ENCODING -1
SWIDTH 0 0
DWIDTH 0 0
BBX 7 5 -8 12
BITMAP
1D00
0700
6034
39A0
1F80
ENDCHAR
STARTCHAR brevehookcomb
ENCODING -1
SWIDTH 0 0
DWIDTH 0 0
BBX 7 5 -8 12
BITMAP
06C0
00D0
6374
39A0
1F80
ENDCHAR
STARTCHAR brevetildecomb
ENCODING -1
SWIDTH 0 0
DWIDTH 0 0
BBX 8 6 -8 12
BITMAP
2E49
66F8
0000
6034
39A0
1F80
ENDCHAR
STARTCHAR cyrillichookleft
ENCODING -1
SWIDTH 205 0
DWIDTH 4 0
BBX 4 4 -2 -4
BITMAP
0A
0A
0A
B9
ENDCHAR
STARTCHAR one.pnum
ENCODING -1
SWIDTH 375 0
DWIDTH 8 0
BBX 6 14 1 0
BITMAP
01F0
0BF0
7DE0
61D0
01D0
02C0
0380
0380
0740
0B00
0B00
0E00
1D00
1D00
ENDCHAR
STARTCHAR zero.os
ENCODING -1
SWIDTH 554 0
DWIDTH 11 0
BBX 9 11 1 0
BITMAP
02F900
1F9B40
3C0380
7402C0
B002C0
E002C0
E00380
E00740
B00B00
7D7D00
1BE400
ENDCHAR
STARTCHAR one.os
ENCODING -1
SWIDTH 358 0
DWIDTH 7 0
BBX 5 11 1 0
BITMAP
02C0
1FC0
BA80
9340
0740
0B00
0B00
0E00
0D00
1D00
2C00
ENDCHAR
STARTCHAR two.os
ENCODING -1
SWIDTH 483 0
DWIDTH 10 0
BBX 10 11 -1 0
BITMAP
00BF80
07E6E0
0200E0
0000E0
0001D0
000780
002D00
01F400
078000
2EAA80
7FFFC0
ENDCHAR
STARTCHAR three.os
ENCODING -1
SWIDTH 483 0
DWIDTH 10 0
BBX 11 14 -2 -3
BITMAP
006F90
03E5F4
010078
000038
000074
0006E0
01FE40
005B40
0002D0
0001E0
0001D0
0002C0
7A6F40
2BF900
ENDCHAR
STARTCHAR four.os
ENCODING -1
SWIDTH 540 0
DWIDTH 11 0
BBX 11 14 -1 -3
BITMAP
0000B8
0002F4
000BB0
001DB0
0078E0
01E0D0
0381D0
0E02C0
2C0380
7FFFF8
155B50
000700
000B00
000E00
ENDCHAR
STARTCHAR five.os
ENCODING -1
SWIDTH 503 0
DWIDTH 10 0
BBX 11 14 -1 -3
BITMAP
00FFF4
01EAA0
02C000
038000
074000
0BFE00
065BC0
0002D0
0001E0
0000E0
0001D0
0003C0
796F40
2FE800
ENDCHAR
STARTCHAR six.os
ENCODING -1
SWIDTH 540 0
DWIDTH 11 0
BBX 10 14 1 0
BITMAP
006FD0
02F950
0B8000
1E0000
2C0000
39B900
7A5F40
B80380
B00380
E00380
E00740
B00B00
7D7D00
1BE400
ENDCHAR
STARTCHAR seven.os
ENCODING -1
SWIDTH 474 0
DWIDTH 9 0
BBX 10 14 0 -3
BITMAP
7FFFD0
5556C0
000380
000B00
001D00
003800
00B400
00E000
02C000
074000
0E0000
2D0000
380000
B00000
ENDCHAR
STARTCHAR eight.os
ENCODING -1
SWIDTH 534 0
DWIDTH 11 0
BBX 11 14 0 0
BITMAP
006F90
02E6F0
038074
074074
0780B0
02D6D0
00FE00
0B9F40
2D03C0
7801D0
7401D0
7802C0
3E5B40
0BF900
ENDCHAR
STARTCHAR nine.os
ENCODING -1
SWIDTH 527 0
DWIDTH 11 0
BBX 10 14 0 -3
BITMAP
01BE00
0B9B80
1D01D0
3800D0
3801E0
3802D0
2D0BD0
1FFAC0
015380
000740
000B00
002D00
A6F800
BF9000
ENDCHAR
STARTCHAR g.alt
ENCODING -1
SWIDTH 577 0
DWIDTH 12 0
BBX 11 16 0 -5
BITMAP
00BE1C
03E6A8
0B40F4
1E00B4
2C00B0
3C00E0
3801E0
3802D0
380BD0
2E6AC0
0BE380
000380
000740
000F00
697D00
6FE400
ENDCHAR
STARTCHAR gcircumflex.alt
ENCODING -1
SWIDTH 577 0
DWIDTH 12 0
BBX 11 20 0 -5
BITMAP
000780
001ED0
00A470
000000
00BE1C
03E6A8
0B40F4
1E00B4
2C00B0
3C00E0
3801E0
3802D0
380BD0
2E6AC0
0BE380
000380
000740
000F00
697D00
6FE400
ENDCHAR
STARTCHAR gbreve.alt
ENCODING -1
SWIDTH 577 0
DWIDTH 12 0
BBX 11 20 0 -5
BITMAP
006034
0039A0
001F80
000000
00BE1C
03E6A8
0B40F4
1E00B4
2C00B0
3C00E0
3801E0
3802D0
380BD0
2E6AC0
0BE380
000380
000740
000F00
697D00
6FE400
ENDCHAR
STARTCHAR gdot.alt
ENCODING -1
SWIDTH 577 0
DWIDTH 12 0
BBX 11 20 0 -5
BITMAP
000A00
000A00
000000
000000
00BE1C
03E6A8
0B40F4
1E00B4
2C00B0
3C00E0
3801E0
3802D0
380BD0
2E6AC0
0BE380
000380
000740
000F00
697D00
6FE400
ENDCHAR
STARTCHAR gcommaaccent.alt
ENCODING -1
SWIDTH 577 0
DWIDTH 12 0
BBX 11 20 0 -5
BITMAP
0001C0
000340
000B00
000000
00BE1C
03E6A8
0B40F4
1E00B4
2C00B0
3C00E0
3801E0
3802D0
380BD0
2E6AC0
0BE380
000380
000740
000F00
697D00
6FE400
ENDCHAR
ENDFONT
